<svg width="96" height="128" viewBox="0 0 96 128" fill="none" xmlns="http://www.w3.org/2000/svg">
    <path d="M19.6004 26.0043C19.824 25.8861 20.0475 25.7849 20.271 25.6836C17.8122 22.8313 17.709 21.5317 18.1561 20.9748C19.6692 19.017 24.0367 17.0423 30.4159 17.0423C34.0096 17.0423 37.7581 17.7005 41.2486 18.9495C46.94 20.9748 50.5509 22.46 52.9411 23.4389C55.3139 24.4178 56.758 25.0085 58.2026 25.2954C59.3718 25.5317 60.4035 25.6499 61.3662 25.6499C61.9683 25.6499 62.5014 25.5992 63 25.5148C62.7073 24.8904 62.4152 24.249 62.0885 23.5739C61.6072 22.5781 61.0913 21.6161 60.5065 20.671C60.1113 20.6372 59.6812 20.5697 59.2171 20.4684C58.2199 20.2659 56.9472 19.7427 54.8498 18.882C52.408 17.8862 48.7283 16.3672 42.9336 14.3081C38.8929 12.8735 34.577 12.114 30.4331 12.114C23.2285 12.114 17.0384 14.3588 14.2529 17.9706C11.6565 21.3461 13.5479 25.1604 15.8348 28.0634C17.0212 27.3208 18.2936 26.6119 19.6004 26.0043Z" fill="#48BABA"/>
    <path d="M70.8838 20.4893C72.2071 19.3343 73.7315 18.2302 74.8368 18.2302C75.0715 18.2302 75.2553 18.2981 75.4396 18.434C78.6559 20.965 81.2021 30.6811 77.4329 41.5863C75.4564 47.2937 74.0161 50.9118 73.0614 53.3069C72.1063 55.702 71.5371 57.1456 71.2356 58.5896C70.8502 60.543 70.8166 62.0888 71.0177 63.3798C71.6206 63.0911 72.257 62.7682 72.927 62.4456C73.9321 61.9527 74.8704 61.4263 75.7579 60.8656C75.7915 60.4922 75.8586 60.0675 75.959 59.5915C76.1601 58.6065 76.6626 57.3155 77.5169 55.1921C78.4884 52.7631 79.9623 49.0772 81.9724 43.2509C86.3276 30.6811 83.48 18.5359 78.3712 14.4932C77.3326 13.6779 76.1433 13.2532 74.8368 13.2532C72.592 13.2532 70.3981 14.5441 68.5555 16.022C69.2923 17.262 69.9791 18.5359 70.5824 19.8439C70.6995 20.0817 70.7831 20.2855 70.8838 20.4893Z" fill="#48BABA"/>
    <path d="M76.386 69.996C76.1451 70.1139 75.9386 70.2155 75.7154 70.3165C78.1742 73.1692 78.2776 74.4514 77.8302 75.0254C76.317 76.9832 71.9494 78.9578 65.5694 78.9578C61.9926 78.9578 58.2439 78.2996 54.7361 77.0506C49.044 75.0254 45.4328 73.5401 43.0425 72.5783C40.6695 71.5992 39.225 71.0088 37.7805 70.7048C36.6628 70.4685 35.6654 70.3675 34.7196 70.3675C34.0834 70.3675 33.5159 70.4349 33 70.5191C33.2923 71.1267 33.5847 71.7681 33.9114 72.4263C34.3929 73.4223 34.9432 74.3841 35.5106 75.329C35.9062 75.3632 36.3188 75.4306 36.7659 75.5148C37.7633 75.7173 39.0358 76.2408 41.151 77.1184C43.5756 78.1139 47.2556 79.616 53.0677 81.6921C57.0919 83.1264 61.425 83.8861 65.5694 83.8861C71.8119 83.8861 78.9655 81.6416 81.7509 78.0297C84.3477 74.654 82.4388 70.84 80.1692 67.9368C78.9655 68.6796 77.71 69.3715 76.386 69.996Z" fill="#48BABA"/>
    <path d="M26.0544 75.4601C24.5429 76.7188 22.9954 77.8948 22.0417 77.8948C21.9338 77.8948 21.6819 77.8948 21.214 77.5634C17.7772 75.0961 15.0241 65.6229 19.0727 54.9906C21.196 49.4263 22.7435 45.8987 23.7692 43.5637C24.7948 41.2451 25.4246 39.8374 25.7305 38.4297C26.1444 36.5252 26.1804 35.0182 25.9644 33.7595C25.3167 34.041 24.6329 34.3391 23.9131 34.6703C22.8335 35.1506 21.8258 35.6806 20.8722 36.2271C20.8362 36.5914 20.7642 37.0055 20.6562 37.4526C20.4403 38.4132 19.9005 39.6718 18.9827 41.7254C17.9391 44.1102 16.3556 47.7039 14.1784 53.3845C9.5179 65.6559 12.5589 77.4973 18.0471 81.4221C19.2706 82.2998 20.6202 82.7469 22.0237 82.7469C24.4529 82.7469 26.5043 81.4721 28.5556 79.849C27.7818 78.6729 27.0621 77.4477 26.4143 76.189C26.2883 75.9237 26.1804 75.7084 26.0544 75.4601Z" fill="#48BABA"/>
    <path d="M12.8457 51.7251C9.10655 51.5068 8.14159 51.1205 8.00379 49.9955C7.45237 45.915 12.4494 37.3006 22.9086 32.3805C28.3709 29.8113 31.9894 28.3168 34.3845 27.3429C36.7624 26.3689 38.1925 25.7644 39.4331 24.9751C41.1046 23.8837 42.2418 22.809 43 21.7511C42.3452 21.516 41.656 21.2641 40.9323 21.0122C39.8984 20.6428 38.8473 20.3405 37.7962 20.0886C37.486 20.3405 37.1415 20.5924 36.7107 20.8611C35.8663 21.4152 34.5913 21.9358 32.4718 22.809C30.0423 23.8165 26.3548 25.3278 20.7719 27.9474C8.74469 33.6064 2.21414 44.135 3.07569 50.6336C3.69601 55.2346 7.65914 56.2255 11.3638 56.5443C11.6912 55.1843 12.0875 53.8243 12.57 52.4977C12.6734 52.2287 12.7595 51.9769 12.8457 51.7251Z" fill="#48BABA"/>
    <path d="M44.479 12.7864C44.7702 9.06146 45.5922 8.07944 46.3115 7.97783C46.4999 7.96089 46.7054 7.94395 46.928 7.94395C51.7406 7.94395 59.6526 13.6498 64.0195 22.8775C66.6057 28.3463 68.0955 31.9357 69.0892 34.3231C70.0824 36.6935 70.6644 38.1327 71.4692 39.3517C72.5483 41.011 73.6274 42.1284 74.655 42.8734C74.8945 42.23 75.1345 41.5697 75.3744 40.8586C75.768 39.775 76.0762 38.7083 76.3333 37.6586C76.0933 37.3707 75.8539 37.0321 75.5967 36.6427C75.0486 35.7961 74.5181 34.5262 73.6446 32.4268C72.6342 29.9886 71.11 26.3315 68.4724 20.7611C63.0091 9.21384 53.2986 3 46.928 3C46.4999 3 46.0717 3.01693 45.6778 3.08466C41.482 3.64339 40.1119 7.67307 39.6666 11.3303C41.0539 11.6689 42.441 12.0583 43.7768 12.5493C44.0166 12.617 44.2564 12.7017 44.479 12.7864Z" fill="#48BABA"/>
    <path d="M92.9242 45.4314C92.3561 41.2468 88.3428 39.9077 84.6571 39.4558C84.3299 40.8451 83.9336 42.2176 83.4342 43.5901C83.3478 43.8077 83.2792 44.0254 83.1929 44.243C86.9131 44.5275 87.8952 45.3477 87.9983 46.0674C88.5323 50.1346 83.5373 58.7381 73.0825 63.6424C67.6227 66.2034 64.0061 67.6932 61.612 68.6637C59.2347 69.6515 57.8054 70.2374 56.5652 71.0405C54.8774 72.1285 53.758 73.1997 53 74.2543C53.6544 74.4886 54.3434 74.74 55.0669 74.991C56.1003 75.359 57.1338 75.6605 58.2017 75.9115C58.5117 75.6605 58.8562 75.4095 59.2692 75.1414C60.1132 74.5893 61.3879 74.0701 63.5062 73.1997C65.9348 72.1958 69.6037 70.6893 75.1839 68.0782C87.2748 62.4037 93.7854 51.9092 92.9242 45.4314Z" fill="#48BABA"/>
    <path d="M51.5167 83.1924C51.2249 86.9189 50.385 87.9016 49.6823 88.003C49.4938 88.0199 49.288 88.0368 49.0823 88.0368C44.2483 88.0368 36.3458 82.3286 31.9746 73.1141C29.3861 67.6599 27.8948 64.0518 26.9006 61.6634C25.9063 59.2924 25.3235 57.8525 24.5178 56.6158C23.4207 54.9561 22.3408 53.8551 21.3122 53.1265C21.0894 53.7533 20.8495 54.4138 20.5923 55.1082C20.198 56.2092 19.9066 57.2764 19.6666 58.3267C19.8895 58.6145 20.1295 58.9366 20.3866 59.3431C20.9351 60.1901 21.4665 61.4606 22.3408 63.5776C23.3521 65.9997 24.8778 69.6755 27.5005 75.2485C32.9689 86.7837 42.6884 92.9999 49.0652 92.9999C49.4938 92.9999 49.9223 92.9661 50.3165 92.9154C54.5336 92.3562 55.8878 88.3251 56.3333 84.6662C54.9447 84.3272 53.5566 83.938 52.2191 83.4464C51.9794 83.3619 51.7564 83.2774 51.5167 83.1924Z" fill="#48BABA"/>
    <path d="M48.4426 106.614C48.922 106.614 49.3276 106.217 49.3276 105.743V102.658H49.9608C50.9566 103.807 51.8478 104.926 52.7637 106.158C52.9728 106.454 53.2431 106.614 53.5381 106.614C54.116 106.614 54.4233 106.193 54.4233 105.796C54.4233 105.613 54.3495 105.412 54.2328 105.269C53.446 104.221 52.5916 103.155 51.4667 101.835L54.1898 98.5189C54.3187 98.3649 54.4048 98.1458 54.4048 97.9504C54.4048 97.5478 54.073 97.1155 53.5381 97.1155C53.2308 97.1155 52.9787 97.2517 52.7699 97.53L49.9362 101.036H49.3276V97.9504C49.3276 97.4885 48.9282 97.1155 48.4426 97.1155C47.957 97.1155 47.5759 97.4826 47.5759 97.9504V105.743C47.5697 106.223 47.9632 106.614 48.4426 106.614Z" fill="#48BABA"/>
    <path d="M19.2211 97.1155C18.4282 97.1155 17.6353 97.3464 16.9038 97.7846C16.8485 97.7017 16.7809 97.6247 16.7071 97.5478L16.6826 97.53C16.3568 97.2754 15.9512 97.1155 15.6192 97.1155C15.0906 97.1155 14.7341 97.4293 14.7341 97.8971C14.7341 98.0985 14.8079 98.3768 15.1706 98.584L15.2012 98.6018C15.4286 98.7024 15.5455 98.7498 15.5455 99.4663V108.811C15.5455 109.284 15.945 109.663 16.4306 109.663C16.9285 109.663 17.3156 109.29 17.3156 108.811V106.075C17.9241 106.395 18.625 106.578 19.3073 106.578C20.5181 106.578 21.434 106.175 22.0302 105.388C22.5528 104.701 22.817 103.73 22.817 102.498V100.822C22.817 99.6203 22.5466 98.7321 21.9811 98.1103C21.391 97.453 20.4567 97.1155 19.2211 97.1155ZM21.0467 100.775V102.605C21.0467 104.731 19.9711 104.973 19.1658 104.973C18.9138 104.973 18.0471 104.92 17.3218 104.239V99.3716C17.8873 98.9275 18.5327 98.6728 19.1105 98.6728C20.5058 98.6847 21.0467 99.2709 21.0467 100.775Z" fill="#48BABA"/>
    <path d="M13.1606 105.222C11.8207 103.452 10.3269 101.628 8.72875 99.792L13.1298 94.4034C13.2589 94.2494 13.3265 94.0659 13.3265 93.8527C13.3265 93.4323 12.9884 93 12.423 93C12.0234 93 11.8022 93.2132 11.6731 93.379L7.18605 98.9808H5.63701V93.8527C5.63701 93.3908 5.22523 93 4.73348 93C4.25406 93 3.84827 93.3908 3.84827 93.8527V105.743C3.84827 106.235 4.2479 106.631 4.73348 106.631C5.23139 106.631 5.63701 106.235 5.63701 105.743V100.651H7.22903C8.17554 101.77 10.2963 104.316 11.6239 106.199C11.7469 106.383 11.9619 106.631 12.4045 106.631C13.013 106.631 13.345 106.193 13.345 105.779C13.345 105.589 13.2836 105.4 13.1666 105.228L13.1606 105.222Z" fill="#48BABA"/>
    <path d="M31.1027 112.82C30.6048 112.82 30.2176 113.187 30.2176 113.655V114.205L26.2345 118.54V113.655C26.2345 113.193 25.8351 112.82 25.3495 112.82C24.8516 112.82 24.4458 113.193 24.4458 113.655V121.447C24.4458 121.939 24.8454 122.318 25.3495 122.318C25.8472 122.318 26.2345 121.933 26.2345 121.447V120.897L30.2176 116.58V121.447C30.2176 121.939 30.6048 122.318 31.1027 122.318C31.5944 122.318 31.9879 121.927 31.9879 121.447V113.66C31.9879 113.199 31.5883 112.82 31.1027 112.82Z" fill="#48BABA"/>
    <path d="M12.3001 120.541H11.7222V113.725C11.7222 113.269 11.3166 112.89 10.8371 112.89H5.98729C5.52637 112.89 5.13907 113.258 5.13907 113.69V116.165C5.13907 118.172 5.03462 119.546 4.50606 120.541H3.81142C3.35049 120.541 3 120.884 3 121.34V124.183C3 124.645 3.37497 125 3.84823 125C4.31549 125 4.67814 124.639 4.67814 124.183V122.158H11.4457V124.183C11.4457 124.645 11.8083 125 12.2754 125C12.7548 125 13.1236 124.639 13.1236 124.183V121.34C13.1298 120.902 12.7548 120.541 12.3001 120.541ZM9.94576 114.513V120.547H6.33162C6.70642 119.54 6.88484 118.131 6.88484 116.171V114.513H9.94576Z" fill="#48BABA"/>
    <path d="M20.7026 117.349C21.1574 116.953 21.4094 116.384 21.4094 115.715V115.419C21.4094 113.85 20.26 112.873 18.4038 112.873H15.8712C15.3795 112.873 14.9862 113.258 14.9862 113.725V121.311C14.9862 121.791 15.3733 122.164 15.8712 122.164H18.625C19.6944 122.164 20.5059 121.921 21.0344 121.435C21.5262 120.991 21.772 120.364 21.772 119.564V119.25C21.772 118.451 21.3911 117.776 20.7026 117.349ZM16.7441 116.71V114.46H18.2439C19.4732 114.46 19.6391 114.963 19.6391 115.455V115.751C19.6391 115.988 19.6391 116.71 18.1026 116.71H16.7441ZM20.0141 119.256V119.552C20.0141 120.079 19.9035 120.6 18.582 120.6H16.738V118.244H18.4221C19.1536 118.244 20.0141 118.415 20.0141 119.256Z" fill="#48BABA"/>
    <path d="M63.668 112.802C63.17 112.802 62.7829 113.175 62.7829 113.654V116.532H59.3284V113.654C59.3284 113.175 58.9412 112.802 58.4433 112.802C57.9516 112.802 57.5581 113.187 57.5581 113.654V121.429C57.5581 121.903 57.9577 122.282 58.4433 122.282C58.9412 122.282 59.3284 121.909 59.3284 121.429V118.084H62.7829V121.429C62.7829 121.909 63.17 122.282 63.668 122.282C64.1597 122.282 64.5532 121.897 64.5532 121.429V113.66C64.5532 113.187 64.1597 112.802 63.668 112.802Z" fill="#48BABA"/>
    <path d="M31.7913 97.1155C31.404 97.1155 31.0905 97.3346 30.9737 97.684L28.7363 103.985C27.7528 101.503 26.9784 99.4368 26.3822 97.6781C26.2593 97.3287 25.9519 97.1096 25.5831 97.1096C25.0729 97.1096 24.6796 97.459 24.6796 97.909C24.6796 97.986 24.6979 98.0571 24.7164 98.1163L24.7349 98.1755C25.4294 100.272 26.4743 102.978 27.839 106.229C27.0584 107.668 26.2961 107.97 25.3925 107.97H25.3802C24.8393 107.993 24.5443 108.432 24.5443 108.822C24.5443 109.237 24.8517 109.657 25.4294 109.657C28.1216 109.657 29.2895 107.46 30.1501 105.086L32.6395 98.2406L32.6642 98.1518C32.6825 98.0748 32.6948 98.0038 32.6948 97.9327C32.6948 97.4649 32.3075 97.1155 31.7913 97.1155Z" fill="#48BABA"/>
    <path d="M74.2095 112.82C73.7116 112.82 73.3245 113.187 73.3245 113.655V114.205L69.3414 118.54V113.655C69.3414 113.193 68.9419 112.82 68.4563 112.82C67.9584 112.82 67.5526 113.193 67.5526 113.655V121.447C67.5526 121.939 67.9522 122.318 68.4563 122.318C68.9541 122.318 69.3414 121.933 69.3414 121.447V120.897L73.3245 116.58V121.447C73.3245 121.939 73.7116 122.318 74.2095 122.318C74.7013 122.318 75.0947 121.927 75.0947 121.447V113.66C75.0947 113.199 74.7013 112.82 74.2095 112.82Z" fill="#48BABA"/>
    <path d="M92.1763 98.288C91.5371 97.5064 90.5474 97.1096 89.2504 97.1096C86.9025 97.1096 85.5072 98.5722 85.5072 101.012V102.634C85.5072 103.76 85.796 104.707 86.3493 105.376C86.9946 106.17 87.9719 106.572 89.2383 106.572C90.4553 106.572 91.4448 106.335 92.2685 105.856C92.4653 105.755 92.6065 105.589 92.668 105.394C92.7295 105.204 92.705 105.003 92.6127 104.825C92.5206 104.63 92.3545 104.482 92.1518 104.417C91.9427 104.346 91.7215 104.364 91.5186 104.47L91.5063 104.476C90.8977 104.831 90.2094 104.991 89.2751 104.991C87.9413 104.991 87.2651 104.221 87.2651 102.705V102.48H92.2071C92.6618 102.48 93 102.149 93 101.717V101C92.9938 99.8631 92.7173 98.9512 92.1763 98.288ZM91.2421 100.899V100.953H87.259V100.917C87.259 99.3894 87.9105 98.6492 89.2504 98.6492C90.6274 98.6492 91.2421 99.342 91.2421 100.899Z" fill="#48BABA"/>
    <path d="M72.4085 105.749C72.9002 105.305 73.1461 104.677 73.1461 103.878V103.564C73.1461 102.759 72.765 102.09 72.0765 101.663C72.5314 101.266 72.7835 100.698 72.7835 100.029V99.7328C72.7835 98.1636 71.6339 97.1865 69.7777 97.1865H67.2451C66.7536 97.1865 66.3601 97.5714 66.3601 98.0392V105.625C66.3601 106.104 66.7474 106.477 67.2451 106.477H69.9927C71.0623 106.477 71.8738 106.229 72.4085 105.749ZM68.1119 101.018V98.7676H69.6118C70.841 98.7676 71.007 99.2709 71.007 99.7624V100.058C71.007 100.295 71.007 101.018 69.4703 101.018H68.1119ZM71.388 103.564V103.86C71.388 104.387 71.2774 104.908 69.9559 104.908H68.1119V102.551H69.7962C70.5215 102.551 71.388 102.729 71.388 103.564Z" fill="#48BABA"/>
    <path d="M81.5303 112.802C79.1823 112.802 77.7869 114.264 77.7869 116.704V118.326C77.7869 119.452 78.0759 120.399 78.6291 121.068C79.2744 121.862 80.2518 122.264 81.5179 122.264C82.735 122.264 83.7246 122.028 84.5484 121.548C84.7449 121.447 84.8864 121.281 84.9478 121.086C85.0093 120.896 84.9846 120.695 84.8925 120.517C84.8002 120.322 84.6343 120.174 84.4314 120.109C84.2225 120.038 84.0013 120.056 83.7984 120.162L83.7861 120.168C83.1776 120.523 82.4891 120.683 81.5549 120.683C80.2211 120.683 79.545 119.913 79.545 118.398V118.173H84.4869C84.9417 118.173 85.2798 117.841 85.2798 117.409V116.692C85.2798 115.555 85.0031 114.643 84.4561 113.98C83.8108 113.198 82.8273 112.802 81.5303 112.802ZM83.5217 116.586V116.639H79.5388V116.603C79.5388 115.076 80.1903 114.335 81.5303 114.335C82.9071 114.335 83.5217 115.028 83.5217 116.586Z" fill="#48BABA"/>
    <path d="M82.2555 105.429C82.8334 104.766 83.1407 103.83 83.1407 102.729V100.97C83.1407 99.8571 82.8334 98.9215 82.2555 98.2642C81.5917 97.5062 80.602 97.1213 79.3235 97.1213C78.045 97.1213 77.0555 97.5062 76.3915 98.2642C75.8138 98.9274 75.5065 99.863 75.5065 100.97V102.729C75.5065 103.836 75.8138 104.766 76.3915 105.429C77.0615 106.193 78.045 106.578 79.3235 106.578C80.602 106.578 81.5917 106.193 82.2555 105.429ZM77.2582 102.729V100.97C77.2582 99.4781 77.9344 98.7557 79.3235 98.7557C80.7128 98.7557 81.3888 99.4781 81.3888 100.97V102.729C81.3888 104.221 80.7128 104.944 79.3235 104.944C77.9344 104.944 77.2582 104.215 77.2582 102.729Z" fill="#48BABA"/>
    <path d="M45.8979 113.678C45.8979 113.275 45.5474 112.843 45.0312 112.843C44.7053 112.843 44.4471 112.985 44.2382 113.281L41.423 116.769H40.796V113.702C40.796 113.234 40.415 112.867 39.9293 112.867C39.4131 112.867 39.0443 113.216 39.0443 113.702V116.769H38.4357L35.6205 113.281C35.4731 113.098 35.2394 112.849 34.8338 112.849C34.299 112.849 33.967 113.281 33.967 113.684C33.967 113.903 34.0532 114.11 34.2068 114.264L36.9052 117.568C35.7804 118.895 34.9199 119.961 34.1391 121.009L34.1331 121.021C34.047 121.145 33.9547 121.346 33.9547 121.536C33.9547 121.945 34.2621 122.353 34.8399 122.353C35.1411 122.353 35.3931 122.211 35.6144 121.915C36.5917 120.6 37.4831 119.481 38.4234 118.397H39.0566V121.483C39.0566 121.974 39.4437 122.353 39.9416 122.353C40.421 122.353 40.8083 121.962 40.8083 121.483V118.397H41.4415C42.3266 119.428 43.2301 120.547 44.2627 121.915C44.4533 122.199 44.73 122.359 45.0435 122.359C45.615 122.359 45.91 121.945 45.91 121.542C45.91 121.358 45.8241 121.163 45.7688 121.062L45.7565 121.039L45.7441 121.021C44.8283 119.795 43.8326 118.611 42.9597 117.58L45.6827 114.264C45.7503 114.146 45.8979 113.939 45.8979 113.678Z" fill="#48BABA"/>
    <path d="M35.3256 106.211C36.3029 104.896 37.1941 103.777 38.1347 102.693H38.7677V105.779C38.7677 106.27 39.155 106.649 39.6529 106.649C40.1323 106.649 40.5196 106.258 40.5196 105.779V102.693H41.1526C42.0378 103.724 42.9413 104.843 43.974 106.211C44.1645 106.495 44.4411 106.655 44.7546 106.655C45.3263 106.655 45.6213 106.24 45.6213 105.838C45.6213 105.654 45.5353 105.459 45.4799 105.358L45.4677 105.334L45.4554 105.317C44.5395 104.091 43.5437 102.907 42.6708 101.876L45.3939 98.5602C45.4799 98.4595 45.6275 98.2523 45.6275 97.9917C45.6275 97.5891 45.2771 97.1568 44.7607 97.1568C44.4351 97.1568 44.1769 97.2989 43.9678 97.595L41.1526 101.083H40.5258V98.0036C40.5258 97.5358 40.1446 97.1686 39.659 97.1686C39.1426 97.1686 38.7738 97.518 38.7738 98.0036V101.071H38.1653L35.3503 97.5832C35.2088 97.3996 34.9691 97.1509 34.5635 97.1509C34.0286 97.1509 33.6968 97.5832 33.6968 97.9858C33.6968 98.2049 33.7827 98.4122 33.9365 98.5661L36.6348 101.87C35.51 103.197 34.6495 104.263 33.8689 105.311L33.8627 105.323C33.7766 105.447 33.6844 105.648 33.6844 105.838C33.6844 106.246 33.9918 106.655 34.5695 106.655C34.8523 106.649 35.1044 106.507 35.3256 106.211Z" fill="#48BABA"/>
    <path d="M51.2822 112.802C48.9342 112.802 47.5389 114.264 47.5389 116.704V118.326C47.5389 119.452 47.8278 120.399 48.381 121.068C49.0263 121.862 50.0037 122.264 51.2698 122.264C52.4869 122.264 53.4765 122.028 54.3003 121.548C54.497 121.447 54.6383 121.281 54.6997 121.086C54.7612 120.896 54.7367 120.695 54.6444 120.517C54.5523 120.322 54.3862 120.174 54.1835 120.109C53.9744 120.038 53.7532 120.056 53.5503 120.162L53.538 120.168C52.9295 120.523 52.2412 120.683 51.3068 120.683C49.973 120.683 49.2969 119.913 49.2969 118.398V118.173H54.2388C54.6936 118.173 55.0317 117.841 55.0317 117.409V116.692C55.0317 115.555 54.755 114.643 54.208 113.98C53.5627 113.198 52.5792 112.802 51.2822 112.802ZM49.2907 116.639V116.603C49.2907 115.076 49.9422 114.335 51.2822 114.335C52.6591 114.335 53.2738 115.028 53.2738 116.586V116.639H49.2907Z" fill="#48BABA"/>
    <path d="M64.6638 95.2798C64.3073 95.0429 63.8217 95.1199 63.5759 95.4634L62.0083 97.6011C61.4306 97.2754 60.7237 97.1096 59.8878 97.1096C58.6093 97.1096 57.6196 97.4945 56.9558 98.2524C56.3781 98.9156 56.0707 99.8512 56.0707 100.959V102.717C56.0707 103.588 56.2613 104.346 56.6239 104.956L55.0626 107.087C54.8167 107.425 54.8967 107.899 55.2531 108.135C55.3884 108.23 55.5482 108.272 55.7019 108.272C55.9478 108.272 56.1875 108.159 56.3411 107.952L57.7304 106.051C58.3142 106.389 59.0395 106.566 59.8878 106.566C61.1663 106.566 62.1559 106.181 62.8198 105.417C63.3976 104.754 63.705 103.819 63.705 102.717V100.959C63.705 100.07 63.5082 99.2887 63.1333 98.6788L64.8544 96.3279C65.1062 95.9904 65.0203 95.5226 64.6638 95.2798ZM61.953 100.964V102.723C61.953 104.215 61.2769 104.938 59.8878 104.938C59.4207 104.938 59.0395 104.855 58.7322 104.695L61.9039 100.36C61.9347 100.544 61.953 100.745 61.953 100.964ZM57.8225 102.729V100.97C57.8225 99.4782 58.4986 98.7557 59.8878 98.7557C60.3304 98.7557 60.7053 98.8327 61.0065 98.9808L57.8593 103.274C57.8348 103.102 57.8225 102.925 57.8225 102.729Z" fill="#48BABA"/>
</svg>
