<svg width="512" height="360" viewBox="0 0 512 360" fill="none" xmlns="http://www.w3.org/2000/svg">
    <g clip-path="url(#clip0)">
        <path d="M261.489 359.237C276.888 359.237 289.372 346.782 289.372 331.417C289.372 316.053 276.888 303.598 261.489 303.598C246.09 303.598 233.606 316.053 233.606 331.417C233.606 346.782 246.09 359.237 261.489 359.237Z" fill="#48BABA"/>
        <path d="M428.063 357.674C443.662 353 460.246 348.126 472.617 337.014C483.671 327.085 491.135 311.923 486.555 297.032C481.985 282.171 468.295 272.262 454.161 267.334C446.145 264.539 437.758 262.988 429.375 261.77C420.262 260.446 411.108 259.361 401.959 258.316C364.912 254.089 327.726 251.506 290.4 250.569C271.983 250.106 253.569 250.117 235.148 250.384C218.698 250.622 201.372 250.616 186.111 243.64C174.244 238.215 163.473 228.346 160.166 215.377C156.349 200.406 163.39 185.16 173.489 174.317C178.813 168.602 185.035 163.792 191.453 159.369C198.416 154.571 205.622 150.112 212.984 145.95C227.484 137.757 242.643 130.784 258.304 125.104C266.03 122.302 273.87 119.883 281.779 117.653C288.457 115.769 295.156 113.883 301.61 111.316C314.086 106.355 325.953 97.9506 329.126 84.1729C332.132 71.1149 327.063 56.9394 318.175 47.2388C307.893 36.016 292.39 31.0963 277.527 30.3003C260.841 29.4066 244.539 33.5733 228.855 38.8614C212.127 44.5015 195.76 50.9867 178.679 55.5551C161.741 60.0809 144.475 63.2832 127.038 65.1327C118.502 66.0396 109.708 67.0636 101.121 66.3693C93.9245 65.7875 86.7647 63.6758 81.461 58.58C76.9134 54.2107 74.2043 48.2057 75.1357 41.8686C75.3048 40.7176 77.0573 41.207 76.8892 42.351C75.7554 50.065 81.011 57.1732 87.4872 60.8143C94.972 65.0226 104.08 65.0283 112.413 64.547C130.482 63.4582 148.428 60.8698 166.066 56.8085C183.398 52.859 200.11 47.213 216.803 41.1817C232.658 35.4535 248.867 29.8628 265.805 28.6221C280.501 27.5456 295.962 29.6818 308.765 37.3449C320.018 44.0797 328.292 55.3111 330.929 68.1994C333.505 80.7937 329.937 93.47 320.382 102.259C310.488 111.358 296.923 115.249 284.281 118.832C268.247 123.376 252.557 128.689 237.37 135.586C221.976 142.558 207.212 150.839 193.242 160.338C179.758 169.532 166.45 181.101 162.185 197.503C160.199 205.143 160.565 213.246 163.889 220.463C166.845 226.879 171.713 232.277 177.383 236.44C190.913 246.373 207.965 248.412 224.308 248.615C242.663 248.843 261.019 248.225 279.38 248.526C316.799 249.139 354.142 251.411 391.408 255.343C400.745 256.329 410.072 257.419 419.386 258.613C427.764 259.687 436.17 260.755 444.407 262.662C459.053 266.054 473.304 272.575 482.408 284.965C486.448 290.335 488.951 296.699 489.649 303.378C490.287 310.347 488.576 317.33 485.418 323.53C478.428 337.252 465.334 345.981 451.429 351.715C443.982 354.787 436.256 357.113 428.546 359.424C427.423 359.76 426.943 358.01 428.063 357.674L428.063 357.674Z" fill="#B4EDEA"/>
        <path d="M76.3101 56.5466C84.3445 56.5466 90.8577 50.0482 90.8577 42.032C90.8577 34.0158 84.3445 27.5173 76.3101 27.5173C68.2756 27.5173 61.7625 34.0158 61.7625 42.032C61.7625 50.0482 68.2756 56.5466 76.3101 56.5466Z" fill="#B4EDEA"/>
        <path d="M177.234 84.0639C185.268 84.0639 191.782 77.5655 191.782 69.5493C191.782 61.5331 185.268 55.0347 177.234 55.0347C169.2 55.0347 162.686 61.5331 162.686 69.5493C162.686 77.5655 169.2 84.0639 177.234 84.0639Z" fill="#B4EDEA"/>
        <path d="M262.701 29.0293C270.736 29.0293 277.249 22.5308 277.249 14.5146C277.249 6.49842 270.736 0 262.701 0C254.667 0 248.154 6.49842 248.154 14.5146C248.154 22.5308 254.667 29.0293 262.701 29.0293Z" fill="#B4EDEA"/>
        <path d="M316.042 90.7164C324.077 90.7164 330.59 84.218 330.59 76.2018C330.59 68.1856 324.077 61.6871 316.042 61.6871C308.008 61.6871 301.495 68.1856 301.495 76.2018C301.495 84.218 308.008 90.7164 316.042 90.7164Z" fill="#B4EDEA"/>
        <path d="M243.911 162.08C251.945 162.08 258.458 155.582 258.458 147.565C258.458 139.549 251.945 133.051 243.911 133.051C235.876 133.051 229.363 139.549 229.363 147.565C229.363 155.582 235.876 162.08 243.911 162.08Z" fill="#B4EDEA"/>
        <path d="M152.382 196.552C160.416 196.552 166.93 190.054 166.93 182.038C166.93 174.021 160.416 167.523 152.382 167.523C144.348 167.523 137.834 174.021 137.834 182.038C137.834 190.054 144.348 196.552 152.382 196.552Z" fill="#B4EDEA"/>
        <path d="M249.366 250.377C257.4 250.377 263.914 243.879 263.914 235.863C263.914 227.847 257.4 221.348 249.366 221.348C241.332 221.348 234.818 227.847 234.818 235.863C234.818 243.879 241.332 250.377 249.366 250.377Z" fill="#B4EDEA"/>
        <path d="M353.624 280.616C361.658 280.616 368.171 274.118 368.171 266.102C368.171 258.085 361.658 251.587 353.624 251.587C345.589 251.587 339.076 258.085 339.076 266.102C339.076 274.118 345.589 280.616 353.624 280.616Z" fill="#B4EDEA"/>
        <path d="M475.46 273.964C483.494 273.964 490.007 267.465 490.007 259.449C490.007 251.433 483.494 244.934 475.46 244.934C467.425 244.934 460.912 251.433 460.912 259.449C460.912 267.465 467.425 273.964 475.46 273.964Z" fill="#B4EDEA"/>
        <path d="M258.502 41.1269C214.924 41.434 179.244 76.7662 178.625 120.241C178.619 120.643 178.617 123.465 178.617 127.157C178.617 132.569 180.772 137.76 184.608 141.587C188.444 145.414 193.646 147.565 199.071 147.565H199.071C201.76 147.565 204.423 147.036 206.907 146.008C209.391 144.98 211.647 143.474 213.548 141.576C215.448 139.678 216.955 137.425 217.982 134.945C219.01 132.466 219.537 129.808 219.535 127.125C219.533 124.614 219.532 122.876 219.532 122.77C219.53 116.051 221.282 109.447 224.614 103.608C227.947 97.7694 232.745 92.8968 238.538 89.4695C244.33 86.0423 250.917 84.1785 257.65 84.0615C264.383 83.9445 271.031 85.5783 276.94 88.8022C282.848 92.0262 287.814 96.7291 291.348 102.449C294.882 108.168 296.863 114.707 297.096 121.422C297.329 128.137 295.806 134.797 292.677 140.746C289.548 146.696 284.921 151.73 279.25 155.355L279.257 155.363C279.257 155.363 250.145 174.063 241.269 199.715L241.276 199.716C239.716 204.972 238.925 210.424 238.929 215.905C238.929 218.158 239.061 237.871 239.318 253.872C239.408 259.392 241.669 264.656 245.614 268.528C249.559 272.4 254.872 274.57 260.406 274.568H260.406C263.187 274.568 265.94 274.02 268.507 272.954C271.075 271.888 273.405 270.326 275.365 268.359C277.326 266.391 278.876 264.056 279.929 261.487C280.981 258.919 281.514 256.169 281.496 253.395C281.407 238.742 281.359 221.679 281.359 220.441C281.359 204.69 296.589 188.996 309.099 178.761C323.504 166.976 333.871 150.916 338.035 132.799C338.956 129.069 339.464 125.249 339.549 121.409C339.549 110.817 337.449 100.33 333.369 90.5515C329.288 80.7733 323.309 71.8972 315.775 64.4347C308.242 56.9723 299.303 51.0709 289.473 47.0706C279.643 43.0704 269.117 41.0503 258.502 41.1269Z" fill="#48BABA"/>
        <path d="M511.278 360H0.721721C0.530668 359.999 0.347633 359.923 0.212733 359.788C0.0778333 359.653 0.0020752 359.471 0.0020752 359.28C0.0020752 359.089 0.0778333 358.906 0.212733 358.771C0.347633 358.636 0.530668 358.56 0.721721 358.56H511.278C511.47 358.56 511.653 358.636 511.789 358.771C511.924 358.906 512 359.089 512 359.28C512 359.471 511.924 359.654 511.789 359.789C511.653 359.924 511.47 360 511.278 360Z" fill="#3F3D56"/>
        <path d="M380.934 165.101C390.977 165.101 399.119 156.978 399.119 146.958C399.119 136.938 390.977 128.815 380.934 128.815C370.891 128.815 362.75 136.938 362.75 146.958C362.75 156.978 370.891 165.101 380.934 165.101Z" fill="#2F2E41"/>
        <path d="M347.331 352.058H339.901L336.365 323.459H347.333L347.331 352.058Z" fill="#A0616A"/>
        <path d="M334.592 349.939H348.924V358.942H325.568C325.568 357.76 325.802 356.589 326.255 355.497C326.709 354.404 327.373 353.412 328.211 352.576C329.049 351.74 330.044 351.077 331.139 350.624C332.234 350.172 333.407 349.939 334.592 349.939Z" fill="#2F2E41"/>
        <path d="M404.916 352.058H397.485L393.949 323.459H404.917L404.916 352.058Z" fill="#A0616A"/>
        <path d="M392.176 349.939H406.508V358.942H383.153C383.153 357.76 383.386 356.589 383.839 355.497C384.293 354.404 384.958 353.412 385.796 352.576C386.633 351.74 387.628 351.077 388.723 350.624C389.818 350.172 390.991 349.939 392.176 349.939Z" fill="#2F2E41"/>
        <path d="M378.171 165.207C386.393 165.207 393.059 158.557 393.059 150.353C393.059 142.15 386.393 135.5 378.171 135.5C369.949 135.5 363.283 142.15 363.283 150.353C363.283 158.557 369.949 165.207 378.171 165.207Z" fill="#A0616A"/>
        <path d="M387.044 213.127L393.706 197.856C395.323 194.274 395.787 190.279 395.033 186.422C394.278 182.566 392.342 179.038 389.493 176.326C388.908 175.749 388.286 175.209 387.632 174.711C384.345 172.146 380.294 170.748 376.121 170.738C373.315 170.749 370.545 171.364 367.999 172.54C367.781 172.637 367.569 172.74 367.35 172.843C366.932 173.042 366.52 173.26 366.12 173.484C363.51 174.979 361.29 177.064 359.636 179.573C357.983 182.082 356.944 184.943 356.603 187.926L353.663 212.504C352.924 214.433 326.544 284.103 335.77 337.293C335.868 337.861 336.146 338.383 336.562 338.782C336.979 339.182 337.513 339.438 338.085 339.513L347.438 340.783C348.121 340.876 348.814 340.708 349.378 340.311C349.941 339.915 350.333 339.321 350.475 338.648L366.168 264.013C366.266 263.549 366.517 263.131 366.881 262.826C367.244 262.522 367.7 262.347 368.175 262.331C368.649 262.315 369.116 262.458 369.499 262.738C369.883 263.018 370.161 263.417 370.29 263.873L392.463 342.361C392.621 342.932 392.962 343.434 393.434 343.793C393.906 344.151 394.483 344.345 395.076 344.345C395.252 344.344 395.429 344.328 395.603 344.297L407.029 342.101C407.693 341.977 408.287 341.61 408.694 341.072C409.101 340.534 409.292 339.864 409.229 339.192C407.55 320.511 398.628 226.934 387.044 213.127Z" fill="#2F2E41"/>
        <path d="M320.314 162.715C320.21 163.598 320.302 164.493 320.583 165.337C320.864 166.181 321.327 166.953 321.939 167.599C322.551 168.245 323.298 168.749 324.127 169.076C324.955 169.403 325.846 169.544 326.735 169.491L335.057 189.444L341.352 180.133L332.484 162.613C332.295 161.128 331.566 159.764 330.436 158.779C329.306 157.795 327.854 157.258 326.354 157.27C324.853 157.283 323.41 157.844 322.297 158.848C321.183 159.851 320.478 161.227 320.314 162.715L320.314 162.715Z" fill="#A0616A"/>
        <path d="M377.345 233.218C378.23 233.112 379.081 232.814 379.838 232.345C380.595 231.876 381.24 231.247 381.727 230.503C382.214 229.758 382.531 228.916 382.657 228.036C382.782 227.155 382.713 226.259 382.453 225.408L399.962 212.684L389.421 208.746L374.41 221.432C373.007 221.962 371.847 222.987 371.151 224.313C370.454 225.638 370.27 227.173 370.631 228.626C370.993 230.078 371.876 231.348 373.114 232.194C374.351 233.041 375.857 233.405 377.345 233.218Z" fill="#A0616A"/>
        <path d="M348.803 202.746C348.131 202.745 347.462 202.679 346.803 202.549C345.211 202.247 343.717 201.558 342.454 200.544C341.191 199.53 340.198 198.221 339.561 196.734L327.902 182.55C327.656 182.25 327.477 181.901 327.376 181.526C327.276 181.151 327.257 180.76 327.321 180.377C327.385 179.994 327.53 179.63 327.746 179.308C327.962 178.986 328.245 178.713 328.576 178.509L336.871 173.386C337.177 173.197 337.518 173.07 337.873 173.013C338.229 172.956 338.592 172.97 338.943 173.054C339.293 173.138 339.623 173.29 339.914 173.502C340.205 173.713 340.451 173.98 340.638 174.288L348.855 187.795L364.592 176.191C365.845 175.536 367.292 175.352 368.67 175.673C370.047 175.995 371.263 176.8 372.095 177.942C372.927 179.083 373.319 180.486 373.2 181.892C373.081 183.299 372.459 184.616 371.447 185.602L355.741 199.897C353.895 201.723 351.401 202.747 348.803 202.746Z" fill="#2F2E41"/>
        <path d="M391.324 224.078C391.303 224.078 391.281 224.078 391.26 224.077C390.878 224.068 390.501 223.979 390.156 223.815C389.81 223.651 389.503 223.417 389.253 223.127L381.879 214.544C381.628 214.251 381.441 213.909 381.333 213.54C381.224 213.17 381.195 212.782 381.248 212.401C381.3 212.019 381.434 211.653 381.638 211.327C381.843 211.001 382.115 210.722 382.437 210.508L396.246 201.323L383.736 186.317C383.008 185.107 382.741 183.675 382.984 182.285C383.226 180.894 383.962 179.637 385.057 178.743C386.152 177.849 387.532 177.378 388.947 177.416C390.361 177.454 391.714 177.998 392.76 178.949L407.964 193.774C409.161 194.865 410.074 196.229 410.626 197.749C411.178 199.27 411.352 200.901 411.133 202.503C410.914 204.106 410.308 205.631 409.368 206.948C408.428 208.266 407.182 209.336 405.736 210.067L393.309 223.223C393.054 223.493 392.746 223.708 392.405 223.855C392.064 224.002 391.696 224.078 391.324 224.078Z" fill="#2F2E41"/>
        <path d="M374.385 192.448C374.267 192.448 374.149 192.441 374.031 192.426C373.518 192.364 373.033 192.156 372.634 191.827C372.236 191.498 371.94 191.062 371.782 190.57L366.241 173.619C366.102 173.19 366.123 172.726 366.301 172.312C366.478 171.898 366.8 171.562 367.207 171.366L367.387 171.281C367.55 171.204 367.711 171.127 367.876 171.054C370.46 169.858 373.273 169.235 376.122 169.226C379.819 169.233 383.435 170.317 386.524 172.345C386.938 172.62 387.227 173.046 387.33 173.532C387.432 174.017 387.339 174.524 387.07 174.942L376.675 191.191C376.431 191.577 376.093 191.894 375.693 192.114C375.292 192.334 374.842 192.449 374.385 192.448Z" fill="#E6E6E6"/>
        <path d="M395.271 138.858C398.558 138.858 401.222 136.2 401.222 132.921C401.222 129.643 398.558 126.984 395.271 126.984C391.985 126.984 389.321 129.643 389.321 132.921C389.321 136.2 391.985 138.858 395.271 138.858Z" fill="#2F2E41"/>
        <path d="M374.873 126.396C370.693 126.396 366.685 128.052 363.729 131.001C360.773 133.95 359.113 137.95 359.113 142.12V148.772H367.314L371.236 142.12L372.413 148.772H397.3L390.633 142.12C390.633 137.95 388.972 133.95 386.017 131.001C383.061 128.052 379.053 126.396 374.873 126.396Z" fill="#2F2E41"/>
        <path d="M398.329 128.855C398.988 126.802 400.35 125.046 402.177 123.896C404.004 122.746 406.179 122.276 408.319 122.568C412.111 123.2 415.11 126.242 416.896 129.638C418.682 133.035 419.507 136.837 420.708 140.481C421.909 144.125 423.612 147.789 426.644 150.147C429.676 152.506 434.329 153.146 437.306 150.72C436.966 153.248 435.838 155.607 434.081 157.461C432.324 159.315 430.027 160.571 427.515 161.051C425.003 161.531 422.404 161.211 420.084 160.136C417.765 159.062 415.843 157.287 414.59 155.063C413.018 152.274 412.613 149.005 412.147 145.839C411.681 142.674 411.076 139.398 409.2 136.804C407.324 134.209 403.812 132.514 400.833 133.696L398.329 128.855Z" fill="#2F2E41"/>
        <path d="M204.846 137.912C199.422 137.912 194.219 135.761 190.383 131.934C186.548 128.106 184.393 122.916 184.392 117.503C184.392 113.812 184.395 110.99 184.4 110.588C184.573 97.9444 187.764 85.5238 193.71 74.3568C183.941 87.6999 178.57 103.742 178.339 120.265C178.333 120.666 178.331 123.488 178.331 127.18C178.331 132.592 180.486 137.783 184.322 141.61C188.158 145.437 193.36 147.588 198.785 147.589C203.243 147.587 207.578 146.134 211.132 143.449C214.686 140.765 217.265 136.997 218.477 132.717C214.732 136.068 209.877 137.918 204.846 137.912Z" fill="#3F3D56"/>
        <path d="M259.889 84.13C266.16 84.4288 272.265 86.2418 277.679 89.4132C283.094 92.5847 287.656 97.0199 290.974 102.338C294.292 107.656 296.267 113.698 296.729 119.945C297.191 126.193 296.126 132.458 293.626 138.205C297.242 133.968 299.9 129.003 301.418 123.649C302.936 118.295 303.279 112.677 302.424 107.178C301.569 101.68 299.535 96.4296 296.462 91.7861C293.389 87.1427 289.349 83.215 284.616 80.2707C279.884 77.3265 274.571 75.435 269.039 74.7252C263.508 74.0154 257.888 74.504 252.563 76.1577C247.237 77.8113 242.332 80.5912 238.182 84.3077C234.031 88.0242 230.732 92.59 228.51 97.6938C232.35 93.1866 237.177 89.6196 242.617 87.2679C248.058 84.9162 253.967 83.8426 259.889 84.13Z" fill="#3F3D56"/>
        <path d="M266.181 264.915C260.647 264.916 255.335 262.747 251.39 258.875C247.445 255.003 245.183 249.739 245.093 244.218C244.837 228.218 244.704 208.505 244.704 206.252C244.7 200.771 245.491 195.318 247.052 190.063L247.044 190.061C247.966 187.424 249.079 184.857 250.375 182.38C246.397 187.669 243.232 193.519 240.983 199.738L240.99 199.74C239.43 204.995 238.639 210.447 238.642 215.928C238.642 218.181 238.775 237.895 239.032 253.895C239.122 259.415 241.383 264.68 245.328 268.552C249.273 272.423 254.586 274.593 260.12 274.592C264.683 274.591 269.122 273.114 272.773 270.383C276.423 267.651 279.087 263.813 280.366 259.443C276.489 262.97 271.429 264.923 266.181 264.915Z" fill="#3F3D56"/>
        <path d="M76.7027 352.333L84.1335 352.333L87.6692 323.734L76.7009 323.735L76.7027 352.333Z" fill="#FFB8B8"/>
        <path d="M98.4658 359.217L75.1104 359.218L75.11 350.215L89.4417 350.215C91.835 350.214 94.1302 351.163 95.8226 352.851C97.5149 354.54 98.4657 356.83 98.4658 359.217L98.4658 359.217Z" fill="#2F2E41"/>
        <path d="M50.0321 352.333L57.4629 352.333L60.9986 323.734L50.0303 323.735L50.0321 352.333Z" fill="#FFB8B8"/>
        <path d="M71.7952 359.217L48.4398 359.218L48.4394 350.215L62.7711 350.215C65.1643 350.214 67.4596 351.163 69.1519 352.851C70.8442 354.54 71.7951 356.83 71.7952 359.217L71.7952 359.217Z" fill="#2F2E41"/>
        <path d="M56.5261 343.538L49.2675 343.157C48.8932 343.137 48.5265 343.044 48.1887 342.882C47.851 342.72 47.5488 342.493 47.2996 342.213C47.0505 341.934 46.8595 341.608 46.7375 341.254C46.6156 340.901 46.5652 340.526 46.5892 340.153L55.2648 244.317L95.2168 255.073L99.066 254.025L87.0289 338.866C86.9263 339.504 86.6087 340.089 86.1284 340.522C85.6481 340.956 85.0339 341.213 84.3872 341.252L76.5624 341.616C76.1712 341.637 75.7797 341.578 75.4127 341.441C75.0456 341.304 74.7111 341.092 74.4302 340.82C74.1492 340.547 73.928 340.219 73.7805 339.857C73.633 339.495 73.5624 339.106 73.5732 338.715L74.991 287.795C74.9976 287.56 74.9156 287.33 74.7612 287.152C74.6067 286.974 74.391 286.86 74.1565 286.833C73.922 286.806 73.6857 286.867 73.4943 287.005C73.3028 287.143 73.17 287.347 73.1221 287.578L59.4492 341.289C59.3202 341.926 58.9736 342.499 58.4685 342.91C57.9635 343.321 57.3313 343.544 56.6797 343.542C56.6288 343.542 56.5776 343.541 56.5261 343.538Z" fill="#2F2E41"/>
        <path d="M78.0368 165.902C86.2591 165.902 92.9245 159.252 92.9245 151.048C92.9245 142.845 86.2591 136.194 78.0368 136.194C69.8146 136.194 63.1492 142.845 63.1492 151.048C63.1492 159.252 69.8146 165.902 78.0368 165.902Z" fill="#FFB8B8"/>
        <path d="M53.25 194.688L54.8869 229.927L55.4787 242.747C55.5023 243.305 55.6922 243.844 56.0241 244.294C56.3561 244.743 56.815 245.084 57.3422 245.272L95.7333 259.148C96.0434 259.263 96.372 259.321 96.7028 259.318C97.081 259.32 97.4556 259.245 97.8044 259.099C98.1531 258.954 98.4689 258.739 98.7327 258.469C98.9966 258.199 99.2031 257.878 99.3401 257.526C99.477 257.175 99.5415 256.799 99.5297 256.422L97.9558 193.061C97.8524 187.863 95.9345 182.863 92.5327 178.925C89.1308 174.986 84.4583 172.355 79.3205 171.485C78.9492 171.428 78.5714 171.372 78.1936 171.321C75.0077 170.927 71.7739 171.233 68.7197 172.22C65.6654 173.206 62.8649 174.849 60.5152 177.031C58.0821 179.264 56.1703 182.003 54.9149 185.054C53.6595 188.105 53.0911 191.394 53.25 194.688L53.25 194.688Z" fill="#CCCCCC"/>
        <path d="M114.073 252.117C113.165 251.835 112.335 251.346 111.65 250.689C110.965 250.031 110.444 249.222 110.128 248.328C109.812 247.433 109.709 246.477 109.829 245.536C109.949 244.595 110.288 243.695 110.819 242.908L97.7997 225.636L109.034 224.942L119.675 241.45C120.814 242.329 121.607 243.58 121.914 244.983C122.221 246.387 122.023 247.854 121.355 249.126C120.686 250.399 119.59 251.396 118.259 251.943C116.927 252.489 115.445 252.551 114.073 252.117H114.073Z" fill="#FFB8B8"/>
        <path d="M104.919 239.782C104.574 239.643 104.26 239.436 103.996 239.175C103.732 238.913 103.522 238.602 103.379 238.259L83.7648 191.634C83.3799 190.721 83.1792 189.742 83.1739 188.752C83.1687 187.761 83.3591 186.78 83.7343 185.863C84.1095 184.946 84.6621 184.112 85.3605 183.408C86.059 182.704 86.8895 182.145 87.8048 181.762C88.72 181.378 89.702 181.179 90.6946 181.174C91.6872 181.17 92.6709 181.361 93.5895 181.736C94.5082 182.111 95.3438 182.663 96.0485 183.36C96.7533 184.057 97.3134 184.887 97.6968 185.8L117.311 232.425C117.601 233.117 117.604 233.895 117.32 234.588C117.036 235.282 116.487 235.835 115.795 236.126L107.087 239.772C106.745 239.917 106.376 239.992 106.004 239.994C105.632 239.996 105.263 239.924 104.919 239.782L104.919 239.782Z" fill="#CCCCCC"/>
        <path d="M73.2503 238.138L92.089 202.148C92.4523 201.456 93.0759 200.936 93.823 200.702C94.5702 200.468 95.3798 200.539 96.0744 200.9L123.419 215.149C124.112 215.511 124.634 216.134 124.868 216.879C125.103 217.624 125.031 218.432 124.669 219.125L105.831 255.115C105.467 255.807 104.844 256.327 104.097 256.561C103.35 256.795 102.54 256.724 101.845 256.363L74.501 242.114C73.8073 241.752 73.2861 241.129 73.0516 240.384C72.8171 239.639 72.8886 238.831 73.2503 238.138Z" fill="#3F3D56"/>
        <path d="M85.8843 221.695C85.5494 220.807 85.0112 220.01 84.3126 219.366C83.6139 218.723 82.7742 218.252 81.8605 217.989C80.9468 217.727 79.9843 217.682 79.0499 217.857C78.1155 218.032 77.235 218.423 76.4787 218.997L58.4285 207.051L58.3978 218.281L75.5433 227.904C76.4897 228.987 77.788 229.703 79.2105 229.926C80.6329 230.149 82.0887 229.865 83.3224 229.124C84.5561 228.383 85.489 227.233 85.9575 225.874C86.4259 224.516 86.4 223.036 85.8843 221.695Z" fill="#FFB8B8"/>
        <path d="M63.0629 224.221L48.3112 212.562C46.7153 212.027 45.2733 211.114 44.109 209.901C42.9447 208.688 42.0928 207.211 41.6264 205.597C41.1601 203.983 41.0932 202.281 41.4315 200.635C41.7699 198.99 42.5034 197.451 43.569 196.151L56.9632 178.637C57.894 177.502 59.203 176.739 60.651 176.488C62.099 176.237 63.5892 176.514 64.8493 177.269C66.1093 178.024 67.055 179.206 67.5135 180.599C67.972 181.992 67.9126 183.504 67.3463 184.857L56.7485 202.153L72.3229 209.524C72.685 209.695 73.0066 209.941 73.2664 210.246C73.5262 210.55 73.7182 210.906 73.8298 211.291C73.9414 211.675 73.9701 212.078 73.9139 212.474C73.8577 212.87 73.7179 213.25 73.5037 213.588L67.2169 223.514C67.0044 223.849 66.7237 224.136 66.393 224.356C66.0624 224.576 65.6891 224.724 65.2974 224.791C65.2819 224.794 65.2662 224.796 65.2506 224.799C64.8657 224.857 64.473 224.835 64.0967 224.736C63.7204 224.636 63.3686 224.461 63.0629 224.221Z" fill="#CCCCCC"/>
        <path d="M66.7874 160.995C66.7235 160.808 66.7033 160.61 66.7282 160.414C66.7531 160.219 66.8225 160.031 66.9311 159.867C67.0397 159.702 67.1846 159.565 67.3548 159.465C67.5249 159.365 67.7157 159.305 67.9126 159.29C68.3158 159.312 68.7105 159.415 69.0726 159.593C69.4347 159.771 69.7569 160.021 70.0197 160.327C70.5585 160.947 71.1857 161.484 71.8813 161.922C72.6014 162.284 73.5782 162.232 73.9887 161.542C74.3743 160.893 74.1101 160.025 73.8767 159.272C73.2828 157.355 72.9505 155.368 72.8887 153.363C72.8215 151.125 73.138 148.79 74.3797 147.044C75.9823 144.792 78.8479 143.936 81.5598 143.999C84.2717 144.061 86.9397 144.896 89.6259 145.424C90.5533 145.606 91.6433 145.699 92.2636 144.982C92.9231 144.22 92.6809 142.986 92.4004 141.956C91.6724 139.284 90.9001 136.522 89.2088 134.365C87.3801 132.123 84.7678 130.655 81.8982 130.258C79.1431 129.918 76.3464 130.234 73.738 131.182C69.4882 132.519 65.7486 135.118 63.0195 138.632C60.2062 142.37 58.9905 147.067 59.6383 151.696C60.2712 155.728 62.4126 159.37 65.6306 161.889L66.7874 160.995Z" fill="#2F2E41"/>
        <path d="M255.346 352.451C251.385 350.73 247.879 348.114 245.105 344.81C242.331 341.505 240.365 337.602 239.361 333.41C238.358 329.217 238.345 324.849 239.323 320.651C240.301 316.452 242.244 312.538 244.998 309.217C241.805 311.543 239.144 314.52 237.192 317.951C235.241 321.382 234.042 325.187 233.677 329.115C233.312 333.043 233.789 337.004 235.075 340.734C236.362 344.464 238.428 347.879 241.139 350.751C243.849 353.624 247.14 355.888 250.794 357.394C254.449 358.9 258.382 359.614 262.334 359.487C266.286 359.361 270.166 358.397 273.716 356.66C277.266 354.923 280.405 352.452 282.925 349.413C278.994 352.279 274.38 354.067 269.541 354.601C264.702 355.134 259.808 354.393 255.346 352.451Z" fill="#3F3D56"/>
    </g>
    <defs>
        <clipPath id="clip0">
            <rect width="512" height="360" fill="white"/>
        </clipPath>
    </defs>
</svg>
