<svg width="512" height="292" viewBox="0 0 512 292" fill="none" xmlns="http://www.w3.org/2000/svg">
    <g clip-path="url(#clip0)">
        <path opacity="0.1" d="M307.791 210.462C317.682 209.898 329.954 203.19 339.496 200.223C350.789 196.721 362.127 193.351 373.51 190.114C413.136 178.84 453.187 169.234 493.664 161.295C497.441 160.553 501.225 159.828 505.014 159.121C499.111 146.368 489.966 135.386 478.492 127.272C478.786 124.481 478.935 121.676 478.94 118.868C478.94 74.5036 443.48 38.5384 399.723 38.5384C386.251 38.5241 373.006 42.0008 361.278 48.6294C330.307 28.2594 289.884 15.9309 245.657 15.9309C182.812 15.9309 127.642 40.8251 96.3806 78.3118L243.303 103.13L333.413 118.345C230.687 121.41 127.642 124.458 25.2108 117.262C11.6894 130.343 3.13127 147.714 0.999046 166.405C-1.13317 185.097 3.29287 203.948 13.5208 219.738C13.5208 221.345 13.5879 222.938 13.7087 224.518C16.318 225.265 18.8377 225.99 21.0978 226.464C57.3824 234.128 93.8997 240.542 130.65 245.707C103.568 262.403 70.5882 264.765 39.349 271.836C54.4763 284.321 75.019 291.973 97.6562 291.973H434.717C471.215 291.973 500.798 266.569 500.798 235.226C506.275 226.196 509.925 216.178 511.539 205.741C444.004 212.261 375.627 206.6 307.791 210.462Z" fill="#48BABA"/>
        <path opacity="0.1" d="M512 192.392C512.036 179.474 508.965 166.738 503.045 155.256C497.125 143.775 488.531 133.885 477.986 126.422C478.278 123.632 478.427 120.828 478.434 118.023C478.434 73.6578 442.956 37.706 399.217 37.706C385.744 37.6915 372.498 41.1666 360.768 47.7925C329.797 27.4135 289.37 15.0806 245.142 15.0806C173.203 15.0806 111.28 47.7254 83.8177 94.5379C82.2915 94.4484 80.7564 94.3992 79.2079 94.3992C35.4641 94.3992 -0.00887852 130.364 -0.00887852 174.729C-0.0395393 190.4 4.48859 205.741 13.0238 218.884C13.0238 258.8 50.7033 291.159 97.1637 291.159H434.233C470.727 291.159 500.31 265.75 500.31 234.407C507.985 221.739 512.029 207.204 512 192.392Z" fill="#48BABA"/>
        <path d="M418.139 143.176C417.499 142.685 416.75 142.357 415.955 142.219C415.118 142.026 414.263 141.905 413.413 141.771L402.394 140.183C401.282 139.976 400.148 139.916 399.02 140.004C398.454 140.05 397.903 140.208 397.399 140.47C396.895 140.731 396.448 141.09 396.084 141.525C395.755 141.93 395.575 142.436 395.574 142.957C395.635 143.482 395.806 143.988 396.075 144.443C396.181 144.655 396.273 144.875 396.348 145.101C396.453 145.607 396.585 146.107 396.742 146.6C396.79 146.706 396.854 146.806 396.93 146.895C396.932 146.92 396.932 146.946 396.93 146.971C396.809 147.589 397.198 148.233 397.024 148.828C396.871 149.338 396.375 149.647 396.061 150.072C395.852 150.374 395.737 150.73 395.729 151.097C395.721 151.464 395.821 151.825 396.017 152.135C396.352 152.654 396.961 153.008 397.136 153.603C397.364 154.386 396.746 155.142 396.196 155.747C395.183 156.859 394.247 158.038 393.394 159.277C393.154 159.582 393 159.945 392.946 160.329C392.897 161.107 393.645 161.792 393.515 162.566C393.412 163.175 392.817 163.546 392.302 163.909C390.4 165.162 388.874 167.176 388.722 169.453C388.233 165.829 386.732 162.417 384.389 159.608C383.749 158.839 383.047 158.065 382.783 157.089C382.684 156.7 382.666 156.284 382.532 155.908C382.084 154.722 380.661 154.212 380.039 153.12C379.592 152.35 379.591 151.361 379.037 150.685C378.482 150.01 377.609 149.857 377.13 149.204C376.891 148.762 376.687 148.301 376.521 147.826C376.32 147.439 376.038 147.1 375.693 146.832C375.627 146.78 375.559 146.73 375.487 146.685C375.562 146.618 375.621 146.537 375.662 146.446C375.703 146.355 375.724 146.256 375.725 146.157C375.725 145.633 375.205 145.289 374.753 145.029C374.172 144.698 373.603 144.34 373.048 143.968C373.654 143.687 374.178 143.257 374.574 142.72C375.071 141.918 375.277 140.97 375.156 140.035C375.126 139.28 374.844 138.557 374.355 137.981C374.073 137.681 373.72 137.466 373.424 137.184C372.659 136.437 372.399 135.332 372.082 134.311C371.661 132.969 371.003 131.559 369.777 130.848C369.186 130.503 368.497 130.342 367.919 129.98C367.342 129.617 366.859 128.933 367.06 128.275C367.194 127.827 367.611 127.518 367.892 127.138C368.229 126.646 368.358 126.042 368.252 125.455C368.145 124.869 367.812 124.348 367.324 124.006C366.993 123.795 366.586 123.612 366.518 123.227C366.259 123.16 366.025 123.021 365.841 122.826C365.657 122.631 365.532 122.389 365.48 122.126C365.38 121.6 365.38 121.059 365.48 120.533C365.597 119.701 365.711 118.871 365.825 118.045C366.022 118.127 366.233 118.169 366.447 118.169C366.66 118.169 366.872 118.127 367.069 118.045C367.456 118.673 367.906 119.261 368.412 119.799C369.774 121.408 370.836 123.25 371.545 125.236C371.8 125.952 372.059 126.753 372.722 127.134C372.95 127.263 373.209 127.331 373.433 127.469C373.709 127.662 373.946 127.905 374.131 128.185C374.668 128.897 375.205 129.604 375.738 130.315L375.765 130.423C375.779 130.486 375.804 130.546 375.837 130.602C375.936 130.713 376.073 130.784 376.221 130.799C377.868 131.179 379.717 131.528 381.145 130.629C382.433 129.823 382.997 128.23 384.089 127.165C384.864 126.409 385.96 125.822 386.179 124.757C385.918 124.677 385.661 124.583 385.41 124.475C385.633 124.252 385.857 123.992 386.162 123.697C386.604 123.264 387.002 122.789 387.352 122.278C387.73 121.648 388.03 120.975 388.247 120.274C389.109 117.815 389.975 115.356 390.843 112.894C391.255 111.731 391.666 110.558 392.186 109.426C392.723 108.2 393.358 107.023 393.944 105.819C395.458 102.689 396.625 99.4027 397.426 96.0192C397.569 95.5576 397.616 95.072 397.565 94.5917C397.44 93.8175 396.854 93.209 396.294 92.6585C395.732 92.0496 395.09 91.5184 394.388 91.0789C394.035 90.8594 393.642 90.7124 393.231 90.6463C392.821 90.5803 392.402 90.5965 391.998 90.694C390.852 91.0297 390.131 92.2021 389.867 93.379C389.603 94.5559 389.702 95.7686 389.59 96.959C389.429 98.6818 388.838 100.347 388.695 102.074C388.619 103.072 388.695 104.083 388.574 105.081C388.354 106.387 387.899 107.642 387.231 108.786C385.78 111.515 383.815 113.937 381.444 115.919C381.171 116.148 380.889 116.367 380.621 116.613C380.621 116.421 380.652 116.224 380.679 116.031C380.484 116.082 380.294 116.149 380.111 116.233C380.133 116.007 380.11 115.778 380.044 115.561C379.685 114.492 378.092 114.219 377.806 113.131C377.758 112.863 377.733 112.59 377.73 112.317C377.636 111.364 376.987 110.558 376.763 109.632C376.557 108.777 376.714 107.842 376.315 107.05C375.976 106.555 375.576 106.104 375.125 105.708C374.587 105.093 374.2 104.363 373.993 103.573C373.934 103.354 373.881 103.125 373.818 102.906C373.886 102.41 373.831 101.904 373.657 101.434C373.25 100.423 372.198 99.7737 371.818 98.749C371.522 97.9524 371.652 96.959 371.092 96.3414C370.795 96.0464 370.431 95.8269 370.032 95.7015C367.984 94.9039 365.834 94.3963 363.645 94.1935C362.419 94.0816 361.067 94.0189 360.19 93.1553C359.165 92.1529 359.116 90.3495 357.917 89.5753C356.86 88.8906 355.365 89.3963 354.546 90.3584C354.423 90.4999 354.31 90.6494 354.206 90.8059C354.057 90.2061 354.025 89.5831 354.112 88.9712C354.112 88.819 354.144 88.6624 354.157 88.5237C356.178 87.8634 357.898 86.5055 359.009 84.6931C359.009 84.6931 359.009 84.6931 359.009 84.72L359.062 84.8587C359.192 85.1854 359.398 85.4986 359.702 85.5344C359.905 85.532 360.1 85.461 360.257 85.333C360.527 85.1454 360.776 84.9294 361 84.6886C361.114 84.5633 361.221 84.4336 361.322 84.2993C361.529 84.0199 361.706 83.7199 361.851 83.4043C362.073 82.9294 362.224 82.4242 362.298 81.9052C362.379 81.3861 362.388 80.8536 362.477 80.3345C362.561 79.9327 362.67 79.5366 362.804 79.1486C362.849 79.0189 362.893 78.8891 362.934 78.7593C362.974 78.6295 363.032 78.455 363.077 78.3118C363.357 77.3914 363.508 76.4366 363.524 75.4747C363.524 75.3136 363.524 75.1525 363.524 74.9914C363.508 74.3636 363.367 73.7454 363.108 73.173C362.85 72.6005 362.48 72.0853 362.021 71.6576C361.251 71.0266 360.23 70.7626 359.666 69.9078C359.299 69.335 359.219 68.5967 359.004 67.9254C358.772 67.1221 358.319 66.3999 357.698 65.8407C357.076 65.2815 356.31 64.9077 355.486 64.7616C354.495 64.6529 353.499 64.9266 352.703 65.5269L352.64 65.5761C352.196 65.9149 351.82 66.3339 351.53 66.8112C350.939 66.6483 350.397 66.3407 349.955 65.9162C349.507 65.5 349.162 64.9764 348.71 64.5737C348.288 64.1869 347.769 63.9205 347.209 63.8025C346.648 63.6844 346.066 63.7189 345.524 63.9025C344.965 64.1263 344.467 64.4795 344.071 64.933C343.675 65.3865 343.392 65.9274 343.246 66.5113C343 67.4332 343.044 68.4938 342.53 69.2634C342.131 69.8631 341.478 70.1584 341.021 70.7044C340.738 71.0501 340.544 71.4605 340.458 71.8992C340.403 72.1445 340.378 72.3953 340.381 72.6465C340.381 72.7584 340.381 72.8703 340.408 72.9777C340.408 72.9777 340.408 73.0135 340.408 73.0314C340.424 73.154 340.45 73.2752 340.484 73.3938C340.612 73.8475 340.84 74.2666 341.151 74.62C341.447 74.9584 341.816 75.2247 342.23 75.3986C342.399 75.4646 342.573 75.5199 342.749 75.5642L343.282 75.685L343.47 75.7298C342.827 76.9363 342.47 78.2744 342.427 79.6408C342.383 81.0071 342.654 82.3652 343.219 83.6102C343.219 83.7355 343.188 83.8608 343.174 83.9861C343.101 85.7481 343.179 87.5132 343.407 89.262C343.47 89.9557 343.505 90.7209 343.08 91.2713C342.887 91.4878 342.669 91.6815 342.431 91.8486C342.673 91.5353 342.919 91.2266 343.17 90.9178C342.539 90.2823 341.541 90.2018 340.645 90.2644C338.913 90.3938 337.231 90.9074 335.722 91.768C334.72 92.3453 333.691 93.1105 332.545 92.9763C331.869 92.9002 331.202 92.5288 330.544 92.7078C330.174 92.859 329.829 93.0641 329.519 93.3163C329.275 93.4919 328.979 93.583 328.678 93.5759C327.975 92.7122 326.888 92.126 326.046 91.4235C325.089 90.5711 324.212 89.6318 323.428 88.6176C321.978 86.8679 320.532 85.1138 319.109 83.3461C317.91 81.8605 316.679 80.2539 316.469 78.3521C316.447 78.1634 316.437 77.9737 316.437 77.7838C316.467 76.8801 316.58 75.9812 316.778 75.0988C316.831 74.8858 316.831 74.663 316.778 74.4499C316.643 74.0024 316.129 73.8369 315.685 73.7384C315.744 73.3938 315.784 73.0403 315.806 72.7047C316.057 68.8562 315.784 64.9451 316.599 61.1772C316.907 59.7273 317.413 58.2595 318.456 57.2079C320.089 55.5567 322.824 55.1584 324.077 53.2028C325.124 51.5739 324.708 49.2693 323.392 47.8329C322.077 46.3964 320.049 45.8102 318.12 45.8818C317.579 45.8632 317.044 46.0066 316.585 46.2935C316.156 46.6747 315.835 47.1625 315.654 47.7076L313.734 52.375C313.178 53.5901 312.708 54.8433 312.329 56.125C311.792 58.085 311.671 60.1524 311.246 62.1304C311.246 63.6518 310.266 65.5492 309.729 66.9499C309.129 68.5251 308.48 70.0824 307.938 71.6889C307.804 72.0916 307.334 73.2864 307.043 74.3739C306.933 74.4379 306.831 74.5144 306.739 74.6021C306.505 74.9015 306.293 75.217 306.103 75.5463C305.696 76.0833 305.034 76.3697 304.586 76.8888C304.139 77.4079 304.045 78.361 304.667 78.6206C304.793 78.663 304.924 78.6916 305.056 78.7056C305.138 78.7125 305.218 78.7259 305.298 78.7459C305.969 78.9338 306.233 79.7796 306.135 80.4777C306.036 81.1758 305.687 81.8202 305.629 82.5183C305.508 83.7534 306.233 84.9034 306.931 85.9416C307.654 87.067 308.453 88.142 309.321 89.1591C309.952 89.8662 310.664 90.5016 311.299 91.1818C313.721 93.6699 315.645 96.5786 317.82 99.2815C318.603 100.302 319.493 101.235 320.474 102.065C321.115 102.566 321.786 103.028 322.484 103.448L326.225 105.819C326.65 106.13 327.13 106.357 327.64 106.486C327.806 106.509 327.975 106.509 328.141 106.486C328.163 106.598 328.181 106.705 328.208 106.817C328.499 107.99 329.139 109.055 329.211 110.25C329.282 111.444 329.175 112.666 329.26 113.874C329.34 114.989 329.586 116.112 329.649 117.208C329.774 119.32 329.255 121.406 328.754 123.473C327.998 126.498 327.541 129.586 326.069 132.329C325.657 133.085 325.174 133.855 325.174 134.719C325.174 134.822 325.174 134.929 325.2 135.032L324.529 135.412C324.332 135.524 324.135 135.636 323.956 135.752C323.106 136.307 322.197 136.92 321.848 137.878C321.566 138.652 321.696 139.538 321.356 140.29C321.34 140.324 321.322 140.357 321.302 140.388C320.944 141.087 320.233 141.606 320.071 142.371C319.951 142.957 320.183 143.579 320.071 144.161C320.071 144.161 320.071 144.161 320.071 144.183C319.97 144.475 319.889 144.774 319.83 145.078C319.825 145.177 319.834 145.277 319.857 145.374C319.942 145.713 320.129 146.017 320.394 146.246C320.555 146.401 320.73 146.54 320.917 146.662C321.108 146.788 321.305 146.904 321.508 147.011L321.625 147.074C321.795 147.164 321.965 147.249 322.139 147.329L322.256 147.378C322.457 147.468 322.663 147.548 322.869 147.62L323.012 147.665C323.173 147.718 323.339 147.768 323.504 147.808L323.616 147.844L323.719 147.866L324.167 147.96L324.332 147.991C324.529 148.024 324.731 148.051 324.936 148.072H325.115C325.268 148.072 325.415 148.094 325.563 148.099H325.773C325.93 148.099 326.082 148.099 326.221 148.099H326.382C326.592 148.099 326.803 148.067 327.013 148.041H327.08C327.268 148.014 327.456 147.982 327.644 147.942L327.787 147.911C327.962 147.871 328.136 147.83 328.311 147.777L328.405 147.75C328.615 147.687 328.826 147.62 329.032 147.539C329.744 147.247 330.435 146.904 331.099 146.515C331.547 146.269 331.994 146.018 332.442 145.79C332.774 145.622 333.114 145.473 333.462 145.342C334.309 144.981 335.23 144.827 336.148 144.895C336.601 144.956 337.049 145.048 337.49 145.168C337.49 145.217 337.49 145.266 337.49 145.315C337.854 147.463 338.214 149.611 338.569 151.759C339.155 151.338 339.774 150.965 340.422 150.645C340.301 150.969 340.221 151.308 340.185 151.652C340.158 151.918 340.158 152.187 340.185 152.453C340.225 152.878 340.314 153.348 340.059 153.684C339.903 153.889 339.612 154.006 339.527 154.238C339.464 154.476 339.449 154.724 339.482 154.968C339.464 155.246 339.346 155.508 339.15 155.707C338.955 155.906 338.695 156.028 338.417 156.051C338.545 156.411 338.548 156.804 338.425 157.166C338.303 157.528 338.062 157.838 337.741 158.047C337.554 158.137 337.379 158.251 337.222 158.387C337.069 158.584 336.966 158.816 336.922 159.062C336.33 161.279 335.114 163.278 333.418 164.822C332.781 165.322 332.2 165.889 331.685 166.513C331.367 166.997 331.104 167.515 330.902 168.057C329.709 170.975 328.497 173.894 327.268 176.815C326.588 178.448 325.926 180.108 325.711 181.867C325.174 186.691 320.877 190.781 321.683 195.569C321.846 196.765 322.328 197.895 323.079 198.84C323.974 199.919 325.317 200.536 326.659 201.038C330.11 202.38 333.749 203.114 337.374 203.852L343.067 205.02C344.184 205.277 345.317 205.457 346.459 205.557C347.833 205.651 349.243 205.521 350.581 205.871C351.409 206.085 352.201 206.484 353.056 206.528C353.79 206.569 354.694 206.412 355.128 207.012C355.562 207.611 355.227 208.403 355.639 208.936C356.301 209.782 357.917 208.936 358.637 209.732C358.834 210.038 358.985 210.372 359.085 210.721C359.194 210.938 359.346 211.13 359.532 211.285C359.576 211.538 359.594 211.794 359.586 212.05C359.493 213.09 359.276 214.114 358.941 215.102C358.404 216.919 357.869 218.738 357.335 220.557C357.131 221.2 356.981 221.859 356.887 222.526C356.854 222.851 356.854 223.178 356.887 223.502C356.981 224.491 357.55 225.511 358.494 225.833C359.226 226.027 360.005 225.931 360.669 225.565C361.309 225.231 361.91 224.825 362.459 224.357C363.45 223.607 364.321 222.711 365.042 221.698C367.279 218.351 366.554 213.823 368.125 210.122C369.168 207.652 371.2 205.647 371.876 203.042C372.034 202.547 372.052 202.017 371.929 201.512C371.647 200.617 370.694 200.107 369.804 199.785H369.763C369.032 199.524 368.284 199.31 367.525 199.145C367.338 199.104 367.145 199.073 366.953 199.042C366.527 198.695 366.188 198.254 365.964 197.753C365.928 197.487 365.858 197.226 365.753 196.979C365.682 196.872 365.586 196.784 365.474 196.722C365.362 196.659 365.237 196.625 365.109 196.621C364.661 196.576 364.061 196.737 363.574 196.701C362.576 196.63 361.913 195.65 361.018 195.198C360.123 194.746 359.152 194.858 358.198 194.925C357.858 194.971 357.511 194.95 357.178 194.862C356.781 194.679 356.417 194.429 356.104 194.124C355.553 193.695 354.91 193.401 354.226 193.263C353.542 193.126 352.835 193.149 352.161 193.332C351.733 193.505 351.279 193.607 350.818 193.636C349.946 193.587 349.328 192.808 348.684 192.217C346.92 190.602 344.409 190.177 342.27 189.116C341.943 188.994 341.67 188.76 341.5 188.454C341.254 187.845 341.809 187.237 342.31 186.821L345.989 183.764C350.017 180.417 355.052 177.898 356.923 172.989C357.118 172.33 357.42 171.709 357.818 171.149C357.963 170.979 358.13 170.828 358.315 170.702C359.129 170.175 360.115 169.982 361.067 170.165C362.228 170.425 363.328 170.905 364.308 171.579C365.91 172.548 367.469 173.593 368.985 174.711C370.486 175.784 371.914 176.956 373.259 178.22C375.608 180.457 377.564 183.111 379.753 185.523C381.941 187.935 384.443 190.186 387.482 191.34C390.521 192.495 394.195 192.446 396.804 190.508C399.816 188.271 400.783 184.27 401.544 180.6C403.222 178.98 403.728 176.515 404.547 174.335C405.062 172.953 405.72 171.651 406.275 170.272C406.937 168.652 407.456 166.979 407.975 165.309C408.564 163.633 408.963 161.897 409.166 160.132C409.381 157.344 408.633 154.377 409.416 151.759C410.45 151.531 411.39 150.949 412.406 150.609C413.919 150.113 415.539 150.193 417.141 150.202H417.244C417.796 150.261 418.352 150.13 418.819 149.831C419.357 149.383 419.442 148.618 419.468 147.924C419.531 146.21 419.424 144.286 418.139 143.176ZM353.293 66.8425C352.923 66.934 352.54 66.9613 352.161 66.923L353.293 66.8425Z" fill="url(#paint0_linear)"/>
        <path d="M355.057 95.151C354.515 95.6112 353.88 95.9486 353.195 96.14L350.022 97.2766C348.299 97.8942 346.5 98.5162 344.683 98.2925C343.667 98.1672 339.312 97.5272 338.654 96.7352C337.651 95.509 341.165 93.7056 342.364 92.6719C342.636 92.4765 342.888 92.2546 343.116 92.0096C343.564 91.4637 343.505 90.6984 343.443 90.0093C343.215 88.2635 343.137 86.5014 343.21 84.7423C343.245 84.3229 343.305 83.906 343.389 83.4938C343.837 81.4353 345.752 82.1871 347.265 82.733C349.086 83.3245 350.847 84.0871 352.524 85.0108C353.034 85.2741 353.478 85.6506 353.821 86.1116C354.484 87.114 354.22 88.4296 354.112 89.6916C354.018 90.6716 354.023 91.6113 354.636 92.3228C354.945 92.5949 355.228 92.8945 355.482 93.2178C355.625 93.5435 355.661 93.9063 355.585 94.2538C355.508 94.6013 355.323 94.9155 355.057 95.151Z" fill="#BE6F72"/>
        <path d="M311.224 62.9C311.671 60.9176 311.77 58.8726 312.307 56.9081C312.686 55.6308 313.155 54.3821 313.712 53.1715L315.686 48.5668C315.866 48.023 316.188 47.5367 316.617 47.1571C317.077 46.8722 317.611 46.729 318.152 46.7455C320.081 46.6739 322.108 47.2735 323.424 48.6921C324.74 50.1106 325.156 52.4063 324.109 54.0307C322.856 55.9862 320.121 56.38 318.487 58.0268C317.445 59.0784 316.939 60.5418 316.63 61.9872C315.816 65.7461 316.089 69.6438 315.838 73.4833C315.757 74.6781 315.525 76.043 314.495 76.6605C313.873 76.9654 313.181 77.0997 312.49 77.0499L309.554 77.0991C309.062 77.0991 307.276 77.4079 306.95 77.0365C306.377 76.3876 307.684 73.1567 307.921 72.4362C308.449 70.8386 309.098 69.2813 309.711 67.7106C310.244 66.31 311.224 64.4171 311.224 62.9Z" fill="#BE6F72"/>
        <path d="M371.844 203.485C371.169 206.072 369.137 208.086 368.094 210.551C366.523 214.243 367.23 218.758 365.01 222.097C364.29 223.111 363.419 224.009 362.428 224.759C361.878 225.227 361.278 225.63 360.638 225.963C359.974 226.329 359.195 226.425 358.463 226.232C357.518 225.909 356.95 224.889 356.856 223.905C356.822 223.582 356.822 223.256 356.856 222.934C356.95 222.267 357.1 221.61 357.303 220.969C357.84 219.158 358.376 217.344 358.91 215.527C359.244 214.542 359.461 213.521 359.555 212.485C359.613 211.357 358.897 209.889 359.201 208.837C359.34 208.363 359.859 207.942 360.096 207.544C360.433 206.971 360.692 206.355 360.866 205.714C361.233 204.465 361.484 203.132 362.253 202.08C362.756 201.457 363.343 200.907 363.999 200.447C364.483 200.023 365.05 199.704 365.664 199.512C366.259 199.407 366.871 199.436 367.454 199.597C368.213 199.759 368.961 199.971 369.692 200.232H369.732C370.627 200.554 371.576 201.051 371.858 201.955C371.995 202.457 371.99 202.986 371.844 203.485Z" fill="#3F3D56"/>
        <path d="M419.464 148.47C419.437 149.164 419.352 149.938 418.815 150.372C418.347 150.671 417.792 150.802 417.24 150.744H417.119C415.521 150.744 413.897 150.654 412.384 151.151C411.234 151.531 410.177 152.229 408.978 152.368C407.326 152.556 405.773 151.652 404.31 150.864C402.932 150.122 401.517 149.45 400.072 148.851C399.123 148.461 397.185 148.211 396.728 147.173C396.572 146.681 396.441 146.182 396.335 145.678C396.259 145.452 396.168 145.233 396.062 145.02C395.793 144.567 395.622 144.062 395.56 143.539C395.562 143.017 395.742 142.512 396.07 142.107C396.436 141.675 396.883 141.319 397.386 141.06C397.889 140.801 398.438 140.645 399.002 140.599C400.13 140.511 401.264 140.571 402.377 140.778L413.395 142.362C414.246 142.483 415.1 142.604 415.937 142.809C416.732 142.947 417.482 143.276 418.121 143.767C419.424 144.859 419.531 146.779 419.464 148.47Z" fill="#3F3D56"/>
        <path d="M409.779 151.334C408.436 154.167 409.403 157.518 409.161 160.651C408.958 162.411 408.559 164.143 407.971 165.815C407.452 167.48 406.933 169.149 406.27 170.764C405.715 172.107 405.057 173.449 404.543 174.819C403.724 177.002 403.2 179.459 401.54 181.084C400.779 184.744 399.812 188.745 396.8 190.964C394.182 192.897 390.534 192.965 387.477 191.797C384.421 190.629 381.937 188.391 379.748 185.979C377.56 183.567 375.604 180.94 373.254 178.694C371.908 177.43 370.477 176.26 368.971 175.19C367.455 174.089 365.897 173.054 364.294 172.084C363.313 171.413 362.214 170.935 361.054 170.675C360.102 170.492 359.115 170.685 358.302 171.212C358.117 171.338 357.95 171.489 357.805 171.659C357.406 172.217 357.104 172.837 356.91 173.494C355.03 178.39 349.986 180.905 345.958 184.243L342.279 187.29C341.778 187.707 341.223 188.315 341.469 188.919C341.638 189.225 341.911 189.46 342.239 189.582C344.378 190.638 346.889 191.063 348.652 192.674C349.297 193.264 349.914 194.043 350.787 194.088C351.248 194.061 351.701 193.96 352.13 193.788C352.803 193.606 353.51 193.582 354.194 193.719C354.878 193.855 355.521 194.149 356.073 194.576C356.386 194.881 356.749 195.131 357.147 195.314C357.48 195.402 357.826 195.423 358.167 195.377C359.121 195.31 360.132 195.224 360.987 195.65C361.842 196.075 362.544 197.077 363.542 197.149C364.03 197.185 364.612 197.023 365.077 197.068C365.206 197.072 365.331 197.107 365.443 197.169C365.555 197.231 365.651 197.319 365.722 197.426C365.826 197.672 365.897 197.931 365.932 198.196C366.116 198.827 366.733 199.212 367.136 199.731C367.754 200.527 367.843 201.61 367.781 202.617C367.578 205.765 366.175 208.716 363.86 210.86C363.203 211.532 362.365 211.998 361.448 212.202C360.989 212.299 360.511 212.248 360.082 212.058C359.653 211.867 359.295 211.547 359.058 211.142C358.958 210.793 358.807 210.462 358.61 210.157C357.89 209.365 356.274 210.207 355.612 209.361C355.2 208.833 355.495 207.987 355.102 207.441C354.708 206.895 353.759 206.994 353.029 206.962C352.175 206.918 351.382 206.515 350.554 206.304C349.212 205.955 347.806 206.085 346.432 205.991C345.291 205.891 344.157 205.711 343.04 205.454L337.347 204.291C333.722 203.552 330.083 202.805 326.633 201.485C325.313 200.984 323.983 200.366 323.052 199.292C322.302 198.348 321.82 197.22 321.656 196.025C320.846 191.251 325.142 187.17 325.684 182.359C325.876 180.605 326.579 178.949 327.241 177.32C328.456 174.408 329.667 171.495 330.876 168.581C331.071 168.038 331.326 167.519 331.636 167.032C332.151 166.409 332.732 165.844 333.368 165.345C335.064 163.806 336.281 161.811 336.873 159.599C336.917 159.353 337.02 159.121 337.173 158.924C337.331 158.791 337.506 158.678 337.692 158.588C338.011 158.38 338.252 158.07 338.374 157.709C338.497 157.348 338.495 156.956 338.368 156.597C338.645 156.574 338.906 156.452 339.101 156.253C339.297 156.054 339.414 155.792 339.433 155.514C339.4 155.271 339.415 155.025 339.478 154.789C339.585 154.556 339.853 154.44 340.01 154.234C340.265 153.898 340.176 153.428 340.135 153.008C340.109 152.741 340.109 152.473 340.135 152.207C340.233 151.259 340.657 150.375 341.335 149.705C342.405 148.654 343.926 148.927 345.403 148.676C346.876 148.358 348.315 147.898 349.7 147.302C353.583 145.772 357.672 144.827 361.833 144.496C366.014 144.168 370.214 144.836 374.087 146.447C374.65 146.676 375.181 146.976 375.667 147.342C376.011 147.608 376.294 147.945 376.495 148.331C376.66 148.805 376.863 149.265 377.103 149.705C377.582 150.359 378.486 150.569 379.01 151.186C379.533 151.804 379.578 152.847 380.012 153.612C380.634 154.704 382.076 155.209 382.505 156.395C382.639 156.771 382.657 157.183 382.756 157.572C382.997 158.548 383.723 159.317 384.363 160.087C386.709 162.893 388.211 166.307 388.695 169.932C388.838 167.663 390.364 165.654 392.275 164.401C392.79 164.065 393.385 163.694 393.488 163.085C393.618 162.316 392.87 161.631 392.92 160.848C392.974 160.465 393.128 160.104 393.367 159.801C394.22 158.565 395.156 157.388 396.169 156.279C396.719 155.675 397.337 154.936 397.109 154.14C396.934 153.545 396.326 153.196 395.99 152.677C395.794 152.367 395.694 152.007 395.702 151.641C395.71 151.274 395.826 150.919 396.035 150.618C396.348 150.193 396.845 149.884 396.997 149.379C397.171 148.783 396.782 148.139 396.903 147.526C397.066 147.035 397.391 146.614 397.825 146.331C398.419 145.79 399.094 145.346 399.825 145.015C401.007 144.568 402.323 144.734 403.576 144.908C405.67 145.199 408.02 145.646 409.202 147.401C409.958 148.497 410.343 150.162 409.779 151.334Z" fill="#65617D"/>
        <path opacity="0.1" d="M419.464 148.47C419.437 149.164 419.352 149.938 418.815 150.372C418.348 150.671 417.792 150.802 417.24 150.744H417.119C417.303 149.813 418.435 149.28 418.632 148.336C418.666 148.046 418.639 147.752 418.555 147.473C418.47 147.193 418.329 146.934 418.14 146.712C417.182 145.418 415.642 144.702 414.112 144.179C409.787 142.696 405.155 142.35 400.658 143.172C399.435 143.371 398.246 143.737 397.123 144.259C396.75 144.492 396.392 144.746 396.048 145.02C395.78 144.567 395.609 144.062 395.547 143.539C395.549 143.017 395.729 142.512 396.057 142.107C396.422 141.675 396.869 141.319 397.372 141.06C397.876 140.801 398.425 140.645 398.989 140.599C400.117 140.511 401.251 140.571 402.363 140.778L413.382 142.362C414.232 142.483 415.087 142.604 415.924 142.809C416.719 142.947 417.468 143.276 418.108 143.767C419.424 144.859 419.531 146.779 419.464 148.47Z" fill="black"/>
        <path opacity="0.1" d="M371.844 203.485C371.169 206.072 369.137 208.086 368.094 210.551C366.523 214.243 367.23 218.758 365.01 222.097C364.29 223.111 363.419 224.008 362.428 224.759C361.878 225.227 361.278 225.63 360.638 225.963C359.974 226.329 359.195 226.425 358.463 226.231C357.518 225.909 356.95 224.889 356.856 223.905C356.822 223.582 356.822 223.256 356.856 222.933L356.883 223.005C357.272 223.945 357.908 224.929 358.91 225.095C359.286 225.122 359.664 225.071 360.02 224.946C360.376 224.82 360.702 224.623 360.978 224.365C362.455 223.18 363.314 221.412 364.133 219.707C364.774 218.478 365.281 217.183 365.646 215.845C365.825 215.084 365.91 214.306 366.093 213.545C366.944 209.849 369.839 206.833 370.479 203.087C370.531 202.829 370.544 202.565 370.515 202.304C370.431 201.963 370.301 201.635 370.13 201.328C369.975 200.982 369.861 200.618 369.79 200.245C370.685 200.568 371.634 201.064 371.916 201.968C372.032 202.471 372.007 202.996 371.844 203.485Z" fill="black"/>
        <path opacity="0.1" d="M365.086 197.068C364.672 198.151 363.975 199.103 363.068 199.825C361.794 200.796 360.302 201.441 358.722 201.704C357.987 201.892 357.215 201.883 356.485 201.678C355.491 201.333 354.775 200.402 353.759 200.134C353.034 199.937 352.255 200.111 351.521 200.004C350.201 199.82 349.176 198.814 348.111 198.008C344.848 195.556 340.565 194.764 337.302 192.311C337.157 192.222 337.037 192.097 336.953 191.949C336.891 191.788 336.868 191.615 336.886 191.443C336.898 189.956 337.233 188.489 337.866 187.143C338.385 186.204 339.004 185.323 339.71 184.516C342.633 180.936 345.569 177.329 349.069 174.309C350.537 173.042 352.139 171.861 353.992 171.288C355.021 170.97 357.053 170.67 358.306 171.207C358.121 171.334 357.954 171.484 357.809 171.655C357.411 172.213 357.108 172.833 356.914 173.49C355.03 178.39 349.986 180.905 345.958 184.243L342.279 187.291C341.778 187.707 341.223 188.315 341.469 188.919C341.639 189.225 341.912 189.46 342.239 189.582C344.378 190.638 346.889 191.063 348.652 192.674C349.297 193.265 349.914 194.043 350.787 194.088C351.248 194.061 351.701 193.96 352.13 193.788C352.803 193.606 353.51 193.582 354.194 193.719C354.878 193.856 355.521 194.149 356.073 194.576C356.386 194.881 356.749 195.131 357.147 195.314C357.48 195.402 357.826 195.423 358.167 195.377C359.121 195.31 360.132 195.225 360.987 195.65C361.842 196.075 362.544 197.077 363.542 197.149C364.039 197.185 364.621 197.015 365.086 197.068Z" fill="black"/>
        <path d="M323.925 136.334C323.075 136.88 322.171 137.498 321.822 138.446C321.535 139.221 321.669 140.107 321.325 140.858C320.98 141.61 320.206 142.134 320.036 142.939C319.915 143.525 320.152 144.143 320.036 144.729C319.934 145.034 319.852 145.345 319.79 145.66C319.745 146.327 320.318 146.868 320.877 147.24C322.068 148.014 323.424 148.499 324.837 148.654C326.249 148.81 327.678 148.632 329.009 148.135C330.204 147.687 331.283 146.958 332.429 146.385C333.546 145.742 334.824 145.431 336.112 145.49C336.85 145.57 337.557 145.839 338.296 145.937C338.661 146.009 339.037 145.992 339.394 145.886C339.75 145.78 340.075 145.589 340.341 145.329C340.569 145.014 340.722 144.651 340.789 144.268C341.411 141.812 341.129 139.207 340.538 136.737C339.947 134.267 339.052 131.891 338.421 129.434C337.974 127.612 337.629 125.746 336.882 124.024C336.134 122.301 334.877 120.699 333.118 120.041C332.979 119.973 332.822 119.952 332.67 119.983C332.557 120.03 332.458 120.104 332.379 120.197C330.988 121.672 329.94 123.435 329.309 125.362C328.606 127.505 328.414 129.778 327.77 131.931C327.492 132.826 327.134 134.025 326.427 134.71C325.72 135.394 324.726 135.82 323.925 136.334Z" fill="#3F3D56"/>
        <path opacity="0.1" d="M340.802 144.255C340.727 144.639 340.567 145.002 340.332 145.315C340.067 145.576 339.742 145.767 339.385 145.873C339.028 145.978 338.651 145.994 338.287 145.92C337.553 145.83 336.846 145.557 336.107 145.472C334.819 145.412 333.541 145.723 332.424 146.367C331.278 146.94 330.186 147.651 329 148.112C327.265 148.77 325.37 148.878 323.571 148.421C322.616 148.181 321.708 147.782 320.886 147.24C320.322 146.873 319.754 146.345 319.799 145.66C319.861 145.346 319.943 145.037 320.045 144.734C320.161 144.148 319.928 143.53 320.045 142.944C320.215 142.138 320.994 141.601 321.334 140.858C321.674 140.116 321.544 139.225 321.826 138.451C322.175 137.498 323.084 136.885 323.934 136.334C324.784 135.784 325.796 135.363 326.476 134.696C326.564 134.593 326.643 134.482 326.713 134.365C327.204 133.609 327.564 132.775 327.778 131.9C328.436 129.743 328.615 127.474 329.314 125.326C329.947 123.401 330.997 121.639 332.388 120.166C332.463 120.07 332.562 119.996 332.675 119.951C332.826 119.921 332.983 119.939 333.122 120.005C334.877 120.667 336.134 122.269 336.886 123.992C337.638 125.715 337.956 127.572 338.426 129.398C339.052 131.855 339.952 134.24 340.543 136.706C341.133 139.171 341.424 141.794 340.802 144.255Z" fill="black"/>
        <path opacity="0.1" d="M354.112 89.6782C352.008 90.3467 349.731 90.214 347.718 89.3053C345.706 88.3967 344.1 86.7763 343.21 84.7557C343.245 84.3364 343.305 83.9194 343.389 83.5072C343.837 81.4487 345.752 82.2005 347.265 82.7464C349.086 83.3379 350.847 84.1005 352.524 85.0242C353.034 85.2875 353.478 85.664 353.822 86.125C354.484 87.114 354.22 88.4296 354.112 89.6782Z" fill="black"/>
        <path d="M351.409 89.6513C356.353 89.6513 360.36 85.6443 360.36 80.7014C360.36 75.7585 356.353 71.7515 351.409 71.7515C346.466 71.7515 342.458 75.7585 342.458 80.7014C342.458 85.6443 346.466 89.6513 351.409 89.6513Z" fill="#BE6F72"/>
        <path opacity="0.1" d="M375.698 147.584C375.698 148.327 374.691 148.564 373.943 148.524C371.258 148.367 368.631 147.629 365.972 147.853C362.611 148.157 359.523 150.014 356.153 150.184C354.855 150.251 353.535 150.059 352.255 150.296C350.599 150.605 349.122 151.612 347.435 151.755C345.971 151.88 344.526 151.33 343.062 151.388C342.039 151.449 341.042 151.733 340.14 152.22C340.238 151.273 340.662 150.389 341.339 149.719C342.409 148.667 343.931 148.94 345.407 148.69C346.881 148.372 348.32 147.911 349.704 147.316C353.587 145.786 357.676 144.84 361.837 144.51C366.016 144.178 370.214 144.842 374.087 146.448C374.65 146.676 375.181 146.977 375.666 147.343C375.691 147.421 375.701 147.502 375.698 147.584Z" fill="black"/>
        <path d="M347.269 97.0439L343.644 95.7014L342.113 95.1376C341.49 94.8762 340.833 94.7016 340.162 94.6185C338.408 94.4842 336.756 95.6522 335.821 97.1423C334.885 98.6325 334.532 100.409 334.232 102.141C333.82 104.51 333.471 106.887 333.185 109.274C332.876 111.429 332.719 113.603 332.715 115.781C332.818 121.321 333.99 126.784 335.279 132.177C335.911 134.568 336.388 136.997 336.707 139.449C336.814 140.46 336.864 141.476 336.971 142.492C337.087 143.633 337.275 144.76 337.463 145.893L338.542 152.323C339.885 151.37 341.411 150.533 343.062 150.484C344.526 150.43 345.976 150.976 347.435 150.851C349.113 150.712 350.599 149.705 352.255 149.396C353.535 149.159 354.855 149.347 356.158 149.285C359.523 149.115 362.616 147.253 365.972 146.953C368.635 146.711 371.28 147.463 373.948 147.62C374.691 147.665 375.698 147.427 375.698 146.68C375.698 146.161 375.179 145.816 374.727 145.557C372.596 144.274 370.568 142.827 368.662 141.23C366.899 139.833 365.109 138.401 363.896 136.513C360.973 131.971 361.976 125.827 359.483 121.034C357.456 117.141 359.483 112.039 359.483 107.65C359.483 105.461 359.483 103.246 358.968 101.121C358.647 99.9317 358.246 98.7656 357.769 97.6301L356.028 93.2223C355.992 93.0935 355.92 92.9772 355.822 92.8866C355.705 92.806 355.566 92.7638 355.424 92.7658C354.378 92.7032 353.347 93.0335 352.532 93.6921C351.713 94.3589 351.19 95.3166 350.384 96.0102C349.503 96.7754 348.366 97.4466 347.269 97.0439Z" fill="#E3E8F4"/>
        <path d="M353.119 94.5023C353.405 93.2762 353.714 92.0008 354.533 91.0432C355.352 90.0855 356.847 89.5799 357.903 90.2645C359.103 91.0432 359.152 92.8421 360.177 93.8445C361.072 94.7037 362.414 94.7708 363.632 94.8827C365.821 95.0819 367.971 95.588 370.018 96.3863C370.418 96.5101 370.782 96.728 371.079 97.0217C371.638 97.6572 371.527 98.6327 371.804 99.4248C372.185 100.445 373.236 101.094 373.644 102.11C374.091 103.237 373.644 104.499 373.268 105.658C372.592 107.739 372.167 109.901 371.509 111.99C370.851 114.08 369.915 116.139 368.376 117.714C367.696 118.412 366.684 119.056 365.789 118.64L365.444 121.124C365.344 121.649 365.344 122.188 365.444 122.712C365.496 122.975 365.621 123.218 365.805 123.412C365.989 123.607 366.224 123.746 366.483 123.813C366.55 124.198 366.957 124.382 367.288 124.592C367.533 124.759 367.742 124.973 367.903 125.222C368.064 125.47 368.174 125.748 368.227 126.039C368.28 126.331 368.274 126.63 368.211 126.919C368.147 127.208 368.027 127.482 367.857 127.724C367.575 128.105 367.158 128.405 367.024 128.857C366.823 129.51 367.302 130.199 367.884 130.557C368.465 130.915 369.15 131.081 369.741 131.425C370.967 132.132 371.625 133.524 372.046 134.875C372.359 135.896 372.619 137.001 373.388 137.744C373.684 138.026 374.037 138.241 374.319 138.536C374.807 139.112 375.089 139.835 375.12 140.59C375.243 141.525 375.037 142.474 374.539 143.275C373.644 144.555 371.974 144.935 370.511 145.512C368.134 146.488 366.178 148.233 364.084 149.719C363.231 150.406 362.226 150.878 361.152 151.097C359.702 151.29 358.275 150.65 356.816 150.591C355.943 150.6 355.074 150.714 354.229 150.932L351.543 151.513C351.687 149.432 350.541 147.347 349.901 145.365C348.692 141.633 348.469 137.641 348.755 133.73C349.041 129.819 349.838 125.961 350.626 122.122C351.176 119.437 351.123 116.631 351.968 114.022C352.761 111.512 353.893 109.1 354.309 106.486C354.989 102.257 352.161 98.673 353.119 94.5023Z" fill="#3F3D56"/>
        <path d="M373.478 102.776C373.725 103.231 373.899 103.722 373.993 104.231C374.2 105.019 374.587 105.748 375.125 106.361C375.575 106.758 375.975 107.209 376.315 107.703C376.727 108.482 376.571 109.431 376.763 110.281C376.987 111.207 377.636 112.013 377.73 112.966C377.732 113.239 377.758 113.512 377.806 113.78C378.097 114.863 379.69 115.123 380.044 116.206C380.281 116.908 379.874 117.674 379.95 118.412C380.005 118.64 380.019 118.877 379.99 119.11C379.889 119.374 379.711 119.601 379.48 119.763C377.998 121.178 376.973 123.003 376.535 125.004C376.104 126.993 375.877 129.022 375.859 131.058L374.109 128.745C373.924 128.464 373.687 128.221 373.411 128.029C373.187 127.894 372.928 127.827 372.699 127.693C372.037 127.317 371.777 126.521 371.522 125.805C370.814 123.823 369.752 121.985 368.389 120.381C367.678 119.544 366.85 118.703 366.693 117.615C366.646 117.116 366.673 116.612 366.774 116.121C367.221 113.19 367.7 110.187 369.128 107.587C369.795 106.37 370.658 105.269 371.298 104.034C371.728 103.215 372.332 101.085 373.478 102.776Z" fill="#3F3D56"/>
        <path d="M329.327 105.591C329.335 105.968 329.239 106.34 329.049 106.665C328.878 106.863 328.655 107.01 328.406 107.089C328.156 107.168 327.889 107.176 327.635 107.113C327.126 106.985 326.645 106.76 326.221 106.45C324.974 105.663 323.727 104.874 322.479 104.083C321.783 103.664 321.112 103.203 320.47 102.705C319.488 101.876 318.598 100.945 317.816 99.9259C315.641 97.2409 313.716 94.3277 311.295 91.871C310.637 91.1997 309.952 90.5553 309.317 89.8528C308.448 88.8372 307.65 87.7637 306.927 86.6397C306.229 85.606 305.504 84.4604 305.625 83.2253C305.696 82.5272 306.032 81.8829 306.13 81.1892C306.229 80.4956 305.965 79.6498 305.293 79.4619C305.214 79.442 305.133 79.4285 305.052 79.4216C304.919 79.4076 304.789 79.3791 304.662 79.3366C304.04 79.0771 304.134 78.1149 304.582 77.6093C305.029 77.1036 305.692 76.8217 306.099 76.2668C306.288 75.9375 306.501 75.622 306.735 75.3226C307.034 75.0656 307.392 74.8859 307.777 74.799C310.359 74.0383 313.09 73.9352 315.721 74.4992C316.169 74.5976 316.679 74.7766 316.813 75.2107C316.867 75.4221 316.867 75.6436 316.813 75.8551C316.616 76.7374 316.502 77.6364 316.473 78.5401C316.473 78.7285 316.483 78.9167 316.505 79.1039C316.715 81.0013 317.946 82.6078 319.145 84.089C320.568 85.8521 322.014 87.6018 323.464 89.3471C324.248 90.3584 325.125 91.2947 326.082 92.1439C326.977 92.8868 328.136 93.4864 328.835 94.4396C329.403 95.2093 329.22 96.2609 329.282 97.1872C329.49 99.9842 329.505 102.792 329.327 105.591Z" fill="#3F3D56"/>
        <path d="M386.166 124.261C386.608 123.831 387.007 123.359 387.357 122.851C387.733 122.222 388.033 121.551 388.252 120.851L390.848 113.489C391.259 112.326 391.671 111.158 392.19 110.026C392.727 108.804 393.363 107.627 393.949 106.446C395.457 103.337 396.623 100.073 397.427 96.7129C397.568 96.2511 397.615 95.7657 397.565 95.2854C397.44 94.5112 396.854 93.9071 396.294 93.3567C395.732 92.7491 395.091 92.2194 394.388 91.7815C394.035 91.562 393.642 91.415 393.232 91.3489C392.821 91.2829 392.402 91.2991 391.998 91.3966C390.852 91.7323 390.132 92.9047 389.868 94.0816C389.603 95.2585 389.702 96.4623 389.59 97.6616C389.429 99.38 388.838 101.04 388.695 102.763C388.619 103.761 388.695 104.768 388.574 105.761C388.354 107.066 387.899 108.32 387.231 109.462C385.777 112.183 383.813 114.599 381.445 116.577C380.796 117.056 380.212 117.617 379.708 118.246C379.287 118.876 379.002 119.586 378.871 120.332C378.574 121.467 378.703 122.672 379.234 123.719C379.963 124.963 381.364 125.509 382.702 125.787C384.51 126.163 384.927 125.545 386.166 124.261Z" fill="#BE6F72"/>
        <path d="M351.463 67.7329C351.848 67.009 352.438 66.4145 353.16 66.0238C353.881 65.6331 354.701 65.4633 355.518 65.5357C356.341 65.6814 357.106 66.0546 357.728 66.613C358.35 67.1713 358.803 67.8926 359.036 68.695C359.246 69.3618 359.331 70.1002 359.698 70.673C360.253 71.5366 361.282 71.7872 362.052 72.4137C362.512 72.8407 362.882 73.3551 363.14 73.9268C363.398 74.4985 363.54 75.116 363.556 75.7431C363.599 77.024 363.397 78.3013 362.961 79.5065C362.776 80.0208 362.626 80.5471 362.513 81.0817C362.424 81.6008 362.415 82.1289 362.334 82.648C362.235 83.321 362.002 83.9675 361.649 84.5492C361.296 85.131 360.831 85.6363 360.28 86.0355C360.123 86.1634 359.927 86.2344 359.725 86.2369C359.376 86.1966 359.161 85.7894 359.031 85.4224C358.32 83.3684 358.49 80.858 357.178 79.2201C356.582 78.5594 355.861 78.0227 355.057 77.6405C354.729 77.429 354.36 77.2902 353.974 77.2332C353.406 77.2638 352.861 77.4632 352.407 77.806C351.463 78.4396 350.415 78.903 349.31 79.1754C348.759 79.3059 348.186 79.3118 347.632 79.1926C347.079 79.0733 346.559 78.832 346.11 78.4862C345.493 77.9761 345.041 77.2109 344.356 76.8126C343.671 76.4143 342.955 76.4367 342.279 76.1637C341.849 75.9806 341.465 75.7015 341.159 75.3479C340.852 74.9942 340.631 74.5752 340.511 74.1229C340.391 73.6706 340.376 73.1969 340.466 72.7378C340.557 72.2788 340.752 71.8465 341.035 71.474C341.483 70.937 342.145 70.6327 342.543 70.0375C343.058 69.2678 343.013 68.2117 343.259 67.2899C343.405 66.7067 343.688 66.1666 344.084 65.7144C344.48 65.2623 344.978 64.9111 345.537 64.6899C346.08 64.5058 346.661 64.4706 347.222 64.5879C347.782 64.7051 348.301 64.9707 348.724 65.3567C349.172 65.7595 349.53 66.2786 349.968 66.6992C350.401 67.1137 350.931 67.4128 351.51 67.5691C352.089 67.7255 352.697 67.7341 353.28 67.5942" fill="#3F3D56"/>
        <path opacity="0.1" d="M358.821 133.6C358.56 133.832 358.375 134.137 358.291 134.475C358.206 134.814 358.226 135.17 358.346 135.497C358.445 135.707 363.063 134.817 363.551 134.75C364.769 134.575 366.903 134.66 367.722 133.546C369.181 131.573 364.661 132.011 363.833 132.083C362.258 132.217 360.02 132.432 358.821 133.6Z" fill="black"/>
        <path d="M316.805 75.873C316.607 76.7553 316.493 77.6543 316.465 78.558C315.122 78.8309 313.725 78.3834 312.437 77.9359L308.735 76.674C308.51 76.5301 308.239 76.4774 307.976 76.5264C307.713 76.5754 307.479 76.7226 307.321 76.938C306.726 77.5556 305.907 78.728 305.083 79.4216C304.951 79.4076 304.82 79.3791 304.694 79.3366C304.072 79.0771 304.166 78.1149 304.613 77.6093C305.061 77.1036 305.723 76.8217 306.131 76.2668C306.32 75.9375 306.532 75.622 306.766 75.3226C307.066 75.0656 307.424 74.8859 307.809 74.799C310.39 74.0383 313.121 73.9352 315.753 74.4992C316.2 74.5976 316.711 74.7766 316.845 75.2107C316.889 75.4313 316.875 75.6593 316.805 75.873Z" fill="#3F3D56"/>
        <path opacity="0.1" d="M316.805 75.873C316.607 76.7553 316.493 77.6543 316.465 78.558C315.122 78.8309 313.725 78.3834 312.437 77.9359L308.735 76.674C308.51 76.5301 308.239 76.4774 307.976 76.5264C307.713 76.5754 307.479 76.7226 307.321 76.938C306.726 77.5556 305.907 78.728 305.083 79.4216C304.951 79.4076 304.82 79.3791 304.694 79.3366C304.072 79.0771 304.166 78.1149 304.613 77.6093C305.061 77.1036 305.723 76.8217 306.131 76.2668C306.32 75.9375 306.532 75.622 306.766 75.3226C307.066 75.0656 307.424 74.8859 307.809 74.799C310.39 74.0383 313.121 73.9352 315.753 74.4992C316.2 74.5976 316.711 74.7766 316.845 75.2107C316.889 75.4313 316.875 75.6593 316.805 75.873Z" fill="black"/>
        <path opacity="0.1" d="M350.662 160.83C351.306 161.045 352.004 161.358 352.224 162.002L347.041 160.687L344.356 160.002C343.881 159.881 342.181 159.743 341.867 159.371C341.42 158.825 343.009 159.201 343.295 159.241C344.163 159.371 345.032 159.505 345.895 159.662C347.524 159.953 349.091 160.432 350.662 160.83Z" fill="black"/>
        <path opacity="0.1" d="M352.671 165.417C352.224 165.117 350.939 165.153 350.389 165.023C349.583 164.831 348.791 164.575 347.999 164.329C346.392 163.806 344.799 163.211 343.147 162.826C342.843 162.759 341.805 162.741 341.854 162.356C341.903 161.971 342.892 161.837 343.138 161.819C344.602 161.711 346.428 162.396 347.788 162.884C349.522 163.505 351.165 164.357 352.671 165.417Z" fill="black"/>
        <path opacity="0.1" d="M349.386 156.74C347.744 156.292 346.253 155.272 344.562 155.075C344.121 155.092 343.687 154.96 343.331 154.699C343.132 154.504 342.994 154.255 342.932 153.983C344.065 153.925 345.381 154.404 346.41 154.856C346.977 155.099 347.521 155.389 348.039 155.724C348.415 155.952 348.979 156.61 349.386 156.74Z" fill="black"/>
        <path d="M380.697 116.671C380.419 118.532 380.821 120.43 381.829 122.018C382.836 123.607 384.383 124.779 386.184 125.321C385.965 126.382 384.868 126.968 384.094 127.724C383.002 128.785 382.438 130.373 381.149 131.179C379.712 132.074 377.864 131.725 376.226 131.349C376.077 131.332 375.94 131.26 375.841 131.148C375.807 131.094 375.783 131.035 375.769 130.973C375.228 128.991 374.874 126.874 375.429 124.887C375.877 123.196 376.951 121.755 377.81 120.26C378.67 118.765 378.75 117.163 380.697 116.671Z" fill="#3F3D56"/>
        <path d="M340.681 91.0118C338.949 91.1378 337.267 91.6501 335.758 92.5109C334.756 93.0837 333.726 93.8534 332.581 93.7146C331.905 93.6386 331.238 93.2671 330.58 93.4461C330.21 93.5957 329.864 93.8009 329.555 94.0547C329.399 94.1794 329.213 94.2614 329.015 94.2927C328.817 94.3241 328.615 94.3038 328.427 94.2337L327.98 100.427C327.81 102.781 327.644 105.184 328.208 107.48C328.499 108.652 329.139 109.717 329.211 110.907C329.282 112.098 329.175 113.319 329.26 114.523C329.34 115.637 329.587 116.734 329.649 117.848C329.775 119.951 329.255 122.037 328.754 124.082C327.998 127.098 327.541 130.181 326.069 132.911C325.657 133.667 325.174 134.437 325.174 135.296C325.174 135.403 325.174 135.506 325.201 135.609C324.753 135.855 324.337 136.088 323.956 136.33C323.106 136.88 322.197 137.493 321.848 138.446C321.566 139.22 321.696 140.107 321.356 140.854C321.016 141.601 320.237 142.134 320.067 142.939C319.946 143.525 320.179 144.143 320.067 144.729C319.966 145.032 319.884 145.342 319.821 145.655C319.776 146.327 320.345 146.868 320.909 147.235C321.731 147.777 322.639 148.176 323.594 148.417L326.266 137.811C328.702 133.307 330.728 128.594 332.321 123.728C332.777 122.138 333.362 120.587 334.071 119.092C334.578 118.246 335.026 117.367 335.414 116.461C335.821 115.333 335.861 114.111 336.058 112.921C336.292 111.532 336.644 110.165 337.11 108.836C337.593 107.399 338.153 105.967 338.251 104.459C338.399 102.302 337.616 100.024 338.448 98.0285C338.801 97.2815 339.261 96.5896 339.813 95.9745C340.968 94.5604 342.02 93.0792 343.174 91.6651C342.575 91.0252 341.577 90.9581 340.681 91.0118Z" fill="#3F3D56"/>
        <g opacity="0.1">
            <path opacity="0.1" d="M353.293 66.2607L352.734 66.301L352.671 66.3458C352.881 66.3372 353.089 66.3088 353.293 66.2607Z" fill="black"/>
            <path opacity="0.1" d="M363.533 75.5508C363.44 76.4405 363.248 77.317 362.96 78.1642C362.775 78.6784 362.626 79.2047 362.513 79.7394C362.423 80.2585 362.414 80.7865 362.334 81.3056C362.235 81.9787 362.002 82.6251 361.649 83.2069C361.296 83.7887 360.831 84.294 360.28 84.6931C360.123 84.8211 359.927 84.8921 359.725 84.8945C359.376 84.8542 359.161 84.447 359.031 84.0801C358.319 82.0261 358.489 79.5156 357.178 77.8778C356.582 77.2171 355.861 76.6803 355.057 76.2981C354.729 76.0867 354.36 75.9478 353.974 75.8909C353.406 75.9214 352.861 76.1209 352.407 76.4637C351.463 77.0972 350.414 77.5607 349.31 77.833C348.759 77.9636 348.186 77.9694 347.632 77.8502C347.079 77.731 346.559 77.4897 346.11 77.1439C345.492 76.6338 345.04 75.8685 344.356 75.4703C343.671 75.072 342.955 75.0944 342.279 74.8214C341.857 74.6411 341.481 74.3681 341.179 74.0226C340.876 73.6771 340.656 73.2679 340.534 72.8256C340.518 72.7698 340.506 72.7129 340.498 72.6555C340.386 73.155 340.398 73.6744 340.534 74.1681C340.656 74.6104 340.876 75.0195 341.179 75.3651C341.481 75.7106 341.857 75.9836 342.279 76.1639C342.955 76.4369 343.716 76.4413 344.356 76.8128C344.996 77.1842 345.492 77.9762 346.11 78.4864C346.559 78.8322 347.079 79.0735 347.632 79.1927C348.186 79.3119 348.759 79.3061 349.31 79.1755C350.414 78.9032 351.463 78.4397 352.407 77.8062C352.861 77.4634 353.406 77.2639 353.974 77.2334C354.36 77.2903 354.729 77.4292 355.057 77.6406C355.851 78.0303 356.561 78.5715 357.147 79.2337C358.458 80.8715 358.288 83.382 359 85.436C359.129 85.8074 359.344 86.2102 359.693 86.2504C359.908 86.2515 360.116 86.1753 360.28 86.0356C360.833 85.6354 361.3 85.1281 361.654 84.5439C362.008 83.9597 362.24 83.3105 362.338 82.6347C362.419 82.1156 362.428 81.5875 362.517 81.0684C362.63 80.5338 362.78 80.0075 362.965 79.4932C363.401 78.2881 363.603 77.0107 363.56 75.7298C363.551 75.6761 363.542 75.6135 363.533 75.5508Z" fill="black"/>
        </g>
        <path d="M335.217 111.458L334.912 115.543C334.868 116.098 333.807 129.308 325.984 144.747C319.27 157.988 306.206 175.235 281.542 184.928C279.617 185.688 277.62 186.398 275.549 187.058L273.24 179.808C279.037 177.984 284.622 175.541 289.898 172.523C302.469 165.265 312.244 154.905 319.06 141.574C322.676 134.477 325.254 126.896 326.713 119.065H298.652V111.458H335.217Z" fill="#48BABA"/>
        <path opacity="0.1" d="M278.521 184.932C303.181 175.239 316.249 157.997 322.958 144.756C330.781 129.317 331.847 116.116 331.887 115.552L332.191 111.467H335.324L335.02 115.552C334.979 116.107 333.914 129.317 326.091 144.756C319.378 157.997 306.314 175.239 281.654 184.932C279.729 185.693 277.73 186.404 275.656 187.067L275.352 186.114C276.432 185.729 277.488 185.335 278.521 184.932Z" fill="white"/>
        <path d="M229.147 179.808L226.837 187.058C224.764 186.395 222.765 185.684 220.84 184.923C196.18 175.23 183.112 157.988 176.403 144.747C168.58 129.308 167.514 116.107 167.474 115.543L167.17 111.458H203.717V119.065H175.651C177.118 126.897 179.703 134.478 183.326 141.574C190.143 154.905 199.913 165.265 212.484 172.519C217.76 175.54 223.347 177.984 229.147 179.808Z" fill="#48BABA"/>
        <path opacity="0.1" d="M223.857 184.932C199.197 175.239 186.128 157.997 179.419 144.756C171.596 129.317 170.531 116.116 170.491 115.552L170.186 111.467H167.054L167.358 115.552C167.398 116.107 168.463 129.317 176.287 144.756C183 157.997 196.064 175.239 220.724 184.932C222.649 185.693 224.648 186.404 226.721 187.067L227.026 186.114C225.948 185.729 224.892 185.335 223.857 184.932Z" fill="white"/>
        <path d="M293.411 249.886V290.908H208.971V249.886L211.657 246.306C239.02 236.596 244.565 211.272 245.67 201.252C245.835 199.868 245.929 198.476 245.952 197.082H256.394C256.417 198.476 256.511 199.868 256.676 201.252C257.799 211.272 263.344 236.605 290.69 246.306L293.411 249.886Z" fill="#48BABA"/>
        <path opacity="0.1" d="M293.411 249.886H208.971V255.032H293.411V249.886Z" fill="black"/>
        <path opacity="0.1" d="M216.132 246.306C243.495 236.596 249.041 211.272 250.146 201.252C250.311 199.868 250.405 198.476 250.428 197.082H245.952C245.929 198.476 245.835 199.868 245.67 201.252C244.547 211.272 239.002 236.605 211.657 246.306L208.971 249.886V290.908H213.447V249.886L216.132 246.306Z" fill="white"/>
        <path opacity="0.1" d="M196.144 111.458H203.717V119.065H196.816C196.544 116.559 196.32 114.023 196.144 111.458Z" fill="black"/>
        <path opacity="0.1" d="M229.147 179.808L226.838 187.058C224.764 186.395 222.765 185.684 220.84 184.923C217.675 181.058 214.877 176.905 212.484 172.519C217.76 175.54 223.347 177.984 229.147 179.808Z" fill="black"/>
        <path opacity="0.1" d="M273.235 179.808C279.033 177.984 284.618 175.541 289.893 172.523C287.499 176.91 284.702 181.064 281.537 184.932C279.613 185.693 277.615 186.403 275.545 187.062L273.235 179.808Z" fill="black"/>
        <path opacity="0.1" d="M306.233 111.458C306.057 114.023 305.833 116.559 305.562 119.065H298.665V111.458H306.233Z" fill="black"/>
        <path opacity="0.1" d="M256.694 201.252C253.059 201.957 249.323 201.957 245.689 201.252C245.853 199.868 245.947 198.476 245.971 197.082H256.412C256.435 198.476 256.529 199.868 256.694 201.252Z" fill="black"/>
        <path d="M197.04 98.8562C197.232 155.268 221.4 200.885 251.193 200.885C280.987 200.885 305.15 155.268 305.347 98.8562H197.04Z" fill="#48BABA"/>
        <path opacity="0.1" d="M206.662 98.8562H197.04C197.232 155.268 221.4 200.885 251.193 200.885C252.806 200.882 254.415 200.746 256.005 200.478C228.462 195.878 206.845 152.198 206.662 98.8562Z" fill="white"/>
        <path d="M279.908 265.589H222.474V280.356H279.908V265.589Z" fill="#3F3D56"/>
        <path opacity="0.1" d="M225.159 267.603H279.908V265.589H222.474V280.356H225.159V267.603Z" fill="white"/>
        <path d="M166.409 153.321C165.375 152.977 159.289 148.161 158.828 145.982C158.367 143.803 162.046 123.5 162.046 123.5C162.046 123.5 161.705 123.5 161.15 123.433V123.106L161.907 96.4354C161.907 96.4354 165.008 78.5356 159.15 79.5783C153.291 80.6209 156.966 96.4354 156.966 96.4354C156.966 96.4354 156.299 104.464 155.829 106.871C155.381 109.194 153.332 118.654 154.728 121.594C154.779 121.698 154.836 121.8 154.898 121.898C154.898 121.898 155.131 131.989 152.602 133.367C150.19 134.678 149.187 141.279 149.102 141.87L148.973 141.816C148.252 141.365 147.62 140.788 147.106 140.111C147.053 140.044 147.012 139.972 146.963 139.901C148.61 138.048 149.497 135.643 149.448 133.166C149.399 130.688 148.417 128.32 146.699 126.534C145.9 125.704 144.962 125.02 143.929 124.511C143.899 123.656 143.696 122.816 143.333 122.041C142.17 119.553 135.725 116.3 131.147 116.224C129.034 116.161 127.302 116.761 126.671 118.412C126.349 119.249 126.447 120.202 126.313 121.07C126.044 122.86 124.894 124.261 123.417 125.375C122.821 124.709 122.176 124.089 121.488 123.518C119.993 122.372 117.013 118.595 117.013 118.595C117.013 118.595 107.708 108.961 107.019 106.321C106.33 103.68 97.0341 87.8256 94.9664 90.5867C92.8987 93.3477 102.087 105.381 102.087 105.381C102.087 105.381 103.832 109.753 105.175 111.23C106.518 112.706 116.811 127.653 116.811 127.653L117.304 128.673C115.129 129.819 113.141 131.277 112.439 133.551C111.409 136.898 113.661 140.263 115.218 143.396C118.253 149.508 118.687 157.304 114.771 162.889C111.262 167.82 105.175 170.165 99.4777 172.214C102.229 174.375 105.647 175.509 109.145 175.423C107.829 179.236 103.166 180.498 99.1913 181.205C101.277 183.209 104.262 183.939 107.126 184.382C108.529 184.621 109.951 184.733 111.374 184.717H111.723L112.072 184.691C112.557 184.658 113.04 184.597 113.517 184.507C115.585 184.086 117.595 182.959 118.651 181.133C119.546 179.571 119.859 177.441 121.484 176.658C121.907 176.467 122.363 176.359 122.827 176.34H122.777C123.082 176.34 123.395 176.34 123.699 176.34L130.471 176.407C130.753 176.407 131.044 176.407 131.334 176.407C133.246 176.363 135.286 176.032 136.258 174.452C136.657 173.685 136.867 172.833 136.871 171.968C137.014 169.825 136.871 167.619 136.929 165.457C137.506 169.391 138.11 175.521 136.674 177.786C135.507 179.501 134.092 181.035 132.476 182.337C132.069 182.678 131.697 183.059 131.366 183.473C131.146 183.63 131.017 183.715 131.017 183.715L130.878 184.131C130.368 184.905 129.998 185.762 129.786 186.664C129.708 186.896 129.679 187.141 129.701 187.384C129.858 187.702 128.582 189.013 128.953 189.564C125.767 193.3 125.163 198.961 125.163 198.961L119.345 207.795C116.355 215.648 111.879 216.454 111.879 216.454C111.879 216.454 101.366 209.401 101.08 209.057C100.793 208.712 96.7745 206.989 96.7745 206.989C96.3006 206.158 95.5772 205.498 94.7068 205.101C93.3283 204.528 93.212 202.416 93.212 202.416C93.0419 197.426 90.1104 197.046 90.1104 197.046C87.7473 196.845 85.9437 197.265 84.5563 198.035L84.1356 198.066C82.1037 198.232 79.6601 198.415 76.9748 198.594C69.5051 199.087 67.7283 203.924 67.7283 203.924C67.7283 203.924 66.8108 204.958 68.0148 206.076C69.2187 207.195 76.9255 206.076 77.2522 206.05C76.6649 206.113 76.0709 206.072 75.4978 205.929C76.7107 205.884 78.3801 205.839 79.8033 205.839H80.1479C80.0583 206.594 80.015 207.353 80.0181 208.113C80.0181 209.544 83.979 210.462 83.979 210.462L96.0405 221.202C96.0405 221.202 103.622 224.589 108.447 229.463C113.271 234.336 117.536 230.129 117.536 230.129C122.643 228.867 137.336 211.106 137.35 211.088C137.35 211.607 137.658 228.881 138.245 232.349C138.268 232.525 138.312 232.698 138.374 232.864C139.064 234.354 138.142 238.426 137.743 240.144C137.489 241.582 137.392 243.044 137.453 244.503C137.453 244.503 131.943 265.535 132.4 267.383C132.856 269.232 129.414 277.819 129.414 277.819V284.979L130.014 284.948C129.936 285.063 129.864 285.182 129.799 285.306L129.759 285.382C129.759 285.382 133.433 286.183 135.904 285.954C138.374 285.726 142.617 287.856 142.617 287.856C142.617 287.856 144.054 288.536 148.476 288.823C152.898 289.109 152.898 286.872 152.898 286.872C152.392 283.824 145.406 282.804 145.191 282.773C144.627 282.419 144.099 282.034 143.665 281.703L143.575 281.632C143.604 281.565 143.63 281.496 143.651 281.426C144.399 278.383 140.263 277.063 140.263 277.063V276.32C142.948 274.942 143.481 265.481 143.481 265.481C143.481 265.481 147.509 253.784 148.073 251.833C148.637 249.882 148.073 246.96 148.073 246.96L148.476 244.436C148.476 244.436 149.34 242.717 149.34 242.373C149.451 241.499 149.787 240.67 150.315 239.965C150.946 239.218 149.626 237.441 149.626 237.441L150.776 234.461V231.19L153.461 219.322C153.461 219.322 156.277 205.499 155.301 200.975C154.325 196.451 156.451 194.151 156.451 194.151C156.259 194.251 156.062 194.341 155.86 194.419C156.129 193.798 156.361 193.161 156.554 192.513L162.596 193.26V193.35H164.776C164.776 193.35 164.086 184.847 164.086 181.419C164.086 177.992 166.409 165.69 166.409 165.69C166.409 165.69 167.443 153.666 166.409 153.321ZM139.587 143.396C139.587 143.731 139.556 144.08 139.534 144.438L139.413 144.622L139.189 144.434L138.916 144.859L138.835 144.899C138.245 144.595 137.94 142.854 137.515 143.23L137.457 143.279C137.363 143.172 137.269 143.141 137.171 143.23L137.081 143.306C137.081 143.176 137.081 143.042 137.081 142.908C137.9 143.119 138.742 143.225 139.587 143.226C139.592 143.284 139.587 143.342 139.587 143.396ZM159.682 182.99H159.812L159.597 183.554C159.624 183.366 159.651 183.182 159.682 182.99ZM137.623 284.469L136.799 284.263L137.247 284.187L137.663 284.46L137.712 284.496L137.623 284.469ZM146.037 283.265C145.764 283.122 145.486 282.956 145.218 282.786C145.307 282.835 145.661 283.019 146.037 283.265Z" fill="url(#paint1_linear)"/>
        <path d="M162.654 174.537L157.234 188.66H158.55L153.452 192.723L162.654 193.869V174.537Z" fill="#F86D70"/>
        <path opacity="0.1" d="M162.654 174.537L157.234 188.66L155.869 188.293L153.452 192.723L162.654 193.869V174.537Z" fill="black"/>
        <path d="M154.155 183.572H162.654L165.773 157.908H154.155V183.572Z" fill="#F86D70"/>
        <path opacity="0.1" d="M154.155 183.572H162.654L165.773 157.908H154.155V183.572Z" fill="black"/>
        <path d="M137.555 163.985L139.39 163.676L143.606 162.96C143.606 162.96 156.267 160.105 158.881 159.872C160.464 159.663 162.009 159.223 163.464 158.566C164.149 158.27 164.583 158.047 164.583 158.047L160.022 149.719L152.947 144.474C152.947 144.474 148.471 143.521 146.578 140.917C146.155 140.356 145.88 139.699 145.778 139.004C145.675 138.31 145.749 137.601 145.992 136.943C147.146 133.363 139.095 140.366 139.095 140.366C139.095 140.366 139.171 142.044 139.095 144.183C139.095 144.604 139.055 145.042 139.023 145.49C139.023 145.785 138.983 146.081 138.952 146.385C138.755 148.511 138.352 150.699 137.555 152.005C135.608 155.201 137.555 163.985 137.555 163.985Z" fill="#FBBEBE"/>
        <path opacity="0.1" d="M139.095 144.362H139.274C139.596 144.362 139.856 143.678 140.169 143.646C142.689 143.405 144.989 142.877 146.587 141.091C146.165 140.531 145.891 139.874 145.789 139.181C145.686 138.488 145.759 137.78 146.001 137.122C147.155 133.542 139.104 140.541 139.104 140.541C139.104 140.541 139.189 142.223 139.095 144.362Z" fill="black"/>
        <path d="M129.293 134.213C129.293 135.501 129.546 136.777 130.039 137.967C130.532 139.158 131.254 140.239 132.166 141.15C133.077 142.061 134.158 142.784 135.349 143.277C136.539 143.769 137.815 144.023 139.104 144.022C139.426 144.022 139.744 144.022 140.062 143.977C141.952 143.792 143.748 143.062 145.231 141.876C146.714 140.69 147.822 139.098 148.418 137.295C149.014 135.492 149.074 133.555 148.591 131.718C148.108 129.882 147.101 128.225 145.694 126.949C144.287 125.673 142.54 124.833 140.665 124.531C138.79 124.229 136.867 124.477 135.131 125.247C133.394 126.016 131.918 127.272 130.882 128.864C129.846 130.456 129.294 132.314 129.293 134.213Z" fill="#FBBEBE"/>
        <path d="M126.281 119.325C125.959 120.157 126.058 121.088 125.928 121.97C125.449 125.151 122.213 127.058 119.286 128.391C116.359 129.725 113.056 131.304 112.125 134.379C111.105 137.704 113.334 141.037 114.882 144.156C117.899 150.233 118.328 157.984 114.435 163.542C110.975 168.464 104.947 170.8 99.2716 172.85C102.003 174.998 105.397 176.128 108.872 176.045C107.569 179.835 102.937 181.093 98.9896 181.791C101.062 183.787 104.029 184.512 106.871 184.95C108.943 185.272 111.069 185.483 113.137 185.066C115.204 184.65 117.165 183.527 118.23 181.71C119.125 180.157 119.429 178.041 121.045 177.258C121.774 176.971 122.56 176.856 123.341 176.922L130.054 176.994C132.144 176.994 134.619 176.833 135.698 175.047C136.096 174.284 136.304 173.437 136.307 172.577C136.597 168.174 135.752 163.52 137.564 159.501C138.11 158.288 134.606 156.369 134.973 155.084C136.235 150.667 136.553 147.19 136.539 142.595C136.539 139.037 138.853 135.972 140.764 132.969C142.675 129.966 144.273 126.176 142.765 122.954C141.064 119.361 128.291 114.138 126.281 119.325Z" fill="#3F3D56"/>
        <path d="M135.219 283.18L136.929 284.312L137.193 284.486L137.242 284.518L139.269 285.86L144.004 286.657L148.167 286.37C148.167 286.37 149.366 283.864 147.482 283.923C146.878 283.892 146.29 283.722 145.763 283.426L145.504 283.296C145.231 283.153 144.958 282.992 144.689 282.822C144.13 282.468 143.602 282.083 143.176 281.757C142.55 281.273 142.134 280.906 142.134 280.906L135.219 283.18Z" fill="#FBBEBE"/>
        <path opacity="0.1" d="M136.951 284.312L137.215 284.487L137.264 284.518L139.292 285.86L144.027 286.657L148.189 286.371C148.189 286.371 149.389 283.865 147.504 283.923C146.901 283.892 146.313 283.722 145.786 283.426C146.117 283.686 146.394 283.968 146.421 284.205C146.497 284.845 143.342 285.995 143.342 285.995L138.893 284.818C138.893 284.818 138.137 284.603 137.103 284.334L137.005 284.308L136.951 284.312Z" fill="black"/>
        <path d="M129.343 285.404C129.343 285.404 132.99 286.2 135.443 285.972C137.895 285.744 142.12 287.856 142.12 287.856C142.12 287.856 143.548 288.527 147.938 288.814C152.329 289.1 152.329 286.872 152.329 286.872C151.828 283.842 144.891 282.844 144.676 282.8C144.761 282.844 145.123 283.028 145.49 283.274C145.983 283.596 146.515 284.017 146.556 284.357C146.632 284.992 143.476 286.147 143.476 286.147L139.028 284.974C139.028 284.974 138.271 284.755 137.237 284.487H137.139C135.606 284.069 134.049 283.748 132.476 283.524C130.56 283.319 129.58 284.948 129.378 285.314C129.364 285.343 129.352 285.373 129.343 285.404Z" fill="#3F3D56"/>
        <path d="M71.85 204.931L73.7879 206.417C73.7879 206.417 74.3518 206.39 75.1932 206.363H75.4617C76.6656 206.318 78.3261 206.273 79.7358 206.273C80.6472 206.232 81.5603 206.283 82.4614 206.425C83.4282 206.766 85.1468 200.894 85.1468 200.894L83.2044 200.447L82.5599 200.295L82.1123 200.187L80.5325 199.816L75.7437 200.362L72.3781 202.528L71.85 204.931Z" fill="#FBBEBE"/>
        <path opacity="0.1" d="M71.85 204.931L73.7879 206.417C73.7879 206.417 74.3518 206.39 75.1932 206.363C74.8071 206.214 74.4887 205.929 74.2981 205.562C73.0449 202.085 79.2615 200.599 79.2615 200.599L82.1571 200.474L82.721 200.447H83.1686L82.5241 200.295L82.0766 200.187L80.4967 199.816L75.7079 200.362L72.3423 202.528L71.85 204.931Z" fill="black"/>
        <path d="M68.0279 206.501C69.2005 207.584 76.8805 206.501 77.2027 206.475C76.6199 206.54 76.0299 206.499 75.4618 206.354C75.1805 206.303 74.9139 206.191 74.6817 206.025C74.4494 205.858 74.2572 205.642 74.1191 205.392C72.866 201.91 79.0825 200.429 79.0825 200.429L81.9781 200.304L82.5376 200.277L89.5776 199.973L89.9177 198.035C89.9177 198.035 87.6307 198.25 84.0413 198.536C82.0229 198.702 79.5658 198.885 76.9118 199.06C69.4959 199.552 67.7325 204.362 67.7325 204.362C67.7325 204.362 66.833 205.392 68.0279 206.501Z" fill="#3F3D56"/>
        <path d="M154.159 122.507C154.207 122.613 154.264 122.715 154.329 122.811L156.039 125.317L160.488 125.764L160.537 124.001L161.284 97.4736C161.284 97.4736 164.364 79.6812 158.545 80.706C152.727 81.7307 156.379 97.4736 156.379 97.4736C156.379 97.4736 155.717 105.457 155.251 107.856C154.799 110.174 152.772 119.598 154.159 122.507Z" fill="#FBBEBE"/>
        <path d="M144.174 188.396L145.441 190.562L148.274 195.408C148.274 195.408 153.412 197.292 154.728 195.855C155.448 195.072 156.227 192.338 156.773 190.038C157.221 188.176 157.52 186.606 157.52 186.606L144.174 188.396Z" fill="#FBBEBE"/>
        <path opacity="0.1" d="M144.174 188.396L145.441 190.562C145.52 190.493 145.592 190.417 145.656 190.333C147.088 188.508 153.394 189.944 156.773 190.06C157.221 188.199 157.52 186.628 157.52 186.628L144.174 188.396Z" fill="black"/>
        <path opacity="0.1" d="M79.7358 206.264C80.6472 206.223 81.5603 206.274 82.4614 206.417C83.4281 206.757 85.1467 200.885 85.1467 200.885L82.5599 200.277L89.5999 199.973L89.94 198.035C89.94 198.035 87.653 198.25 84.0637 198.536C83.322 198.963 82.6602 199.516 82.1079 200.169L82.0005 200.304C80.5012 202.143 79.9462 204.515 79.7358 206.264Z" fill="black"/>
        <path opacity="0.1" d="M135.219 283.18L137.193 284.487C140.138 283.954 142.827 283.117 143.145 281.802C143.147 281.781 143.147 281.76 143.145 281.739C142.519 281.256 142.102 280.889 142.102 280.889L135.219 283.18Z" fill="black"/>
        <path opacity="0.1" d="M129.383 285.328C131.984 285.199 134.575 284.921 137.144 284.496C135.609 284.075 134.05 283.751 132.476 283.524C130.565 283.319 129.584 284.947 129.383 285.328Z" fill="black"/>
        <path d="M79.9507 208.524C79.9507 209.952 83.8847 210.865 83.8847 210.865L95.8657 221.528C95.8657 221.528 103.393 224.894 108.182 229.74C112.971 234.586 117.196 230.425 117.196 230.425C122.271 229.172 136.888 211.491 136.888 211.491C136.888 211.491 137.228 231.682 137.913 233.163C138.598 234.645 137.685 238.694 137.287 240.408C137.035 241.838 136.939 243.29 137 244.74C137 244.74 131.527 265.669 131.983 267.495C132.44 269.321 129.016 277.877 129.016 277.877V285.006C129.016 285.006 142.42 284.491 143.159 281.471C143.897 278.45 139.797 277.134 139.797 277.134V276.391C142.483 275.022 142.988 265.616 142.988 265.616C142.988 265.616 146.985 253.981 147.553 252.043C148.122 250.106 147.553 247.192 147.553 247.192L147.952 244.686C147.952 244.686 148.807 242.972 148.807 242.632C148.918 241.764 149.253 240.939 149.778 240.238C150.404 239.495 149.093 237.728 149.093 237.728L150.234 234.761V231.512L152.92 219.707C152.92 219.707 155.717 205.96 154.746 201.454C153.774 196.947 155.887 194.67 155.887 194.67C151.308 197.068 148.999 191.73 148.243 189.434C148.05 188.843 147.956 188.45 147.956 188.45C147.956 188.45 141.668 186.131 135.814 186.686C134.625 186.783 133.454 187.031 132.328 187.425C125.825 189.765 124.8 199.458 124.8 199.458L119.04 208.242C116.073 216.056 111.624 216.852 111.624 216.852C111.624 216.852 101.187 209.84 100.883 209.495C100.578 209.151 96.6041 207.441 96.6041 207.441C96.1342 206.614 95.4153 205.957 94.5498 205.562C93.1803 204.989 93.0685 202.877 93.0685 202.877C92.8984 197.914 89.9893 197.507 89.9893 197.507C79.8925 196.666 79.9507 207.101 79.9507 208.524Z" fill="#3F3D56"/>
        <path d="M138.016 180.641H144.175V161.537H138.016V180.641Z" fill="#F86D70"/>
        <path opacity="0.1" d="M138.016 180.641H144.175V161.537H138.016V180.641Z" fill="black"/>
        <path opacity="0.1" d="M154.155 122.466C154.154 122.48 154.154 122.493 154.155 122.507C154.202 122.613 154.259 122.715 154.325 122.811L156.035 125.317L160.483 125.764L160.532 124.001C159.145 123.894 155.985 123.513 154.155 122.466Z" fill="black"/>
        <path d="M154.329 122.811C154.329 122.811 154.558 132.844 152.047 134.213C149.536 135.582 148.561 142.715 148.561 142.715C148.561 142.715 156.169 147.718 157.865 149.92C159.561 152.122 163.455 157.366 162.654 158.619C161.853 159.872 164.596 165.578 164.596 165.578C164.596 165.578 159.575 175.844 160.716 179.723C161.857 183.603 161.969 193.864 161.969 193.864H164.14C164.14 193.864 163.455 185.424 163.455 182.001C163.455 178.578 165.733 166.375 165.733 166.375C165.733 166.375 166.763 154.4 165.733 154.059C164.704 153.719 158.662 148.927 158.205 146.756C157.749 144.586 161.401 124.382 161.401 124.382C161.401 124.382 156.724 124.18 154.329 122.811Z" fill="#F86D70"/>
        <path opacity="0.1" d="M137.9 159.765C138.108 161.161 138.616 162.496 139.39 163.676L143.606 162.96C143.606 162.96 156.267 160.105 158.881 159.872C160.464 159.663 162.008 159.223 163.464 158.566C162.461 155.011 160.503 151.8 157.802 149.28L156.196 147.79C153.828 145.592 151.084 143.838 148.095 142.613C148.283 142.769 161.566 154.109 158.657 156.333C155.748 158.557 147.916 153.142 147.916 153.142L139.01 145.49L138.687 145.212L138.173 146.014C138.435 146.121 138.69 146.244 138.938 146.38C141.973 148.046 144.226 150.846 145.204 154.167C147.034 160.32 137.9 159.765 137.9 159.765Z" fill="black"/>
        <path d="M135.161 188.279C135.161 188.279 143.602 192.956 145.652 190.333C146.099 189.756 147.043 189.506 148.22 189.438C148.028 188.848 147.934 188.454 147.934 188.454C147.934 188.454 141.646 186.136 135.792 186.691C135.407 187.657 135.161 188.279 135.161 188.279Z" fill="#444053"/>
        <path d="M139.046 145.221L148.274 153.16C148.274 153.16 156.075 158.593 159.015 156.351C161.956 154.109 148.449 142.626 148.449 142.626C151.431 143.855 154.173 145.604 156.545 147.79L158.152 149.28C162.377 153.196 163.33 153.196 163.473 158.951C163.509 160.369 163.026 162.405 162.654 162.772C161.285 164.115 160.327 173.866 160.537 175.007C160.747 176.148 157.986 185.997 158.881 188.736C159.776 191.475 147.692 187.367 145.647 189.993C143.602 192.62 135.161 187.939 135.161 187.939C135.161 187.939 139.838 175.96 140.979 175.163C142.12 174.367 143.49 168.205 140.979 165.354C138.468 162.504 138.245 159.765 138.245 159.765C138.245 159.765 147.375 160.329 145.544 154.176C145.029 152.392 144.136 150.741 142.925 149.334C141.714 147.927 140.214 146.797 138.526 146.022L139.046 145.221Z" fill="#E8E8F0"/>
        <path opacity="0.1" d="M151.362 165.412C151.362 165.412 147.822 172.085 143.244 173.816C143.096 173.87 142.953 173.919 142.796 173.964C138.016 175.418 151.72 167.48 151.362 165.412Z" fill="black"/>
        <path d="M101.854 106.383C101.854 106.383 103.564 110.72 104.933 112.201C106.303 113.682 116.453 128.512 116.453 128.512L117.312 130.302L118.051 131.828L124.554 131.143L125.001 128.521L124.751 128.217C124.097 127.433 122.316 125.33 121.121 124.413C119.64 123.276 116.672 119.513 116.672 119.513C116.672 119.513 107.435 109.927 106.75 107.305C106.065 104.683 96.8235 88.9578 94.7738 91.6785C92.724 94.3993 101.854 106.383 101.854 106.383Z" fill="#FBBEBE"/>
        <g opacity="0.1">
            <path opacity="0.1" d="M120.723 176.922C119.942 176.855 119.157 176.968 118.427 177.253C116.816 178.036 116.511 180.153 115.616 181.706C114.569 183.523 112.573 184.646 110.519 185.062C110.11 185.141 109.698 185.198 109.283 185.232C110.592 185.359 111.912 185.302 113.204 185.062C115.258 184.646 117.254 183.523 118.302 181.706C119.197 180.153 119.501 178.036 121.112 177.253C121.535 177.063 121.991 176.956 122.455 176.94L120.723 176.922Z" fill="black"/>
            <path opacity="0.1" d="M136.62 142.595C136.62 139.037 138.934 135.972 140.84 132.969C142.747 129.966 144.349 126.176 142.841 122.954C141.552 120.202 133.782 116.51 129.298 117.24C133.688 117.808 139.099 120.699 140.156 122.954C141.664 126.176 140.062 129.966 138.155 132.969C136.248 135.972 133.926 139.037 133.935 142.595C133.935 147.186 133.626 150.65 132.364 155.084C132.001 156.36 135.497 158.288 134.959 159.497C133.142 163.524 133.993 168.169 133.702 172.572C133.696 173.433 133.486 174.279 133.089 175.043C132.194 176.515 130.359 176.895 128.573 176.976H130.135C132.22 176.976 134.695 176.815 135.774 175.029C136.171 174.266 136.381 173.419 136.387 172.559C136.678 168.156 135.828 163.506 137.645 159.483C138.191 158.275 134.686 156.351 135.049 155.071C136.311 150.667 136.629 147.186 136.62 142.595Z" fill="black"/>
        </g>
        <path opacity="0.1" d="M117.312 130.293L118.051 131.819L124.554 131.134L125.001 128.512L124.751 128.208C124.057 128.548 118.861 131.049 117.312 130.293Z" fill="black"/>
        <path opacity="0.1" d="M141.324 147.445C141.324 147.445 139.726 144.939 138.813 145.619C137.9 146.3 137.546 143.565 137.023 144.022C136.499 144.478 134.973 145.749 134.337 143.973C133.841 142.559 128.434 133.613 126.241 130.015C125.677 129.085 125.324 128.512 125.324 128.512C125.324 128.512 119.165 131.59 117.684 130.566V132.732L118.937 132.848L125.65 145.378C125.65 145.378 127.763 148.739 127.62 149.911C127.476 151.083 130.327 156.216 130.784 156.556C131.24 156.896 136.154 162.602 136.154 162.602C136.154 162.602 138.665 174.922 136.495 178.345C134.324 181.768 130.565 184.274 130.565 184.274C130.565 184.274 129.432 187.581 129.598 187.926C129.763 188.27 128.282 189.751 128.967 190.208C129.651 190.664 130.565 193.855 130.565 193.855C130.565 193.855 133.76 188.722 135.488 187.926C137.215 187.129 139.426 176.631 139.426 176.631C139.426 176.631 140.057 170.447 140.106 166.455C140.156 162.463 139.954 147.445 141.324 147.445Z" fill="black"/>
        <path d="M140.979 147.445C140.979 147.445 139.386 144.939 138.473 145.619C137.56 146.3 137.202 143.565 136.682 144.022C136.163 144.478 134.637 145.749 133.997 143.973C133.496 142.559 128.089 133.613 125.901 130.015L124.983 128.512C124.983 128.512 118.825 131.59 117.339 130.566V132.732L118.597 132.848L125.31 145.378C125.31 145.378 127.427 148.739 127.279 149.911C127.132 151.083 129.965 156.216 130.444 156.556C130.922 156.896 135.814 162.602 135.814 162.602C135.814 162.602 138.325 174.922 136.159 178.345C135.015 180.064 133.623 181.605 132.028 182.918C130.688 184.023 129.746 185.534 129.343 187.223C129.265 187.453 129.237 187.697 129.262 187.939C129.428 188.279 127.946 189.765 128.631 190.221C129.316 190.678 130.238 193.882 130.238 193.882C130.238 193.882 133.433 188.749 135.161 187.953C136.888 187.156 139.104 176.658 139.104 176.658C139.104 176.658 139.73 170.473 139.784 166.482C139.838 162.49 139.636 147.445 140.979 147.445Z" fill="#F86D70"/>
        <path opacity="0.1" d="M125.35 199.346C125.35 199.346 130.144 200.241 132.064 201.624C133.984 203.006 124.764 199.458 124.764 199.458L125.35 199.346Z" fill="black"/>
        <path opacity="0.1" d="M136.875 211.491C136.875 211.491 141.874 215.657 140.979 219.421C140.084 223.184 137.774 232.653 137.774 232.653L136.875 211.491Z" fill="black"/>
        <path opacity="0.1" d="M93.1534 203.481C93.1534 203.481 86.109 204.251 86.5655 205.164C87.022 206.076 93.1534 204.322 93.1534 204.322V203.481Z" fill="black"/>
        <path opacity="0.1" d="M147.245 238.126C147.245 238.126 147.692 238.694 145.079 238.126C142.465 237.558 144.394 235.803 144.394 235.803L147.245 238.126Z" fill="black"/>
        <path opacity="0.1" d="M146.35 245.997C146.35 245.997 142.769 246.566 140.849 245.997C138.929 245.429 146.35 245.997 146.35 245.997Z" fill="black"/>
        <path opacity="0.1" d="M138.983 276.794C138.983 276.794 138.356 276.109 135.219 277.362C132.082 278.615 130.829 278.674 129.916 278.257C129.003 277.841 138.983 276.794 138.983 276.794Z" fill="black"/>
        <path opacity="0.1" d="M142.465 202.51L138.016 208.699C138.016 208.699 140.411 203.279 142.465 202.51Z" fill="black"/>
        <path opacity="0.1" d="M133.818 145.62C133.818 145.62 133.626 147.674 130.757 148.475C127.888 149.276 127.342 149.925 127.342 149.925" fill="black"/>
        <path opacity="0.1" d="M126.362 130.731C126.362 130.731 122.576 133.416 118.624 132.848L126.362 130.731Z" fill="black"/>
        <path opacity="0.1" d="M129.244 188.221C129.244 188.221 130.35 188.915 133.004 185.881L129.244 188.221Z" fill="black"/>
        <path opacity="0.1" d="M156.809 156.051C156.916 155.496 156.531 154.981 156.169 154.547L155.426 153.652C155.281 153.469 155.117 153.301 154.938 153.151C154.491 152.806 153.918 152.704 153.452 152.395" fill="black"/>
        <path opacity="0.1" d="M397.109 0.0493043C397.109 0.0493043 359.429 -2.22397 363.86 24.1783C363.86 24.1783 362.965 28.8457 367.208 30.9623C367.208 30.9623 367.275 29.0068 371.075 29.6735C372.427 29.8977 373.802 29.9638 375.17 29.8704C377.018 29.7428 378.774 29.0171 380.173 27.803C380.173 27.803 390.767 23.4265 394.884 6.11735C394.884 6.11735 397.932 2.34049 397.811 1.36942L391.452 4.08572C391.452 4.08572 393.627 8.67255 391.899 12.4852C391.899 12.4852 391.693 4.25129 390.472 4.43029C390.225 4.47056 387.169 6.0189 387.169 6.0189C387.169 6.0189 390.906 14.0067 388.086 19.8152C388.086 19.8152 389.156 9.97029 386 6.59617L381.525 9.20955C381.525 9.20955 385.893 17.4614 382.93 24.1962C382.93 24.1962 383.691 13.868 380.581 9.84499L376.526 13.0088C376.526 13.0088 380.63 21.1443 378.128 26.729C378.128 26.729 377.801 14.7048 375.649 13.7964C375.649 13.7964 372.099 16.9288 371.558 18.2087C371.558 18.2087 374.369 24.1156 372.623 27.2302C372.623 27.2302 371.553 19.22 370.676 19.1753C370.676 19.1753 367.141 24.4826 366.774 28.1252C366.774 28.1252 366.926 22.715 369.821 18.6741C369.821 18.6741 366.402 19.2603 364.406 21.4754C364.406 21.4754 364.957 17.7254 370.694 17.3987C370.694 17.3987 373.617 13.3713 374.395 13.1251C374.395 13.1251 368.694 12.6508 365.234 14.1812C365.234 14.1812 368.277 10.6415 375.443 12.2525L379.448 8.98132C379.448 8.98132 371.938 7.95656 368.752 9.08872C368.752 9.08872 372.417 5.95625 380.527 8.23848L384.886 5.63405C384.886 5.63405 378.482 4.25577 374.668 4.73906C374.668 4.73906 378.696 2.56871 386.166 4.92254L389.299 3.52187C389.299 3.52187 384.609 2.60003 383.235 2.45236C381.861 2.30468 381.789 1.92879 381.789 1.92879C384.761 1.43334 387.811 1.77262 390.601 2.90881C390.601 2.90881 397.225 0.465475 397.109 0.0493043Z" fill="#48BABA"/>
        <path opacity="0.1" d="M350.635 6.76618C350.635 6.76618 333.628 5.73694 335.62 17.6672C335.62 17.6672 335.221 19.7794 337.128 20.737C337.128 20.737 337.159 19.842 338.878 20.1508C339.488 20.2535 340.109 20.2835 340.726 20.2403C341.562 20.1835 342.355 19.8551 342.986 19.305C342.986 19.305 347.775 17.3316 349.637 9.50934C349.637 9.50934 351.011 7.7999 350.957 7.36135L348.084 8.58749C348.084 8.58749 349.069 10.6639 348.294 12.3867C348.294 12.3867 348.2 8.66357 347.65 8.75307C347.538 8.75307 346.155 9.46906 346.155 9.46906C346.155 9.46906 347.847 13.0803 346.571 15.7071C346.571 15.7071 347.055 11.259 345.627 9.73308L343.604 10.9145C343.604 10.9145 345.582 14.6421 344.24 17.6851C344.24 17.6851 344.584 13.0177 343.179 11.2009L341.348 12.6463C341.348 12.6463 343.201 16.3247 342.073 18.8441C342.073 18.8441 341.926 13.4115 340.95 13.0043C340.95 13.0043 339.348 14.4184 339.102 15.0001C339.102 15.0001 340.373 17.6851 339.585 19.0723C339.585 19.0723 339.102 15.4521 338.69 15.4387C338.69 15.4387 337.097 17.8372 336.927 19.4661C337.006 17.9459 337.482 16.4729 338.305 15.1925C337.383 15.3672 336.532 15.8073 335.857 16.4589C335.857 16.4589 336.108 14.7674 338.699 14.6153C338.699 14.6153 340.042 12.7984 340.373 12.6866C340.373 12.6866 337.795 12.4718 336.233 13.1654C336.233 13.1654 337.607 11.5633 340.847 12.2704L342.637 10.7936C342.637 10.7936 339.245 10.3462 337.804 10.8429C337.804 10.8429 339.46 9.42878 343.125 10.458L345.094 9.28111C345.094 9.28111 342.203 8.65461 340.476 8.88284C340.476 8.88284 342.297 7.89835 345.672 8.96339L347.082 8.33242C347.082 8.33242 344.96 7.91177 344.338 7.84912C343.716 7.78647 343.685 7.61195 343.685 7.61195C345.028 7.38848 346.407 7.54343 347.668 8.05945C347.668 8.05945 350.689 6.95413 350.635 6.76618Z" fill="#48BABA"/>
        <path d="M410.043 291.212C419.982 291.212 428.039 289.85 428.039 288.169C428.039 286.489 419.982 285.126 410.043 285.126C400.104 285.126 392.047 286.489 392.047 288.169C392.047 289.85 400.104 291.212 410.043 291.212Z" fill="#48BABA"/>
        <path d="M417.486 283.193C418.308 282.524 418.906 281.62 419.2 280.602C419.424 279.577 418.985 278.365 418.001 277.966C416.9 277.546 415.723 278.311 414.832 279.081C413.941 279.85 412.917 280.732 411.753 280.566C412.353 280.022 412.801 279.331 413.055 278.562C413.309 277.793 413.36 276.971 413.203 276.176C413.152 275.847 413.013 275.538 412.8 275.281C412.187 274.628 411.082 274.906 410.348 275.42C408.02 277.058 407.371 280.222 407.358 283.063C407.125 282.039 407.322 280.969 407.318 279.931C407.313 278.893 407.022 277.693 406.132 277.143C405.582 276.848 404.965 276.702 404.341 276.722C403.299 276.682 402.131 276.79 401.419 277.555C400.524 278.503 400.761 280.097 401.531 281.135C402.301 282.173 403.478 282.84 404.561 283.56C405.427 284.077 406.166 284.782 406.722 285.623C406.789 285.741 406.843 285.865 406.884 285.995H413.445C414.912 285.247 416.272 284.305 417.486 283.193Z" fill="#48BABA"/>
    </g>
    <defs>
        <linearGradient id="paint0_linear" x1="361.851" y1="225.954" x2="361.851" y2="45.9265" gradientUnits="userSpaceOnUse">
            <stop stop-color="#808080" stop-opacity="0.25"/>
            <stop offset="0.54" stop-color="#808080" stop-opacity="0.12"/>
            <stop offset="1" stop-color="#808080" stop-opacity="0.1"/>
        </linearGradient>
        <linearGradient id="paint1_linear" x1="17835.6" y1="112136" x2="39940.9" y2="112136" gradientUnits="userSpaceOnUse">
            <stop stop-color="#808080" stop-opacity="0.25"/>
            <stop offset="0.54" stop-color="#808080" stop-opacity="0.12"/>
            <stop offset="1" stop-color="#808080" stop-opacity="0.1"/>
        </linearGradient>
        <clipPath id="clip0">
            <rect width="512" height="292" fill="white"/>
        </clipPath>
    </defs>
</svg>
