<svg width="41" height="40" viewBox="0 0 41 40" fill="none" xmlns="http://www.w3.org/2000/svg">
<circle cx="20.5" cy="20" r="20" fill="#188E8E"/>
<path d="M17.3067 12.3567C17.4616 12.134 17.722 12 17.9997 12H22.9996C23.278 12 23.5384 12.1333 23.6926 12.356L25.112 14.3999H27.9994C28.6626 14.3999 29.298 14.6532 29.7674 15.1025C30.2368 15.5519 30.5 16.1632 30.5 16.7998V25.5994C30.5 26.2361 30.2361 26.846 29.7674 27.2967C29.2987 27.7473 28.6633 28 27.9994 28H12.9999C12.3367 28 11.7013 27.7467 11.2319 27.2967C10.7625 26.8467 10.5 26.2367 10.5 25.5994V16.7998C10.5 16.1632 10.7632 15.5532 11.2319 15.1025C11.7007 14.6519 12.3367 14.3999 12.9999 14.3999H15.8873L17.306 12.356L17.3067 12.3567ZM18.4456 13.5999L17.0269 15.6438C16.872 15.8665 16.6116 15.9998 16.3338 15.9998H13.0006C12.7798 15.9998 12.568 16.0845 12.411 16.2338C12.2541 16.3832 12.1666 16.5871 12.1666 16.7991V25.5988C12.1666 25.8108 12.2541 26.0141 12.411 26.1647C12.568 26.3154 12.7791 26.3994 12.9999 26.3994H27.9994C28.2202 26.3994 28.432 26.3147 28.589 26.1647C28.7459 26.0147 28.8334 25.8114 28.8334 25.5988V16.7991C28.8334 16.5865 28.7452 16.3838 28.589 16.2338C28.4327 16.0838 28.2209 15.9998 27.9994 15.9998H24.6662C24.3877 15.9998 24.1273 15.8665 23.9731 15.6438L22.5537 13.5999H18.4463H18.4456ZM20.4997 18.3997C19.1191 18.3997 17.9997 19.4744 17.9997 20.7996C17.9997 22.1249 19.1191 23.1995 20.4997 23.1995C21.8802 23.1995 22.9996 22.1249 22.9996 20.7996C22.9996 19.4744 21.8802 18.3997 20.4997 18.3997ZM16.3331 20.7996C16.3331 18.5904 18.1983 16.7998 20.4997 16.7998C22.801 16.7998 24.6662 18.5904 24.6662 20.7996C24.6662 23.0089 22.801 24.7995 20.4997 24.7995C18.1983 24.7995 16.3331 23.0089 16.3331 20.7996Z" fill="white"/>
</svg>
