<svg width="17" height="16" viewBox="0 0 17 16" fill="none" xmlns="http://www.w3.org/2000/svg">
    <path d="M16.5 8.049C16.5 3.6035 12.9183 0 8.5 0C4.08173 0 0.5 3.6035 0.5 8.049C0.5 12.0665 3.42543 15.3965 7.24966 16V10.3755H5.21854V8.049H7.24966V6.2755C7.24966 4.258 8.44373 3.144 10.2712 3.144C11.1466 3.144 12.0618 3.301 12.0618 3.301V5.282H11.053C10.0591 5.282 9.74935 5.9025 9.74935 6.539V8.049H11.9682L11.6137 10.3755H9.74984V16C13.5741 15.396 16.4995 12.0665 16.4995 8.049H16.5Z" fill="#1C2554"/>
</svg>
