<svg width="161" height="40" viewBox="0 0 161 40" fill="none" xmlns="http://www.w3.org/2000/svg">
    <g clip-path="url(#clip0)">
        <path d="M8.097 10.2423C8.19763 10.1905 8.29827 10.1461 8.39891 10.1017C7.29193 8.85104 7.24548 8.28119 7.44675 8.03696C8.12796 7.1785 10.0942 6.31264 12.9661 6.31264C14.584 6.31264 16.2716 6.60127 17.843 7.1489C20.4053 8.03696 22.0309 8.68823 23.107 9.11746C24.1752 9.54669 24.8254 9.8057 25.4757 9.93151C26.0021 10.0351 26.4665 10.0869 26.9 10.0869C27.171 10.0869 27.411 10.0647 27.6355 10.0277C27.5037 9.75391 27.3722 9.47268 27.2251 9.17666C27.0084 8.74002 26.7762 8.31819 26.5129 7.90375C26.335 7.88896 26.1414 7.85936 25.9324 7.81495C25.4835 7.72615 24.9105 7.49674 23.9663 7.1193C22.867 6.68267 21.2104 6.01662 18.6016 5.11374C16.7825 4.4847 14.8395 4.15167 12.9739 4.15167C9.73038 4.15167 6.94357 5.13596 5.68954 6.71967C4.52063 8.19977 5.37215 9.87231 6.40171 11.1452C6.93583 10.8196 7.50868 10.5088 8.097 10.2423Z" fill="#48BABA"/>
        <path d="M31.0106 7.75585C31.6221 7.25261 32.3266 6.77158 32.8374 6.77158C32.9459 6.77158 33.0308 6.80118 33.116 6.86038C34.6024 7.96307 35.7791 12.1962 34.0372 16.9473C33.1238 19.4339 32.4581 21.0103 32.0169 22.0538C31.5755 23.0973 31.3125 23.7262 31.1732 24.3553C30.9951 25.2064 30.9795 25.8798 31.0725 26.4423C31.3511 26.3165 31.6452 26.1758 31.9548 26.0353C32.4193 25.8205 32.8529 25.5912 33.2631 25.3469C33.2786 25.1842 33.3097 24.9992 33.356 24.7918C33.449 24.3627 33.6812 23.8002 34.076 22.8751C34.525 21.8168 35.2062 20.211 36.1351 17.6726C38.1478 12.1962 36.8318 6.90479 34.4708 5.14346C33.9908 4.78824 33.4412 4.60321 32.8374 4.60321C31.8 4.60321 30.7861 5.16565 29.9346 5.80951C30.2751 6.34975 30.5925 6.90479 30.8713 7.47464C30.9254 7.57825 30.964 7.66705 31.0106 7.75585Z" fill="#48BABA"/>
        <path d="M33.6968 29.5948C33.5883 29.6465 33.4954 29.691 33.3949 29.7353C34.5017 30.9862 34.5483 31.5484 34.3469 31.8001C33.6657 32.6586 31.6996 33.5244 28.8276 33.5244C27.2174 33.5244 25.5299 33.2358 23.9508 32.6881C21.3884 31.8001 19.7628 31.1489 18.6868 30.7271C17.6185 30.2978 16.9683 30.0389 16.318 29.9056C15.8149 29.802 15.3659 29.7577 14.9401 29.7577C14.6537 29.7577 14.3983 29.7872 14.166 29.8241C14.2976 30.0906 14.4292 30.3718 14.5763 30.6604C14.793 31.0972 15.0408 31.5189 15.2962 31.9333C15.4743 31.9482 15.66 31.9778 15.8613 32.0147C16.3103 32.1035 16.8831 32.3331 17.8353 32.7179C18.9268 33.1544 20.5834 33.8131 23.1997 34.7234C25.0113 35.3523 26.9619 35.6855 28.8276 35.6855C31.6377 35.6855 34.858 34.7013 36.1119 33.1175C37.2808 31.6373 36.4215 29.9649 35.3998 28.6918C34.858 29.0176 34.2928 29.321 33.6968 29.5948Z" fill="#48BABA"/>
        <path d="M10.76 32.0295C10.1098 32.5919 9.44406 33.1175 9.03378 33.1175C8.98733 33.1175 8.87895 33.1175 8.67768 32.9694C7.19914 31.8668 6.01476 27.6336 7.75649 22.8824C8.66994 20.3959 9.33568 18.8196 9.77691 17.7761C10.2182 16.74 10.4891 16.111 10.6207 15.4819C10.7987 14.6308 10.8142 13.9574 10.7213 13.395C10.4427 13.5208 10.1485 13.654 9.83884 13.802C9.37439 14.0166 8.94088 14.2534 8.53062 14.4976C8.51513 14.6604 8.48417 14.8455 8.43772 15.0453C8.34483 15.4745 8.11259 16.0369 7.71779 16.9546C7.26882 18.0203 6.58761 19.6262 5.65094 22.1647C3.646 27.6484 4.95423 32.9398 7.31526 34.6937C7.84165 35.0859 8.42224 35.2857 9.02603 35.2857C10.0711 35.2857 10.9536 34.7161 11.836 33.9907C11.5032 33.4652 11.1935 32.9177 10.9149 32.3552C10.8607 32.2367 10.8142 32.1405 10.76 32.0295Z" fill="#48BABA"/>
        <path d="M4.92318 21.5208C3.24338 21.4246 2.80987 21.2544 2.74796 20.7586C2.50023 18.9603 4.74513 15.1638 9.44396 12.9954C11.8979 11.8631 13.5235 11.2045 14.5995 10.7752C15.6678 10.346 16.3103 10.0796 16.8676 9.73174C17.6185 9.25072 18.1294 8.77708 18.47 8.31084C18.1759 8.20723 17.8662 8.09624 17.5411 7.98522C17.0766 7.82241 16.6045 7.6892 16.1322 7.57819C15.9929 7.6892 15.8381 7.80022 15.6446 7.91862C15.2652 8.16284 14.6924 8.39226 13.7403 8.77708C12.6488 9.22112 10.9922 9.88717 8.48406 11.0417C3.08081 13.5356 0.14695 18.1758 0.534004 21.0398C0.812682 23.0675 2.59313 23.5042 4.25746 23.6447C4.40454 23.0453 4.58259 22.446 4.79932 21.8613C4.84577 21.7428 4.88447 21.6318 4.92318 21.5208Z" fill="#48BABA"/>
        <path d="M19.2131 4.38117C19.3447 2.75304 19.7162 2.32381 20.0414 2.2794C20.1265 2.272 20.2194 2.26459 20.3201 2.26459C22.4954 2.26459 26.0716 4.75858 28.0456 8.79189C29.2145 11.1823 29.8879 12.7512 30.3371 13.7947C30.786 14.8307 31.0491 15.4598 31.4129 15.9926C31.9006 16.7179 32.3884 17.2063 32.8529 17.5319C32.9611 17.2507 33.0696 16.9621 33.1781 16.6513C33.356 16.1776 33.4953 15.7114 33.6115 15.2526C33.503 15.1268 33.3948 14.9787 33.2785 14.8085C33.0308 14.4385 32.791 13.8835 32.3962 12.9658C31.9395 11.9001 31.2505 10.3016 30.0583 7.86683C27.5888 2.81965 23.1996 0.103638 20.3201 0.103638C20.1265 0.103638 19.933 0.111038 19.755 0.140641C17.8584 0.384858 17.2391 2.14619 17.0378 3.74471C17.6649 3.89271 18.2919 4.06293 18.8957 4.27756C19.0041 4.30716 19.1125 4.34416 19.2131 4.38117Z" fill="#48BABA"/>
        <path d="M41.2596 18.79C41.0043 16.9399 39.2006 16.3478 37.5441 16.148C37.397 16.7623 37.2189 17.3691 36.9944 17.9759C36.9556 18.0722 36.9248 18.1684 36.8859 18.2646C38.558 18.3904 38.9994 18.753 39.0457 19.0712C39.2857 20.8695 37.0408 24.6734 32.3419 26.8418C29.888 27.9741 28.2625 28.6328 27.1865 29.0619C26.1181 29.4986 25.4757 29.7577 24.9183 30.1128C24.1597 30.5938 23.6566 31.0675 23.3159 31.5337C23.61 31.6373 23.9197 31.7485 24.2449 31.8595C24.7093 32.0221 25.1738 32.1554 25.6538 32.2664C25.7931 32.1554 25.9479 32.0445 26.1336 31.9259C26.5129 31.6818 27.0858 31.4523 28.0379 31.0674C29.1294 30.6236 30.7783 29.9575 33.2864 28.803C38.7206 26.2941 41.6467 21.6541 41.2596 18.79Z" fill="#48BABA"/>
        <path d="M22.5807 35.4487C22.449 37.0768 22.0697 37.5061 21.7524 37.5504C21.6672 37.5578 21.5743 37.5652 21.4814 37.5652C19.2984 37.5652 15.7298 35.0712 13.7558 31.0454C12.5869 28.6624 11.9135 27.086 11.4645 26.0425C11.0155 25.0066 10.7523 24.3775 10.3885 23.8372C9.89304 23.1121 9.40537 22.631 8.94089 22.3127C8.84026 22.5865 8.7319 22.8751 8.61578 23.1785C8.43773 23.6596 8.30613 24.1258 8.19775 24.5847C8.29839 24.7104 8.40677 24.8511 8.52289 25.0288C8.77058 25.3988 9.01056 25.9539 9.40537 26.8788C9.86208 27.9371 10.551 29.543 11.7354 31.9779C14.2048 37.0177 18.594 39.7336 21.4737 39.7336C21.6672 39.7336 21.8607 39.7188 22.0388 39.6967C23.9431 39.4524 24.5546 37.6911 24.7558 36.0926C24.1288 35.9445 23.5019 35.7744 22.8979 35.5597C22.7897 35.5227 22.689 35.4858 22.5807 35.4487Z" fill="#48BABA"/>
        <path d="M104.396 17.0139C105 17.0139 105.51 16.5181 105.51 15.926V12.0703H106.308C107.562 13.5061 108.684 14.9048 109.838 16.4441C110.101 16.8141 110.442 17.0139 110.813 17.0139C111.541 17.0139 111.928 16.4885 111.928 15.9926C111.928 15.7632 111.835 15.5116 111.688 15.334C110.697 14.0241 109.621 12.692 108.204 11.0417L111.634 6.89736C111.796 6.70495 111.905 6.43112 111.905 6.18692C111.905 5.68368 111.487 5.14343 110.813 5.14343C110.426 5.14343 110.109 5.31365 109.846 5.66146L106.277 10.0426H105.51V6.18692C105.51 5.60967 105.007 5.14343 104.396 5.14343C103.784 5.14343 103.304 5.60226 103.304 6.18692V15.926C103.297 16.5255 103.792 17.0139 104.396 17.0139Z" fill="#48BABA"/>
        <path d="M67.5947 5.14343C66.5961 5.14343 65.5975 5.43205 64.6764 5.9797C64.6067 5.87609 64.5215 5.77988 64.4286 5.68368L64.3978 5.66146C63.9874 5.34325 63.4766 5.14343 63.0585 5.14343C62.3928 5.14343 61.9438 5.53566 61.9438 6.12031C61.9438 6.37192 62.0368 6.71976 62.4935 6.97878L62.5321 7.00097C62.8185 7.12678 62.9657 7.186 62.9657 8.08146V19.7595C62.9657 20.3516 63.4688 20.8253 64.0803 20.8253C64.7074 20.8253 65.195 20.359 65.195 19.7595V16.3405C65.9613 16.7401 66.8439 16.9695 67.7032 16.9695C69.2282 16.9695 70.3816 16.4663 71.1324 15.482C71.7905 14.6235 72.1233 13.4099 72.1233 11.8705V9.77619C72.1233 8.27387 71.7828 7.16378 71.0705 6.38673C70.3275 5.56526 69.1507 5.14343 67.5947 5.14343ZM69.8938 9.71697V12.0037C69.8938 14.6605 68.5392 14.964 67.5251 14.964C67.2077 14.964 66.1161 14.8974 65.2027 14.0463V7.96304C65.9149 7.40801 66.7277 7.08977 67.4554 7.08977C69.2126 7.10458 69.8938 7.83724 69.8938 9.71697Z" fill="#48BABA"/>
        <path d="M59.9622 15.2747C58.2747 13.062 56.3935 10.7826 54.3808 8.48843L59.9234 1.75393C60.086 1.56152 60.1712 1.3321 60.1712 1.06568C60.1712 0.54024 59.7453 0 59.0333 0C58.53 0 58.2514 0.26642 58.0888 0.473635L52.4379 7.47456H50.4871V1.06568C50.4871 0.488437 49.9685 0 49.3492 0C48.7454 0 48.2344 0.488437 48.2344 1.06568V15.926C48.2344 16.5402 48.7377 17.0361 49.3492 17.0361C49.9763 17.0361 50.4871 16.5402 50.4871 15.926V9.56152H52.4921C53.6841 10.9602 56.3549 14.1425 58.0269 16.4958C58.1818 16.7253 58.4526 17.0361 59.01 17.0361C59.7764 17.0361 60.1945 16.4884 60.1945 15.9704C60.1945 15.7336 60.1171 15.4968 59.9698 15.2822L59.9622 15.2747Z" fill="#48BABA"/>
        <path d="M82.5582 24.7697C81.9311 24.7697 81.4435 25.2285 81.4435 25.8131V26.5013L76.4273 31.9186V25.8131C76.4273 25.2359 75.9242 24.7697 75.3127 24.7697C74.6856 24.7697 74.1746 25.2359 74.1746 25.8131V35.5522C74.1746 36.1666 74.6779 36.6402 75.3127 36.6402C75.9395 36.6402 76.4273 36.1592 76.4273 35.5522V34.864L81.4435 29.4689V35.5522C81.4435 36.1666 81.9311 36.6402 82.5582 36.6402C83.1775 36.6402 83.673 36.1516 83.673 35.5522V25.8205C83.673 25.2433 83.1697 24.7697 82.5582 24.7697Z" fill="#48BABA"/>
        <path d="M58.8784 34.4198H58.1506V25.9019C58.1506 25.332 57.6398 24.8584 57.036 24.8584H50.9282C50.3477 24.8584 49.8599 25.3173 49.8599 25.8576V28.9509C49.8599 31.4596 49.7284 33.1766 49.0627 34.4198H48.1879C47.6074 34.4198 47.166 34.8492 47.166 35.419V38.9712C47.166 39.5485 47.6383 39.9926 48.2343 39.9926C48.8227 39.9926 49.2794 39.5411 49.2794 38.9712V36.4403H57.8024V38.9712C57.8024 39.5485 58.2591 39.9926 58.8473 39.9926C59.4511 39.9926 59.9156 39.5411 59.9156 38.9712V35.419C59.9233 34.8713 59.4511 34.4198 58.8784 34.4198ZM55.9134 26.8861V34.4274H51.3618C51.8338 33.1692 52.0585 31.4079 52.0585 28.9583V26.8861H55.9134Z" fill="#48BABA"/>
        <path d="M69.4604 30.431C70.0331 29.9352 70.3505 29.2249 70.3505 28.3886V28.0185C70.3505 26.0575 68.903 24.8364 66.5653 24.8364H63.3758C62.7565 24.8364 62.2612 25.3174 62.2612 25.902V35.382C62.2612 35.9816 62.7488 36.4479 63.3758 36.4479H66.8439C68.1907 36.4479 69.2126 36.1443 69.8783 35.5375C70.4976 34.9824 70.8072 34.198 70.8072 33.199V32.8066C70.8072 31.8076 70.3274 30.964 69.4604 30.431ZM64.4751 29.6319V26.8197H66.3639C67.9121 26.8197 68.1211 27.4487 68.1211 28.063V28.4329C68.1211 28.7291 68.1211 29.6319 66.186 29.6319H64.4751ZM68.5933 32.814V33.1841C68.5933 33.8427 68.454 34.494 66.7897 34.494H64.4674V31.5486H66.5883C67.5095 31.5486 68.5933 31.7631 68.5933 32.814Z" fill="#48BABA"/>
        <path d="M123.57 24.7475C122.943 24.7475 122.456 25.2138 122.456 25.8131V29.4099H118.105V25.8131C118.105 25.2138 117.618 24.7475 116.991 24.7475C116.371 24.7475 115.876 25.2285 115.876 25.8131V35.5301C115.876 36.1221 116.379 36.5957 116.991 36.5957C117.618 36.5957 118.105 36.1294 118.105 35.5301V31.3487H122.456V35.5301C122.456 36.1294 122.943 36.5957 123.57 36.5957C124.19 36.5957 124.685 36.1147 124.685 35.5301V25.8205C124.685 25.2285 124.19 24.7475 123.57 24.7475Z" fill="#48BABA"/>
        <path d="M83.4253 5.14333C82.9375 5.14333 82.5427 5.41714 82.3956 5.85377L79.578 13.728C78.3394 10.6271 77.364 8.04434 76.6132 5.84637C76.4584 5.40975 76.0713 5.13593 75.6068 5.13593C74.9642 5.13593 74.4689 5.57256 74.4689 6.135C74.4689 6.23121 74.492 6.32001 74.5153 6.39402L74.5386 6.46803C75.4132 9.08782 76.7292 12.4699 78.4478 16.5328C77.4647 18.3311 76.5047 18.7085 75.3668 18.7085H75.3513C74.6701 18.7381 74.2986 19.2858 74.2986 19.7742C74.2986 20.2923 74.6856 20.8178 75.4132 20.8178C78.8038 20.8178 80.2747 18.0721 81.3584 15.1045L84.4935 6.54942L84.5246 6.43843C84.5477 6.34222 84.5632 6.2534 84.5632 6.1646C84.5632 5.57997 84.0754 5.14333 83.4253 5.14333Z" fill="#48BABA"/>
        <path d="M136.846 24.7697C136.219 24.7697 135.732 25.2285 135.732 25.8131V26.5013L130.715 31.9186V25.8131C130.715 25.2359 130.212 24.7697 129.601 24.7697C128.974 24.7697 128.463 25.2359 128.463 25.8131V35.5522C128.463 36.1666 128.966 36.6402 129.601 36.6402C130.228 36.6402 130.715 36.1592 130.715 35.5522V34.864L135.732 29.4689V35.5522C135.732 36.1666 136.219 36.6402 136.846 36.6402C137.466 36.6402 137.961 36.1516 137.961 35.5522V25.8205C137.961 25.2433 137.466 24.7697 136.846 24.7697Z" fill="#48BABA"/>
        <path d="M159.473 6.60864C158.668 5.63176 157.422 5.13593 155.789 5.13593C152.832 5.13593 151.074 6.96386 151.074 10.0129V12.0406C151.074 13.4468 151.438 14.6308 152.135 15.4671C152.948 16.4588 154.179 16.962 155.773 16.962C157.306 16.962 158.552 16.666 159.59 16.0665C159.837 15.9407 160.015 15.7335 160.093 15.4893C160.17 15.2525 160.139 15.0009 160.023 14.7788C159.907 14.5346 159.698 14.3496 159.443 14.2682C159.179 14.1794 158.901 14.2016 158.645 14.3348L158.63 14.3422C157.863 14.7862 156.996 14.9861 155.82 14.9861C154.14 14.9861 153.288 14.024 153.288 12.1294V11.8482H159.512C160.085 11.8482 160.511 11.4338 160.511 10.8935V9.99808C160.503 8.57718 160.155 7.4375 159.473 6.60864ZM158.297 9.87227V9.93888H153.281V9.89449C153.281 7.98514 154.101 7.06007 155.789 7.06007C157.523 7.06007 158.297 7.92594 158.297 9.87227Z" fill="#48BABA"/>
        <path d="M134.578 15.9333C135.197 15.3783 135.507 14.5938 135.507 13.5947V13.2025C135.507 12.196 135.027 11.3598 134.16 10.8269C134.733 10.3311 135.05 9.62065 135.05 8.78438V8.41435C135.05 6.4532 133.603 5.23212 131.265 5.23212H128.076C127.456 5.23212 126.961 5.71316 126.961 6.2978V15.7779C126.961 16.3773 127.449 16.8436 128.076 16.8436H131.536C132.883 16.8436 133.905 16.5328 134.578 15.9333ZM129.167 10.0203V7.20807H131.056C132.604 7.20807 132.813 7.83712 132.813 8.45136V8.82139C132.813 9.11741 132.813 10.0203 130.878 10.0203H129.167ZM133.293 13.2025V13.5725C133.293 14.2312 133.154 14.8824 131.489 14.8824H129.167V11.937H131.288C132.202 11.937 133.293 12.159 133.293 13.2025Z" fill="#48BABA"/>
        <path d="M146.066 24.7475C143.109 24.7475 141.352 26.5754 141.352 29.6244V31.6521C141.352 33.0583 141.716 34.2425 142.412 35.0786C143.225 36.0704 144.456 36.5736 146.05 36.5736C147.583 36.5736 148.83 36.2776 149.867 35.6782C150.114 35.5522 150.293 35.345 150.37 35.1009C150.447 34.864 150.416 34.6123 150.3 34.3904C150.184 34.1463 149.975 33.9612 149.72 33.8798C149.457 33.791 149.178 33.8131 148.922 33.9463L148.907 33.9539C148.141 34.3978 147.274 34.5975 146.097 34.5975C144.417 34.5975 143.566 33.6355 143.566 31.7409V31.4597H149.79C150.362 31.4597 150.788 31.0453 150.788 30.505V29.6097C150.788 28.1887 150.44 27.049 149.751 26.2201C148.938 25.2433 147.699 24.7475 146.066 24.7475ZM148.574 29.4765V29.543H143.558V29.4987C143.558 27.5893 144.378 26.6642 146.066 26.6642C147.8 26.6642 148.574 27.5301 148.574 29.4765Z" fill="#48BABA"/>
        <path d="M146.979 15.5337C147.707 14.7048 148.094 13.5355 148.094 12.159V9.96105C148.094 8.56975 147.707 7.40046 146.979 6.579C146.143 5.63174 144.897 5.1507 143.287 5.1507C141.677 5.1507 140.431 5.63174 139.594 6.579C138.867 7.40787 138.48 8.57716 138.48 9.96105V12.159C138.48 13.5429 138.867 14.7048 139.594 15.5337C140.438 16.4884 141.677 16.9694 143.287 16.9694C144.897 16.9694 146.143 16.4884 146.979 15.5337ZM140.686 12.159V9.96105C140.686 8.09611 141.537 7.19326 143.287 7.19326C145.037 7.19326 145.888 8.09611 145.888 9.96105V12.159C145.888 14.024 145.037 14.9268 143.287 14.9268C141.537 14.9268 140.686 14.0166 140.686 12.159Z" fill="#48BABA"/>
        <path d="M101.191 25.8427C101.191 25.3395 100.75 24.7992 100.099 24.7992C99.6891 24.7992 99.3639 24.9768 99.1008 25.3469L95.5554 29.7059H94.7657V25.8724C94.7657 25.2876 94.286 24.8289 93.6742 24.8289C93.0241 24.8289 92.5596 25.2654 92.5596 25.8724V29.7059H91.7932L88.2478 25.3469C88.0621 25.1176 87.7678 24.8066 87.257 24.8066C86.5835 24.8066 86.1654 25.3469 86.1654 25.8501C86.1654 26.1239 86.2739 26.383 86.4673 26.5754L89.8657 30.7048C88.4492 32.3627 87.3654 33.6948 86.3821 35.0045L86.3746 35.0195C86.2661 35.1748 86.1499 35.4265 86.1499 35.6632C86.1499 36.174 86.537 36.6845 87.2647 36.6845C87.644 36.6845 87.9614 36.5069 88.24 36.1368C89.4709 34.494 90.5935 33.0952 91.7777 31.7409H92.5751V35.5967C92.5751 36.2109 93.0627 36.6845 93.6897 36.6845C94.2935 36.6845 94.7813 36.1961 94.7813 35.5967V31.7409H95.5787C96.6933 33.0287 97.8312 34.4273 99.1317 36.1368C99.3717 36.4921 99.7201 36.6919 100.115 36.6919C100.835 36.6919 101.206 36.1739 101.206 35.6706C101.206 35.4412 101.098 35.1969 101.028 35.0712L101.013 35.0416L100.997 35.0195C99.8439 33.4876 98.59 32.0074 97.4907 30.7196L100.92 26.5754C101.005 26.4273 101.191 26.1684 101.191 25.8427Z" fill="#48BABA"/>
        <path d="M87.8764 16.5107C89.1073 14.8678 90.2296 13.4691 91.4141 12.1148H92.2113V15.9705C92.2113 16.5847 92.6991 17.0583 93.3261 17.0583C93.9299 17.0583 94.4177 16.5699 94.4177 15.9705V12.1148H95.2149C96.3297 13.4025 97.4676 14.8012 98.7681 16.5107C99.0081 16.8659 99.3563 17.0658 99.7511 17.0658C100.471 17.0658 100.843 16.5477 100.843 16.0445C100.843 15.8151 100.734 15.5708 100.665 15.445L100.649 15.4154L100.634 15.3932C99.4803 13.8613 98.2262 12.3812 97.1269 11.0935L100.556 6.9492C100.665 6.82339 100.85 6.56438 100.85 6.23874C100.85 5.73552 100.409 5.19527 99.7589 5.19527C99.3488 5.19527 99.0236 5.37287 98.7603 5.7429L95.2149 10.1018H94.4254V6.25355C94.4254 5.66891 93.9454 5.21006 93.3339 5.21006C92.6835 5.21006 92.2191 5.6467 92.2191 6.25355V10.087H91.4527L87.9075 5.72811C87.7294 5.4987 87.4275 5.18787 86.9166 5.18787C86.243 5.18787 85.8251 5.72811 85.8251 6.23135C85.8251 6.50516 85.9333 6.76419 86.127 6.9566L89.5252 11.0861C88.1087 12.7438 87.0249 14.0759 86.0418 15.3858L86.034 15.4006C85.9256 15.5561 85.8096 15.8077 85.8096 16.0445C85.8096 16.5551 86.1966 17.0658 86.9242 17.0658C87.2804 17.0584 87.5978 16.8807 87.8764 16.5107Z" fill="#48BABA"/>
        <path d="M107.972 24.7475C105.015 24.7475 103.258 26.5754 103.258 29.6244V31.6521C103.258 33.0583 103.622 34.2425 104.318 35.0786C105.131 36.0704 106.362 36.5736 107.956 36.5736C109.489 36.5736 110.736 36.2776 111.773 35.6782C112.021 35.5522 112.199 35.345 112.276 35.1009C112.353 34.864 112.323 34.6123 112.206 34.3904C112.09 34.1463 111.881 33.9612 111.626 33.8798C111.363 33.791 111.084 33.8131 110.828 33.9463L110.813 33.9539C110.047 34.3978 109.18 34.5975 108.003 34.5975C106.323 34.5975 105.472 33.6355 105.472 31.7409V31.4597H111.696C112.268 31.4597 112.694 31.0453 112.694 30.505V29.6097C112.694 28.1887 112.346 27.049 111.657 26.2201C110.844 25.2433 109.605 24.7475 107.972 24.7475ZM105.464 29.543V29.4987C105.464 27.5893 106.284 26.6642 107.972 26.6642C109.706 26.6642 110.48 27.5301 110.48 29.4765V29.543H105.464Z" fill="#48BABA"/>
        <path d="M124.825 2.84917C124.376 2.55315 123.764 2.64935 123.454 3.07858L121.48 5.75019C120.753 5.34316 119.862 5.13594 118.81 5.13594C117.2 5.13594 115.953 5.61698 115.117 6.56425C114.39 7.39311 114.003 8.5624 114.003 9.9463V12.1443C114.003 13.2321 114.243 14.1794 114.699 14.9417L112.733 17.6059C112.423 18.0277 112.524 18.6198 112.973 18.9158C113.143 19.0342 113.344 19.086 113.538 19.086C113.848 19.086 114.15 18.9454 114.343 18.6864L116.093 16.3108C116.828 16.7326 117.741 16.9546 118.81 16.9546C120.42 16.9546 121.666 16.4736 122.502 15.5189C123.23 14.6901 123.617 13.5208 123.617 12.1443V9.9463C123.617 8.83623 123.369 7.85934 122.897 7.09709L125.065 4.15908C125.382 3.73723 125.274 3.15259 124.825 2.84917ZM121.411 9.9537V12.1517C121.411 14.0166 120.559 14.9195 118.81 14.9195C118.221 14.9195 117.741 14.8159 117.354 14.6161L121.349 9.19885C121.388 9.42827 121.411 9.67988 121.411 9.9537ZM116.209 12.1591V9.96111C116.209 8.09616 117.06 7.19329 118.81 7.19329C119.367 7.19329 119.839 7.2895 120.219 7.47452L116.255 12.8399C116.224 12.6253 116.209 12.4033 116.209 12.1591Z" fill="#48BABA"/>
    </g>
    <defs>
        <clipPath id="clip0">
            <rect width="160" height="40" fill="white" transform="translate(0.5)"/>
        </clipPath>
    </defs>
</svg>
