<svg width="110" height="40" viewBox="0 0 112 43" fill="none" xmlns="http://www.w3.org/2000/svg">
    <g clip-path="url(#clip0)">
        <path d="M19.6068 9.4104L19.4985 9.37184C19.2898 9.29758 19.0771 9.23464 18.8615 9.18332C18.9308 8.62345 19.1403 7.99503 19.7903 7.90934C19.8545 7.9007 19.9191 7.8964 19.9839 7.89649C20.9691 7.89649 22.4699 8.85768 23.3149 10.6458C23.7105 11.4806 23.9439 12.0407 24.1 12.4151L24.1138 12.4482C24.1964 12.6735 24.2974 12.8918 24.4157 13.1009C24.4504 13.156 24.4885 13.209 24.5298 13.2595C24.4909 13.4272 24.4427 13.5926 24.3854 13.7551C24.3478 13.8636 24.3102 13.9665 24.2741 14.065C24.0781 13.9145 23.9112 13.7301 23.7816 13.5208C23.6353 13.2728 23.5121 13.0123 23.4132 12.7425L23.41 12.7349C23.2569 12.3663 23.0262 11.8112 22.6302 10.9743C21.9557 9.54894 20.735 8.66773 19.9897 8.66773C19.9584 8.66551 19.927 8.66551 19.8957 8.66773C19.7802 8.68201 19.6516 8.83911 19.6068 9.4104Z" fill="#188E8E"/>
        <path d="M15.9146 11.4309L15.8106 11.4809L15.7933 11.4795C15.5949 11.5751 15.402 11.6814 15.2155 11.798C14.8645 11.341 14.5712 10.7497 14.9714 10.227C15.4004 9.66566 16.3538 9.3186 17.4603 9.3186C18.1166 9.32113 18.7675 9.43564 19.3844 9.65709C20.2786 9.98273 20.8448 10.2155 21.2189 10.3712C21.4365 10.4708 21.6615 10.5534 21.8921 10.6183C21.9575 10.6317 22.0236 10.6417 22.09 10.6483C22.179 10.7941 22.2605 10.9442 22.3342 11.0982C22.3876 11.2053 22.4352 11.3038 22.4786 11.3995C22.3961 11.4142 22.3125 11.4218 22.2287 11.4224C22.0649 11.4205 21.9017 11.4019 21.7419 11.3667C21.464 11.2959 21.1933 11.2003 20.9329 11.081L20.9225 11.0767C20.5556 10.9253 20.0016 10.6967 19.1331 10.3869C18.6009 10.1954 18.0396 10.0954 17.4733 10.0913C16.4924 10.0913 15.8193 10.3969 15.5882 10.6997C15.5203 10.7897 15.5376 10.9882 15.9146 11.4309Z" fill="#188E8E"/>
        <path d="M23.6386 10.6026L23.5938 10.504V10.5054C23.4978 10.3037 23.3907 10.1072 23.2731 9.91701C23.5634 9.68706 23.9087 9.48854 24.264 9.48854C24.4667 9.48748 24.6638 9.55444 24.8231 9.67849C25.6334 10.3083 26.0784 12.1722 25.3893 14.1146C25.0715 15.01 24.8404 15.5785 24.6858 15.9541C24.5854 16.1729 24.5028 16.3993 24.4388 16.6311L24.4347 16.6516L24.431 16.6694C24.4192 16.7268 24.4085 16.7787 24.4085 16.8268C24.2636 16.9154 24.1141 16.9964 23.9607 17.0695L23.6588 17.2124C23.6252 16.9662 23.637 16.716 23.6935 16.474C23.7656 16.1953 23.8623 15.9234 23.9824 15.6613C24.0004 15.6165 24.0195 15.5692 24.0397 15.5192L24.0401 15.5181C24.1899 15.1478 24.3996 14.6292 24.6742 13.8561C25.2694 12.1707 24.8664 10.6754 24.3593 10.2855C24.3324 10.2641 24.2986 10.2529 24.264 10.2541C24.0892 10.2541 23.848 10.424 23.6386 10.6026Z" fill="#188E8E"/>
        <path d="M24.5572 18.3223L24.4532 18.3708C24.8302 18.815 24.8475 19.0135 24.7796 19.1021C24.5485 19.4048 23.8754 19.7119 22.9017 19.7119C22.3326 19.7085 21.7683 19.6085 21.2333 19.4163C20.3507 19.1035 19.7946 18.8778 19.4219 18.7221C19.1614 18.6021 18.89 18.5065 18.6115 18.4365C18.4573 18.4028 18.3 18.3851 18.142 18.3837C18.0528 18.3839 17.9639 18.3921 17.8762 18.4079L18.0207 18.705C18.0944 18.8583 18.1764 19.0075 18.2662 19.152C18.3314 19.1578 18.396 19.1678 18.4598 19.182C18.6909 19.2453 18.9161 19.328 19.1329 19.4291L19.1524 19.4371C19.5266 19.5914 20.0887 19.8231 20.9675 20.1432C21.584 20.3619 22.2338 20.4744 22.8887 20.476C23.8494 20.476 24.9501 20.1275 25.3791 19.5677C25.7793 19.0435 25.486 18.4522 25.135 17.9966C24.9482 18.1131 24.7553 18.2199 24.5572 18.3165V18.3223Z" fill="#188E8E"/>
        <path d="M16.7162 19.1819L16.7697 19.2976L16.7639 19.3019C16.8602 19.4923 16.9652 19.6827 17.0788 19.8731C16.7783 20.1288 16.4764 20.3302 16.1196 20.3302C15.9085 20.3272 15.7047 20.2531 15.5418 20.1202C14.7329 19.5018 14.2865 17.6308 14.9727 15.6927C15.2905 14.7958 15.5216 14.2274 15.6776 13.8518C15.7784 13.6337 15.8605 13.4078 15.9232 13.1762C15.9391 13.1048 15.9477 13.0406 15.9549 12.982C16.0993 12.8924 16.2482 12.8104 16.4013 12.7363L16.7032 12.5935C16.7368 12.8382 16.7255 13.0869 16.67 13.3276C16.5983 13.606 16.5016 13.8775 16.3811 14.1388L16.3626 14.1843C16.2124 14.5539 15.9901 15.101 15.6906 15.9456C15.0954 17.6308 15.4985 19.1262 16.0041 19.5161C16.0369 19.5472 16.08 19.5655 16.1254 19.5675C16.267 19.5675 16.4952 19.3804 16.7162 19.1819Z" fill="#188E8E"/>
        <path d="M14.7072 15.5124C14.7119 15.4993 14.7166 15.4861 14.7214 15.4728C14.1436 15.4371 13.9991 15.3785 13.9774 15.2042C13.8937 14.5644 14.6549 13.2204 16.267 12.4506C17.1077 12.0493 17.6624 11.8179 18.0294 11.6651C18.2982 11.5651 18.5573 11.4413 18.8036 11.2952C19.0158 11.1629 19.2014 10.9929 19.3511 10.7939L19.0333 10.6782C18.8757 10.6222 18.7151 10.5745 18.5523 10.5354C18.5046 10.574 18.4512 10.6125 18.3862 10.6554C18.1783 10.7742 17.9609 10.876 17.7361 10.9596C17.362 11.1153 16.7986 11.3523 15.9406 11.7608C14.0901 12.6463 13.089 14.2859 13.2219 15.3071C13.3158 16.0212 13.9327 16.164 14.4946 16.2197C14.5451 16.0069 14.6058 15.7913 14.678 15.5885V15.5927C14.6886 15.5652 14.6979 15.5388 14.7072 15.5124Z" fill="#188E8E"/>
        <path d="M27.1415 14.5032C27.0562 13.849 26.4365 13.6377 25.8732 13.5691C25.8225 13.7875 25.7598 14.003 25.6854 14.2147L25.6478 14.3175C26.2256 14.3632 26.3701 14.4917 26.3874 14.6032C26.4697 15.2387 25.7027 16.5827 24.0964 17.3482C23.2859 17.7357 22.7408 17.9648 22.374 18.119L22.3355 18.1352C22.066 18.2346 21.8063 18.3584 21.5598 18.5051C21.3466 18.6367 21.1604 18.8067 21.0109 19.0064L21.3287 19.1221C21.4865 19.1776 21.647 19.2253 21.8097 19.2649C21.8627 19.2214 21.9182 19.1808 21.9758 19.1435C22.1838 19.0252 22.4012 18.924 22.6259 18.8407L22.6583 18.8271C23.0325 18.67 23.5892 18.4363 24.42 18.0394C26.2733 17.164 27.2744 15.5158 27.1415 14.5032Z" fill="#188E8E"/>
        <path d="M20.7581 20.3931L20.8664 20.4317C21.073 20.5051 21.2832 20.5681 21.4962 20.6202C21.4341 21.1787 21.2174 21.8071 20.5674 21.8927C20.5033 21.9019 20.4386 21.9067 20.3738 21.907C19.3959 21.9056 17.895 20.9444 17.0514 19.1634C16.6455 18.3065 16.41 17.7352 16.2598 17.361C16.1766 17.136 16.0756 16.9177 15.9579 16.7083C15.9174 16.6469 15.8799 16.5955 15.8452 16.5526C15.8841 16.384 15.9323 16.2176 15.9897 16.0542C16.0125 15.9891 16.0353 15.9261 16.0575 15.8649C16.0718 15.8254 16.0858 15.7867 16.0994 15.7485C16.2951 15.897 16.4611 16.08 16.5891 16.2884C16.7348 16.5365 16.8576 16.797 16.9561 17.0668C16.968 17.0952 16.9804 17.1247 16.9934 17.1555C17.1474 17.5219 17.3723 18.057 17.7361 18.8292C18.4093 20.2532 19.6299 21.1358 20.3753 21.1358C20.4065 21.1374 20.4379 21.1374 20.4692 21.1358C20.5847 21.1215 20.7119 20.9644 20.7581 20.3931Z" fill="#188E8E"/>
    </g>
    <path d="M36 35.5V34H34.5V32.5H33V28H34.5V26.5H36V25H43.5V26.5H37.5V28H36V32.5H37.5V34H40.5V31H39V29.5H43.5V35.5H36ZM46.5 35.5V34H45V32.5H46.5V31H52.5V29.5H46.5V28H54V29.5H55.5V35.5H46.5ZM48 34H52.5V32.5H48V34ZM57 35.5V28H66V29.5H67.5V35.5H64.5V29.5H63V35.5H60V29.5H58.5V35.5H57ZM70.5 35.5V34H69V29.5H70.5V28H78V29.5H79.5V32.5H72V34H78V35.5H70.5ZM72 31H76.5V29.5H72V31ZM81 35.5V34H88.5V32.5H82.5V31H81V29.5H82.5V28H90V29.5H84V31H90V32.5H91.5V34H90V35.5H81Z" fill="#1C2554"/>
    <path d="M31.4268 4.43805H20.3034C19.5456 4.43805 18.853 4.00984 18.5143 3.33202L18.2463 2.79572C17.9076 2.1179 17.2149 1.6897 16.4572 1.6897H14.5741C13.9443 1.6897 13.3514 1.98628 12.9737 2.49018L11.5137 4.43805C7.39379 11.5379 -0.159426 28.1425 2.5872 37.7618C5.33382 47.381 16.7781 33.2957 22.1569 25.0507H31.4268" stroke="#1C2554" stroke-width="3"/>
    <path d="M46.4033 8.32812H41.2471L38.7041 23H35.8213L38.376 8.32812H33.2549L33.6768 5.9375H46.8252L46.4033 8.32812ZM51.4307 23C51.3369 22.6875 51.2979 22.293 51.3135 21.8164C50.2666 22.793 49.1377 23.2656 47.9268 23.2344C46.8252 23.2188 45.9111 22.8672 45.1846 22.1797C44.4658 21.4844 44.1299 20.6055 44.1768 19.543C44.2393 18.207 44.8174 17.1562 45.9111 16.3906C47.0049 15.625 48.4736 15.2422 50.3174 15.2422L52.1221 15.2656L52.2861 14.3984C52.333 14.0938 52.333 13.8086 52.2861 13.543C52.1299 12.6992 51.5713 12.2656 50.6104 12.2422C50.0166 12.2266 49.4932 12.3789 49.04 12.6992C48.5947 13.0117 48.3213 13.4336 48.2197 13.9648L45.4424 13.9883C45.4971 13.207 45.7744 12.5234 46.2744 11.9375C46.7744 11.3438 47.4385 10.8828 48.2666 10.5547C49.0947 10.2266 49.9697 10.0703 50.8916 10.0859C52.2744 10.1172 53.3525 10.5352 54.126 11.3398C54.8994 12.1367 55.2197 13.1719 55.0869 14.4453L54.1143 20.3867L54.0205 21.4414C53.9971 21.9023 54.0557 22.3516 54.1963 22.7891L54.1846 23H51.4307ZM48.5713 20.9609C49.1572 20.9766 49.7002 20.8438 50.2002 20.5625C50.7002 20.2734 51.126 19.9023 51.4775 19.4492L51.9111 17.0469L50.5869 17.0352C49.54 17.0352 48.7041 17.2344 48.0791 17.6328C47.4541 18.0234 47.0986 18.5625 47.0127 19.25C46.9502 19.7734 47.0635 20.1875 47.3525 20.4922C47.6494 20.7891 48.0557 20.9453 48.5713 20.9609ZM69.29 10.3203L67.0986 23H64.3096L66.1143 12.6172H62.6689L61.5088 17.9141C61.0947 19.7109 60.4893 21.0117 59.6924 21.8164C58.8955 22.6133 57.876 23.0078 56.6338 23H55.6729L55.9307 20.6445L56.3525 20.6094C57.0635 20.5469 57.6416 20.2227 58.0869 19.6367C58.54 19.043 58.8877 18.0625 59.1299 16.6953L59.3057 15.7344L60.4307 10.3203H69.29ZM77.6807 23C77.5869 22.6875 77.5479 22.293 77.5635 21.8164C76.5166 22.793 75.3877 23.2656 74.1768 23.2344C73.0752 23.2188 72.1611 22.8672 71.4346 22.1797C70.7158 21.4844 70.3799 20.6055 70.4268 19.543C70.4893 18.207 71.0674 17.1562 72.1611 16.3906C73.2549 15.625 74.7236 15.2422 76.5674 15.2422L78.3721 15.2656L78.5361 14.3984C78.583 14.0938 78.583 13.8086 78.5361 13.543C78.3799 12.6992 77.8213 12.2656 76.8604 12.2422C76.2666 12.2266 75.7432 12.3789 75.29 12.6992C74.8447 13.0117 74.5713 13.4336 74.4697 13.9648L71.6924 13.9883C71.7471 13.207 72.0244 12.5234 72.5244 11.9375C73.0244 11.3438 73.6885 10.8828 74.5166 10.5547C75.3447 10.2266 76.2197 10.0703 77.1416 10.0859C78.5244 10.1172 79.6025 10.5352 80.376 11.3398C81.1494 12.1367 81.4697 13.1719 81.3369 14.4453L80.3643 20.3867L80.2705 21.4414C80.2471 21.9023 80.3057 22.3516 80.4463 22.7891L80.4346 23H77.6807ZM74.8213 20.9609C75.4072 20.9766 75.9502 20.8438 76.4502 20.5625C76.9502 20.2734 77.376 19.9023 77.7275 19.4492L78.1611 17.0469L76.8369 17.0352C75.79 17.0352 74.9541 17.2344 74.3291 17.6328C73.7041 18.0234 73.3486 18.5625 73.2627 19.25C73.2002 19.7734 73.3135 20.1875 73.6025 20.4922C73.8994 20.7891 74.3057 20.9453 74.8213 20.9609ZM93.3135 23H90.5244L91.415 17.8789H86.6572L85.7666 23H82.9775L85.1807 10.3203H87.9697L87.0439 15.6055H91.8135L92.7275 10.3203H95.5166L93.3135 23ZM107.856 12.582H103.872L102.056 23H99.2783L101.083 12.582H97.1338L97.5322 10.3203H108.255L107.856 12.582Z" fill="#188E8E"/>
    <defs>
        <clipPath id="clip0">
            <rect width="14.0127" height="14.4828" fill="white" transform="translate(13.2102 7.89648)"/>
        </clipPath>
    </defs>
</svg>
