<svg width="17" height="16" viewBox="0 0 17 16" fill="none" xmlns="http://www.w3.org/2000/svg">
    <path d="M16.5 8C16.5 12.4185 12.9185 16 8.5 16C4.0815 16 0.5 12.4185 0.5 8C0.5 3.5815 4.0815 0 8.5 0C12.9185 0 16.5 3.5815 16.5 8ZM8.787 5.906C8.009 6.2295 6.454 6.8995 4.1215 7.9155C3.743 8.066 3.5445 8.2135 3.5265 8.3575C3.496 8.601 3.801 8.697 4.216 8.8275C4.2725 8.8455 4.331 8.8635 4.391 8.883C4.7995 9.016 5.349 9.171 5.6345 9.1775C5.8935 9.183 6.183 9.076 6.502 8.857C8.681 7.386 9.806 6.6425 9.8765 6.6265C9.9265 6.615 9.9955 6.601 10.042 6.6425C10.0885 6.684 10.084 6.763 10.079 6.784C10.049 6.913 8.852 8.0255 8.2325 8.601C8.0395 8.7805 7.9025 8.908 7.8745 8.937C7.812 9.002 7.748 9.0635 7.6865 9.123C7.307 9.489 7.0225 9.763 7.7025 10.211C8.029 10.4265 8.2905 10.6045 8.5515 10.782C8.8365 10.976 9.1205 11.1695 9.488 11.4105C9.5815 11.472 9.671 11.5355 9.758 11.598C10.0895 11.8345 10.3875 12.0465 10.755 12.0125C10.969 11.993 11.1895 11.792 11.3015 11.192C11.5665 9.775 12.0875 6.7055 12.208 5.4405C12.2185 5.3295 12.205 5.188 12.1945 5.1255C12.184 5.063 12.1615 4.9745 12.0805 4.909C11.9845 4.831 11.8365 4.815 11.7705 4.816C11.4695 4.8215 11.008 4.982 8.786 5.906H8.787Z" fill="#1C2554"/>
</svg>
