<svg width="17" height="16" viewBox="0 0 17 16" fill="none" xmlns="http://www.w3.org/2000/svg">
    <path d="M1.62254 1.12274C0.5 2.24524 0.5 4.05274 0.5 7.66674V8.33324C0.5 11.9472 0.5 13.7542 1.62254 14.8772C2.74507 16.0002 4.55263 15.9997 8.16674 15.9997H8.83326C12.4474 15.9997 14.2544 15.9997 15.3775 14.8772C16.5005 13.7547 16.5 11.9472 16.5 8.33324V7.66674C16.5 4.05274 16.5 2.24574 15.3775 1.12274C14.2549 -0.000255942 12.4474 0.000244141 8.83326 0.000244141H8.16674C4.55263 0.000244141 2.74557 0.000244141 1.62254 1.12274ZM3.6666 5.00024H4.83364C5.13164 5.00024 5.24415 5.13074 5.35615 5.45374C5.92667 7.11574 6.8892 8.56824 7.28471 8.56824C7.43322 8.56824 7.50122 8.49974 7.50122 8.12324V6.40524C7.47422 5.91624 7.30371 5.70474 7.17671 5.54824C7.09871 5.45174 7.0372 5.37574 7.0372 5.26824C7.0372 5.13774 7.14871 5.00024 7.33421 5.00024H9.16777C9.41528 5.00024 9.50128 5.13224 9.50128 5.42924V7.74074C9.50128 7.98774 9.60878 8.07424 9.68279 8.07424C9.83129 8.07424 9.95479 7.98774 10.2268 7.71574C11.0673 6.77624 11.6608 5.33024 11.6608 5.33024C11.7349 5.15724 11.8719 5.00024 12.1684 5.00024H13.3354C13.6884 5.00024 13.7624 5.18174 13.6884 5.42924C13.5399 6.10924 12.1184 8.11124 12.1184 8.11124C11.9949 8.30874 11.9454 8.40774 12.1184 8.63024C12.1794 8.71574 12.3094 8.84274 12.4579 8.98874C12.6109 9.13874 12.7839 9.30774 12.9219 9.47074C13.4234 10.0342 13.8009 10.5102 13.9064 10.8377C14.0024 11.1667 13.8359 11.3332 13.5024 11.3332H12.3354C12.0229 11.3332 11.8654 11.1582 11.5253 10.7797C11.3813 10.6192 11.2043 10.4227 10.9688 10.1872C10.2763 9.51974 9.9798 9.43324 9.80679 9.43324C9.57178 9.43324 9.50178 9.49974 9.50178 9.83324V10.8797C9.50178 11.1667 9.41028 11.3332 8.66826 11.3332C7.43172 11.3332 6.07317 10.5827 5.10914 9.19874C3.6626 7.17174 3.26709 5.63924 3.26709 5.33024C3.26709 5.15724 3.33359 5.00024 3.6671 5.00024H3.6666Z" fill="#1C2554"/>
</svg>
